<?xml version="1.0" standalone="no"?>
<!DOCTYPE svg PUBLIC "-//W3C//DTD SVG 20010904//EN"
 "http://www.w3.org/TR/2001/REC-SVG-20010904/DTD/svg10.dtd">
<svg version="1.0" xmlns="http://www.w3.org/2000/svg"
 width="2048.000000pt" height="2048.000000pt" viewBox="0 0 2048.000000 2048.000000"
 preserveAspectRatio="xMidYMid meet">
<metadata>
Created by potrace 1.16, written by Peter Selinger 2001-2019
</metadata>
<g transform="translate(0.000000,2048.000000) scale(0.100000,-0.100000)"
fill="#000000" stroke="none">
<path d="M7103 15200 c-513 -42 -992 -299 -1307 -703 -166 -213 -311 -490
-399 -760 -93 -283 -183 -785 -212 -1182 -3 -44 -10 -132 -15 -195 -52 -650
-29 -1507 56 -2105 51 -364 167 -764 312 -1076 180 -390 514 -771 889 -1013
190 -123 485 -256 713 -322 291 -85 631 -113 950 -79 183 19 302 46 510 115
440 145 757 329 2055 1188 220 146 465 308 545 360 786 516 1786 1190 1843
1242 282 259 337 593 150 908 -71 121 -195 229 -523 459 -102 71 -295 208
-430 303 -135 96 -366 259 -515 363 -148 104 -353 249 -455 322 -191 137 -628
447 -836 594 -65 47 -258 183 -429 304 -942 666 -1436 950 -1986 1142 -301
105 -650 156 -916 135z m487 -69 c138 -25 243 -51 255 -63 7 -7 -1 -8 -22 -3
-23 5 -33 3 -33 -6 0 -8 14 -10 51 -6 41 5 69 0 153 -27 186 -61 440 -171 430
-187 -3 -5 1 -6 9 -3 15 5 153 -60 300 -143 45 -25 100 -56 122 -68 22 -12 69
-40 105 -63 36 -23 80 -49 98 -58 18 -9 45 -28 61 -43 15 -14 32 -28 37 -31 5
-3 8 -8 6 -12 -1 -5 7 -8 18 -8 37 0 274 -155 264 -172 -4 -7 -2 -8 4 -4 7 4
22 0 34 -9 22 -15 22 -15 -16 -10 -29 3 -42 0 -52 -12 -10 -14 -15 -15 -27 -5
-11 10 -16 10 -19 1 -2 -6 -22 -13 -43 -14 -55 -4 -149 49 -134 76 5 10 9 21
9 26 0 8 -6 9 -87 15 -29 2 -37 5 -27 11 8 4 22 6 32 3 9 -2 28 -8 41 -11 16
-5 21 -4 17 4 -4 7 1 11 13 11 11 0 22 4 25 9 3 4 -8 8 -23 7 -16 -1 -27 -4
-24 -8 2 -5 -5 -8 -17 -8 -25 0 -17 18 14 30 l21 9 -21 0 c-12 1 -24 -5 -27
-13 -3 -8 -18 -14 -34 -14 -15 1 -39 -2 -52 -7 -15 -4 -21 -3 -17 3 3 5 -8 12
-25 16 -18 3 -28 10 -24 17 4 6 1 9 -6 7 -8 -1 -77 30 -155 69 -77 40 -165 82
-195 93 -107 42 -169 73 -163 81 3 5 -3 8 -13 6 -28 -3 -143 37 -143 51 0 6
-4 12 -10 12 -5 0 -10 -5 -10 -11 0 -8 -4 -8 -12 -2 -7 5 -53 20 -103 33 -49
13 -93 28 -97 34 -4 6 -10 8 -13 4 -3 -3 -32 0 -63 7 -71 17 -221 42 -287 49
-103 10 -230 20 -244 19 -245 -23 -381 -45 -457 -73 -20 -8 -30 -8 -32 -1 -2
6 -8 11 -14 11 -6 0 -8 -6 -5 -13 3 -9 -12 -20 -46 -32 -29 -10 -73 -29 -99
-42 -27 -13 -48 -18 -48 -13 0 6 -5 8 -10 5 -6 -4 -8 -10 -5 -15 5 -8 -37 -27
-43 -19 -1 2 -7 -3 -12 -11 -7 -10 -10 -11 -10 -2 0 6 -10 12 -22 12 -21 -1
-21 -2 -6 -13 15 -12 15 -14 -3 -25 -11 -7 -24 -10 -30 -7 -5 4 -8 1 -7 -7 2
-7 -3 -12 -9 -10 -7 1 -13 -2 -13 -6 0 -4 -9 -8 -20 -9 -13 -1 -18 3 -14 10 3
7 -3 2 -14 -10 -11 -12 -21 -21 -23 -20 -3 1 1 -3 8 -9 9 -8 7 -13 -9 -23 -11
-7 -17 -8 -13 -2 3 7 -2 11 -13 11 -11 0 -23 -7 -26 -16 -4 -10 -14 -14 -26
-11 -11 3 -23 1 -26 -4 -3 -5 1 -9 8 -9 10 0 9 -3 -2 -10 -12 -8 -12 -10 4
-16 15 -6 11 -13 -30 -55 -26 -26 -51 -46 -56 -43 -4 3 -5 -2 -2 -11 5 -11 2
-14 -11 -9 -12 5 -16 2 -13 -12 2 -12 -3 -19 -14 -19 -20 0 -29 -8 -32 -29 -3
-19 -74 -116 -84 -115 -20 3 -55 -3 -44 -8 6 -2 12 -9 12 -15 0 -5 -6 -8 -12
-5 -7 2 -23 0 -35 -4 -17 -6 -21 -5 -16 7 3 9 0 14 -7 12 -6 -2 -19 8 -28 21
-16 24 -16 24 8 11 23 -12 24 -12 11 3 -7 10 -22 17 -32 17 -11 0 -19 5 -19
10 0 6 -5 10 -11 10 -5 0 -8 -4 -5 -8 3 -5 -5 -7 -17 -6 -12 1 -22 3 -22 4 0
4 -42 11 -72 12 -17 1 -29 6 -27 10 3 5 11 5 17 1 9 -5 9 -3 0 8 -7 9 -13 30
-15 47 -2 27 -6 31 -21 26 -12 -4 -17 -2 -13 4 4 6 -2 8 -16 4 -13 -3 -19 -1
-15 5 5 7 -4 10 -22 9 -17 -1 -27 2 -25 6 3 5 0 15 -6 23 -9 11 -9 15 -1 15 6
0 11 7 11 15 0 8 6 14 13 12 6 -1 12 5 12 13 0 23 58 100 72 95 7 -2 10 2 7 9
-3 8 38 58 98 120 76 77 111 106 128 106 17 0 21 3 12 8 -17 11 73 83 94 75 8
-3 14 1 14 11 0 22 122 99 132 83 5 -8 8 -6 8 5 0 32 307 166 346 151 11 -4
15 -3 10 5 -12 20 106 49 359 86 74 11 414 -4 515 -23z m91 -382 c470 -47
1022 -263 1599 -624 149 -94 412 -265 425 -276 5 -5 -17 0 -50 11 -88 30 -344
105 -465 135 -333 84 -625 120 -905 112 -123 -4 -231 -13 -305 -26 -309 -54
-611 -190 -804 -362 -259 -231 -431 -506 -561 -895 -140 -418 -196 -790 -196
-1289 -1 -419 45 -791 132 -1093 189 -653 493 -1103 949 -1406 151 -101 393
-214 566 -265 189 -56 483 -86 753 -78 315 10 510 40 846 132 55 15 107 28
115 29 9 1 21 6 29 10 9 6 12 5 9 -4 -4 -14 -210 -147 -363 -235 -318 -183
-601 -312 -837 -379 -435 -125 -774 -129 -1182 -15 -492 138 -911 443 -1191
864 -215 323 -387 759 -460 1165 -8 47 -21 114 -29 150 -105 480 -132 1258
-66 1945 72 757 275 1392 568 1778 110 146 270 301 394 383 292 192 646 273
1029 233z m-1815 -481 c4 -7 4 -10 -1 -6 -4 4 -13 1 -19 -8 -10 -13 -12 -13
-12 5 0 23 21 28 32 9z m3822 -181 c61 -43 112 -81 112 -82 0 -14 -14 -34 -20
-30 -5 3 -6 -3 -3 -14 3 -12 -5 -28 -23 -44 l-27 -25 -33 21 c-201 133 -251
170 -226 166 19 -3 25 2 12 11 -10 7 -12 12 -4 18 18 12 35 52 28 63 -4 6 0
15 7 20 16 9 21 6 177 -104z m-358 83 c0 -5 -4 -10 -10 -10 -5 0 -10 5 -10 10
0 6 5 10 10 10 6 0 10 -4 10 -10z m-660 -129 c25 -5 37 -9 28 -10 -10 0 -28
-11 -40 -23 -13 -13 -23 -17 -26 -10 -2 6 -11 8 -19 5 -12 -5 -15 -2 -10 10 4
11 2 14 -8 11 -8 -3 -14 -9 -13 -12 2 -18 -4 -22 -20 -13 -12 6 -23 6 -33 0
-11 -8 -10 -9 6 -7 11 2 19 -2 18 -8 -1 -6 9 -10 22 -8 14 1 25 -2 25 -7 0 -5
-17 -9 -38 -9 -21 0 -42 -3 -46 -7 -10 -11 -37 -12 -30 -2 8 13 -10 11 -24 -3
-8 -8 -15 -8 -27 2 -15 12 -20 4 -16 -22 0 -5 -5 -8 -13 -8 -9 0 -12 7 -9 20
4 15 0 20 -13 21 -17 0 -17 2 4 16 12 8 22 22 22 30 0 13 2 13 17 2 13 -11 13
-8 -2 13 -18 25 -25 27 -80 25 -55 -2 -60 -4 -59 -24 0 -12 -4 -19 -9 -16 -5
3 -22 -10 -38 -28 -16 -19 -29 -30 -29 -26 0 4 -10 -1 -21 -12 -20 -19 -36
-20 -198 -20 -97 0 -185 -3 -196 -7 -17 -7 -18 -6 -7 8 10 13 8 15 -15 15 -50
0 -103 7 -95 13 26 23 256 79 269 66 4 -3 -1 -6 -10 -6 -9 0 -17 -4 -17 -8 0
-4 14 -8 30 -7 17 0 30 4 30 8 0 5 5 5 10 2 17 -10 50 5 51 23 0 12 3 11 9 -5
11 -28 24 -30 17 -3 -5 20 2 23 93 34 55 7 460 -4 510 -13z m-273 -14 c0 -8
-6 -14 -14 -14 -9 0 -10 4 -2 14 6 7 12 13 14 13 1 0 2 -6 2 -13z m270 -62 c0
-8 -4 -12 -9 -9 -5 3 -6 10 -3 15 9 13 12 11 12 -6z m-3073 -89 c0 -40 -3 -65
-9 -63 -12 4 -19 81 -10 115 10 39 17 18 19 -52z m3119 57 c-7 -2 -19 -2 -25
0 -7 3 -2 5 12 5 14 0 19 -2 13 -5z m-989 -14 c36 0 38 -1 18 -10 -13 -5 -28
-7 -33 -3 -5 3 -9 0 -9 -6 0 -6 -12 -5 -34 4 -19 8 -36 12 -39 10 -9 -9 -47
-13 -47 -4 0 12 38 19 74 14 16 -2 47 -4 70 -5z m1784 -65 c56 -15 102 -31
102 -35 0 -4 -9 -5 -20 -2 -14 4 -20 0 -20 -11 0 -9 -4 -16 -9 -16 -6 0 -8 9
-6 19 4 22 -15 33 -36 20 -8 -5 -23 -8 -34 -8 l-20 0 20 8 c19 8 19 8 -3 15
-17 6 -27 3 -38 -11 -13 -16 -13 -16 -8 0 5 13 2 16 -11 11 -9 -4 -26 -7 -38
-8 -12 -1 -21 -6 -20 -11 1 -6 -9 -10 -21 -10 -21 0 -22 3 -13 32 10 32 28 44
57 38 8 -2 61 -16 118 -31z m362 -4 c-47 -4 -79 -2 -87 4 -9 8 13 10 75 6 l87
-4 -75 -6z m-1793 -116 c-3 -3 -12 -4 -19 -1 -8 3 -5 6 6 6 11 1 17 -2 13 -5z
m114 -32 c-7 -2 -18 1 -23 6 -8 8 -4 9 13 5 13 -4 18 -8 10 -11z m89 -1 c0 -6
-5 -13 -12 -17 -7 -5 -8 -3 -3 6 6 10 2 11 -19 6 -18 -4 -25 -3 -21 4 8 13 55
13 55 1z m-87 -55 c256 -77 468 -199 1467 -845 292 -188 352 -227 980 -636
201 -131 514 -334 697 -452 182 -118 354 -234 380 -257 99 -89 133 -209 85
-303 -29 -56 -112 -128 -228 -197 -117 -70 -670 -390 -1049 -608 -233 -134
-589 -341 -1335 -777 -286 -168 -569 -317 -662 -350 -197 -69 -368 -77 -560
-27 -286 73 -577 294 -779 588 -77 112 -216 397 -268 550 -188 551 -230 1234
-116 1922 78 473 259 895 485 1130 136 142 270 222 452 271 83 22 108 25 228
21 110 -2 151 -8 223 -30z"/>
<path d="M6738 15053 c6 -2 18 -2 25 0 6 3 1 5 -13 5 -14 0 -19 -2 -12 -5z"/>
<path d="M8388 14823 c7 -3 16 -2 19 1 4 3 -2 6 -13 5 -11 0 -14 -3 -6 -6z"/>
<path d="M7168 14793 c6 -2 18 -2 25 0 6 3 1 5 -13 5 -14 0 -19 -2 -12 -5z"/>
<path d="M8405 14640 c4 -6 11 -8 16 -5 14 9 11 15 -7 15 -8 0 -12 -5 -9 -10z"/>
<path d="M6390 14442 c0 -4 9 -13 20 -20 19 -12 20 -11 8 8 -13 20 -28 27 -28
12z"/>
<path d="M9034 14358 c-7 -12 48 -10 66 2 11 8 5 10 -23 8 -21 -1 -41 -6 -43
-10z"/>
<path d="M6220 14231 c0 -5 7 -11 15 -15 8 -3 15 -1 15 3 0 5 -7 11 -15 15 -8
3 -15 1 -15 -3z"/>
<path d="M6078 14193 c7 -3 16 -2 19 1 4 3 -2 6 -13 5 -11 0 -14 -3 -6 -6z"/>
<path d="M9690 14062 c0 -10 21 -32 32 -32 16 0 8 19 -12 30 -11 6 -20 7 -20
2z"/>
<path d="M9346 13854 c-8 -21 -8 -24 3 -24 12 0 22 28 12 35 -5 3 -12 -2 -15
-11z"/>
<path d="M8193 13366 l-28 -24 -3 -1954 c-1 -1381 1 -1961 9 -1979 11 -28 46
-49 81 -49 21 0 436 213 718 368 100 55 152 89 167 111 l22 32 -6 1472 c-6
1607 -2 1514 -62 1556 -14 10 -177 104 -361 209 -184 105 -371 211 -415 236
-44 25 -83 46 -87 46 -4 0 -20 -11 -35 -24z"/>
<path d="M12077 15064 c-4 -4 -7 -27 -7 -51 l0 -43 -320 0 -320 0 0 -345 0
-345 -90 0 -89 0 -3 118 -3 117 -78 3 c-50 2 -84 -1 -93 -9 -10 -8 -14 -39
-14 -120 l0 -109 -90 0 -90 0 0 128 0 127 25 1 c55 4 54 1 52 166 l-2 153
-163 3 -162 2 2 -162 3 -163 33 -3 32 -3 0 -125 0 -124 -349 0 c-210 0 -352
-4 -356 -9 -7 -12 23 -34 335 -251 384 -268 1324 -934 2269 -1609 362 -259
498 -366 621 -490 143 -145 204 -237 257 -391 89 -260 60 -527 -84 -785 -66
-120 -126 -197 -226 -292 -125 -118 -215 -182 -1222 -862 -236 -160 -659 -446
-940 -635 -280 -190 -622 -420 -759 -512 -180 -120 -245 -169 -235 -175 8 -5
170 -9 362 -9 l347 0 0 -133 0 -132 -40 -1 c-23 -1 -43 -3 -45 -5 -3 -4 -8
-274 -6 -317 1 -10 39 -12 174 -10 l172 3 -3 113 -3 112 230 0 231 0 0 -159
c0 -97 4 -161 10 -163 5 -1 209 -1 452 2 l443 5 3 342 2 343 368 2 367 3 3
358 2 357 225 0 225 0 0 -55 0 -55 190 0 190 0 -2 183 -3 182 -47 3 -48 3 0
220 0 219 353 0 c261 0 356 3 365 12 9 9 12 103 12 360 l0 348 85 0 85 0 0
-35 0 -36 153 3 152 3 0 150 0 150 -42 3 -43 3 0 64 0 65 333 2 332 3 3 424
c1 304 -1 428 -9 437 -9 11 -74 14 -335 14 l-324 0 0 64 0 65 38 3 37 3 3 158
3 157 -156 0 -155 0 0 -35 0 -35 -80 0 -80 0 0 240 0 240 45 0 45 0 -2 178 -3
177 -177 3 -178 2 0 -50 0 -50 -230 0 -230 0 0 295 0 296 -92 -3 -93 -3 -3
-127 -3 -128 -169 0 -170 0 0 -165 0 -165 -100 0 -100 0 0 280 0 280 68 0 c67
0 68 0 67 -27 l0 -28 148 -3 148 -3 -3 148 -3 148 -27 3 c-22 3 -28 9 -28 27
0 20 6 24 38 27 l37 3 3 151 c2 120 0 154 -12 163 -9 8 -60 11 -162 9 l-149
-3 0 -160 0 -160 33 -3 c26 -3 32 -7 32 -28 0 -17 -6 -24 -19 -24 -22 0 -45
-25 -36 -40 4 -6 -18 -10 -64 -10 l-71 0 0 49 c0 47 2 50 28 53 l27 3 3 142
c3 169 19 155 -168 151 l-125 -3 0 -145 0 -145 28 -3 c25 -3 27 -6 27 -53 l0
-49 -90 0 -89 0 -3 128 -3 127 -85 0 -85 0 -3 -127 -3 -128 -99 0 -100 0 0
590 0 590 40 0 40 0 -2 183 -3 182 -166 3 c-91 1 -168 -1 -172 -4z m303 -184
l0 -140 -40 0 -40 0 0 -334 0 -334 -37 9 c-30 7 -40 5 -50 -7 -10 -13 -12 -9
-15 27 l-3 44 -98 2 c-116 2 -127 5 -120 32 3 12 1 21 -6 21 -6 0 -11 -5 -11
-11 0 -8 -4 -8 -14 0 -16 14 -56 -1 -56 -21 0 -7 4 -7 14 1 10 9 16 8 26 -4
11 -13 6 -15 -34 -16 -25 -1 -50 -3 -56 -4 -5 -1 -68 -3 -140 -4 l-130 -1 -1
-192 c-1 -106 -4 -182 -6 -168 -2 14 -12 31 -21 39 -14 12 -15 13 -1 8 14 -4
15 5 12 71 -4 99 -6 116 -17 123 -4 4 -3 17 4 29 10 19 10 22 -2 18 -10 -4
-15 2 -16 21 -3 55 -10 76 -22 73 -11 -3 -11 0 0 12 15 19 24 21 14 4 -4 -7
-3 -8 4 -4 9 5 9 13 1 28 -6 11 -14 17 -18 12 -3 -5 -22 -11 -41 -12 -19 -2
-38 -9 -42 -15 -6 -9 -8 -9 -8 -1 0 9 -37 12 -68 5 -1 -1 2 -9 7 -19 8 -14 5
-18 -10 -19 -12 -1 -24 7 -30 20 l-10 22 5 -22 c4 -20 -1 -22 -48 -25 l-51 -3
-5 -50 c-5 -40 -7 -44 -10 -21 -3 16 -12 31 -20 33 -9 2 -10 1 -2 -3 18 -9 14
-24 -7 -24 -27 0 -39 -19 -44 -70 -2 -26 -4 -7 -5 43 l-2 87 -135 0 -135 0 -1
-107 c-1 -60 -5 -119 -9 -133 -4 -14 -8 -20 -9 -14 -1 7 -8 14 -16 18 -13 5
-14 2 -4 -15 12 -24 9 -29 -18 -32 -11 0 -20 -8 -19 -17 1 -11 -8 -15 -33 -14
-32 0 -91 31 -91 47 0 4 -5 7 -11 7 -15 0 -129 79 -129 90 0 6 9 1 21 -11 11
-11 24 -18 27 -14 11 11 -41 45 -54 34 -7 -6 -16 -3 -25 8 -9 11 -10 14 -1 9
6 -4 12 -3 12 3 0 5 -5 13 -10 16 -6 4 -8 15 -5 26 3 10 7 28 10 38 4 14 0 21
-15 26 -11 3 -20 11 -20 16 0 9 125 -74 248 -163 l52 -39 0 109 0 109 -155 7
c-85 4 -159 4 -165 1 -10 -6 -13 3 -13 37 0 10 -5 14 -14 11 -12 -5 -12 -7 -1
-14 10 -7 8 -9 -6 -9 -20 0 -20 0 0 -15 10 -8 15 -15 10 -15 -21 0 -45 32 -36
49 7 14 4 17 -20 16 -18 0 -26 -4 -23 -13 4 -9 9 -10 19 -1 17 14 19 -2 3 -18
-8 -8 -20 -8 -35 -3 -26 10 -37 1 -23 -20 18 -30 8 -32 -15 -5 -23 27 -26 53
-5 40 5 -4 9 -1 9 4 0 11 -6 12 -60 15 -20 1 -29 -3 -25 -11 2 -7 -14 0 -37
15 l-42 27 317 3 317 2 0 170 0 170 -35 0 -35 0 0 120 0 120 120 0 120 0 0
-120 0 -120 -35 0 -35 0 0 -170 0 -170 135 0 135 0 0 120 0 120 51 0 51 0 -4
-117 -3 -118 133 -3 132 -3 0 346 0 345 320 0 320 0 0 45 0 45 135 0 135 0 0
-140z m-2158 -704 c7 4 8 2 4 -5 -9 -13 -26 -5 -25 12 0 9 2 8 6 -1 2 -6 10
-9 15 -6z m99 -33 c13 -16 12 -17 -3 -4 -17 13 -22 21 -14 21 2 0 10 -8 17
-17z m1169 -278 c6 3 7 -1 4 -9 -3 -9 -2 -16 4 -16 6 0 8 -8 5 -18 -7 -29 -34
-23 -28 5 3 21 2 23 -11 13 -10 -9 -14 -9 -14 -1 0 6 -10 11 -23 11 -13 0 -27
4 -33 9 -5 5 -22 11 -39 14 -16 2 3 5 43 6 l72 1 2 133 2 132 3 -143 c2 -88 7
-141 13 -137z m-790 190 c0 -25 -3 -45 -6 -45 -6 0 -97 63 -118 82 -6 4 20 8
57 8 l67 0 0 -45z m360 -126 c0 -133 -3 -169 -12 -163 -7 4 -48 32 -90 61
l-78 54 0 110 0 109 90 0 90 0 0 -171z m370 86 l0 -85 -90 0 -90 0 0 85 0 85
90 0 90 0 0 -85z m720 -35 l0 -120 -172 -2 -173 -3 -3 -167 -2 -168 -95 0 -95
0 0 290 0 290 270 0 270 0 0 -120z m1329 -107 c-2 -24 -2 -25 -6 -5 -7 37 -50
27 -44 -10 0 -5 -6 -8 -14 -8 -8 0 -14 5 -12 12 1 6 -9 17 -23 25 -23 12 -20
13 38 13 61 0 62 0 61 -27z m-531 -10 c-50 -3 -58 -7 -58 -24 0 -15 5 -18 24
-15 18 3 23 1 20 -9 -3 -7 0 -16 6 -20 8 -5 5 -13 -9 -26 -21 -20 -36 -25 -26
-10 3 5 1 12 -4 16 -6 3 -9 -2 -7 -12 2 -10 0 -27 -5 -38 -5 -13 -8 10 -8 63
l-1 82 63 -2 62 -2 -57 -3z m-1471 -155 c-2 -18 -4 -6 -4 27 0 33 2 48 4 33 2
-15 2 -42 0 -60z m-49 28 c1 -2 1 -56 0 -121 l-3 -117 -172 122 c-95 66 -173
122 -173 123 0 3 344 -4 348 -7z m1466 -51 c3 -8 1 -15 -4 -15 -6 0 -10 7 -10
15 0 8 2 15 4 15 2 0 6 -7 10 -15z m43 -11 c-3 -3 -12 -4 -19 -1 -8 3 -5 6 6
6 11 1 17 -2 13 -5z m-787 -79 l0 -75 -85 0 -85 0 0 75 0 75 85 0 85 0 0 -75z
m-350 -316 l0 -51 -37 28 c-21 15 -51 38 -66 51 l-29 23 66 0 66 0 0 -51z
m350 -124 c0 -96 -2 -175 -5 -175 -3 0 -38 24 -79 54 l-73 55 -7 62 c-3 34 -6
88 -6 120 l0 59 85 0 85 0 0 -175z m390 40 l0 -135 90 0 90 0 0 135 0 135 90
0 90 0 0 -280 0 -280 -232 0 -231 0 -49 31 -48 31 0 249 0 249 100 0 100 0 0
-135z m1080 -350 l0 -75 -75 0 -75 0 0 59 c0 33 -3 66 -6 75 -5 14 5 16 75 16
l81 0 0 -75z m-720 -330 c0 -41 -2 -75 -5 -75 -5 0 -170 123 -189 141 -6 5 32
9 92 9 l102 0 0 -75z m380 -100 l0 -175 170 0 170 0 0 -105 0 -105 -111 0
-110 0 -78 78 c-43 43 -113 105 -157 138 l-79 60 -3 142 -3 142 101 0 100 0 0
-175z m340 90 l0 -85 -80 0 -80 0 0 85 0 85 80 0 80 0 0 -85z m650 45 l0 -40
40 0 40 0 0 -240 0 -240 -270 0 -270 0 0 105 0 105 140 0 140 0 0 90 0 90
-140 0 -140 0 0 85 0 85 230 0 230 0 0 -40z m-650 -772 l-1 -73 -34 65 c-19
36 -34 68 -35 73 0 4 16 7 35 7 l35 0 0 -72z m730 -33 l0 -105 -185 0 -185 0
0 -170 0 -170 -85 0 -85 0 0 275 0 275 270 0 270 0 0 -105z m352 73 c2 -25 8
-34 25 -36 22 -3 23 -7 25 -160 l3 -157 128 -3 127 -3 0 -79 0 -80 -235 0
-235 0 0 275 0 275 79 0 80 0 3 -32z m-352 -438 l0 -80 -100 0 -100 0 0 80 0
80 100 0 100 0 0 -80z m1070 0 l0 -80 -120 0 -120 0 0 80 0 80 120 0 120 0 0
-80z m-1440 -340 l0 -80 -30 0 -31 0 3 -107 c3 -103 4 -108 26 -111 21 -3 22
-8 22 -83 l0 -79 -80 0 -80 0 0 270 0 270 85 0 85 0 0 -80z m375 -190 l0 -270
-102 0 -103 0 0 80 c0 70 2 80 18 80 34 0 42 21 42 116 0 96 -6 112 -42 106
-16 -3 -18 6 -18 77 l0 81 103 0 102 0 0 -270z m655 190 l0 -79 -127 -3 -128
-3 -3 -157 c-2 -150 -4 -158 -22 -158 -16 0 -20 -7 -20 -30 l0 -30 -85 0 -85
0 0 270 0 270 235 0 235 0 0 -80z m410 0 l0 -80 -120 0 -120 0 0 80 0 80 120
0 120 0 0 -80z m-1796 -377 l6 -83 -56 0 -56 0 22 33 c11 17 33 55 47 84 15
29 28 51 29 50 1 -1 4 -39 8 -84z m6 -353 l0 -90 -190 0 -190 0 0 -180 0 -180
-85 0 -85 0 0 133 0 132 68 52 c37 28 105 90 152 137 l85 86 122 0 123 0 0
-90z m342 0 l3 -90 -82 0 -83 0 0 90 0 90 79 0 80 0 3 -90z m378 -180 l0 -270
-270 0 -270 0 0 90 0 90 170 0 170 0 0 180 0 180 100 0 100 0 0 -270z m-720
-180 l0 -90 -100 0 -100 0 0 90 0 90 100 0 100 0 0 -90z m-730 -15 l0 -75
-106 0 -107 0 104 74 c57 41 105 74 107 75 1 1 2 -33 2 -74z m0 -335 l0 -80
-135 0 -135 0 0 -90 0 -90 135 0 135 0 0 -90 0 -90 -280 0 -280 0 0 234 0 233
38 26 37 26 243 0 242 1 0 -80z m350 0 l0 -80 -85 0 -85 0 0 80 0 80 85 0 85
0 0 -80z m380 -140 l0 -220 -50 0 -50 0 0 -40 0 -40 -225 0 -225 0 0 90 0 90
175 0 175 0 0 170 0 170 100 0 100 0 0 -220z m-1480 -130 l0 -170 -247 0 -247
0 150 103 c82 57 192 133 244 169 52 37 96 67 98 67 1 1 2 -75 2 -169z m-720
-440 l0 -109 -127 -3 -128 -3 -3 -73 c-2 -44 2 -79 8 -87 9 -10 41 -13 131
-12 l119 2 0 -82 0 -83 -260 0 -260 0 0 108 0 108 258 171 c141 94 258 172
260 172 1 1 2 -48 2 -109z m720 -180 l0 -270 -270 0 -270 0 0 270 0 270 270 0
270 0 0 -270z m750 0 l0 -270 -100 0 -100 0 0 150 0 150 -100 0 -100 0 0 -150
0 -150 -80 0 -80 0 0 270 0 270 280 0 280 0 0 -270z m-2180 -230 l0 -40 -62 0
c-34 0 -58 3 -55 6 13 13 102 73 110 73 4 1 7 -17 7 -39z m710 -315 l0 -95
-265 0 -265 0 0 95 0 95 265 0 265 0 0 -95z m720 -165 l0 -260 -110 0 -110 0
0 165 0 165 -160 0 -160 0 0 95 0 95 270 0 270 0 0 -260z m-400 -185 l0 -75
-70 0 -70 0 0 75 0 75 70 0 70 0 0 -75z"/>
<path d="M11570 14610 c0 -172 -3 -230 -12 -230 -9 0 -9 -3 0 -12 7 -7 12 -38
12 -70 l0 -58 315 0 315 0 0 250 0 250 -45 0 -45 0 0 50 0 50 -95 0 -95 0 0
-140 0 -140 -50 0 -50 0 0 140 0 140 -125 0 -125 0 0 -230z m212 43 l3 -138
85 0 85 0 3 138 3 137 54 0 54 0 3 -47 3 -48 38 1 37 1 0 -208 0 -209 -270 0
-270 0 0 255 0 255 85 0 84 0 3 -137z"/>
<path d="M10692 14615 c0 -16 2 -22 5 -12 2 9 2 23 0 30 -3 6 -5 -1 -5 -18z"/>
<path d="M11372 14216 c7 -8 17 -12 22 -9 4 3 2 9 -5 14 -22 13 -31 11 -17 -5z"/>
<path d="M10475 14039 c-11 -16 -1 -19 13 -3 7 8 8 14 3 14 -5 0 -13 -5 -16
-11z"/>
<path d="M14862 6685 c-98 -30 -152 -106 -152 -212 0 -55 -19 -116 -42 -133
-10 -8 -13 -102 -4 -128 9 -28 66 -115 78 -120 4 -2 8 -28 8 -58 0 -31 -4 -53
-9 -50 -19 12 -34 -57 -43 -194 -5 -80 -7 -167 -6 -195 4 -68 1 -288 -6 -410
-11 -212 -10 -236 19 -321 22 -65 67 -118 123 -145 38 -19 63 -23 132 -23 76
1 90 4 127 28 26 17 47 41 56 64 19 49 41 168 34 186 -3 8 -3 17 1 20 3 4 7
26 8 51 1 24 8 53 14 64 6 12 7 21 3 21 -4 0 -1 5 7 10 11 7 11 10 2 10 -7 0
-10 5 -7 10 4 6 45 -30 93 -79 107 -110 105 -108 133 -162 59 -117 138 -172
304 -212 118 -28 282 -45 312 -32 10 5 20 9 23 9 3 1 34 8 70 15 36 7 85 19
110 26 25 8 64 19 87 25 32 8 50 21 74 55 17 24 47 51 65 60 19 9 42 28 51 43
10 15 20 29 24 32 15 12 56 89 69 128 7 23 17 42 22 42 4 0 8 7 8 16 0 26 52
114 67 114 8 0 12 4 9 8 -7 12 10 35 28 38 8 1 14 -3 13 -9 -1 -7 3 -11 10
-10 7 2 -3 -32 -24 -80 -42 -97 -50 -132 -33 -152 9 -10 9 -15 1 -15 -7 0 -11
-21 -11 -56 0 -62 26 -120 70 -161 35 -33 177 -101 225 -108 22 -4 60 -10 85
-14 52 -8 223 -6 325 4 107 10 209 55 280 122 33 30 74 68 90 83 29 27 56 94
61 150 4 45 -9 151 -20 163 -6 7 -11 52 -11 107 -1 76 -5 105 -23 144 -30 66
-65 111 -115 147 -22 16 -34 29 -27 29 17 0 70 50 70 66 0 6 9 23 21 38 15 19
22 45 25 91 3 58 2 65 -20 83 l-24 18 25 64 c31 76 27 85 -48 122 -200 101
-586 97 -766 -8 -104 -60 -175 -167 -195 -290 -6 -38 -17 -78 -24 -89 -8 -11
-14 -27 -14 -37 0 -10 -9 -27 -20 -38 -11 -11 -20 -26 -20 -32 -1 -7 -12 29
-25 79 -31 122 -75 202 -157 288 -110 116 -233 176 -400 195 -114 13 -265 -1
-362 -35 -190 -66 -344 -237 -401 -448 -10 -37 -20 -65 -23 -63 -2 3 -17 -1
-32 -9 -15 -8 -30 -11 -34 -8 -3 4 -6 -1 -6 -11 0 -17 -1 -17 -17 0 -15 14
-18 39 -20 140 -1 80 -8 144 -19 181 -9 31 -17 91 -17 133 0 63 4 83 27 126
28 54 40 131 24 152 -6 6 -7 12 -3 12 4 0 2 7 -5 15 -6 8 -9 19 -5 25 13 21 6
137 -11 178 -42 106 -181 158 -312 117z m1193 -1137 c30 -16 86 -76 118 -126
30 -48 28 -59 -20 -104 -100 -95 -296 -89 -375 12 -28 35 -28 36 8 135 11 32
25 46 72 72 52 30 63 32 117 27 32 -3 68 -10 80 -16z"/>
<path d="M14107 6594 c-4 -4 -7 -63 -7 -131 0 -68 -4 -123 -9 -123 -16 0 -41
-83 -44 -143 -2 -46 -5 -56 -17 -51 -110 42 -356 45 -465 5 -192 -69 -340
-247 -381 -456 -9 -44 -24 -99 -35 -122 -10 -24 -19 -60 -19 -82 0 -26 -5 -41
-16 -45 -23 -9 -27 -8 -21 8 4 10 1 13 -7 10 -9 -3 -13 4 -12 23 2 55 -15 289
-25 353 -6 36 -17 75 -24 87 -10 14 -15 58 -17 130 l-3 108 -189 3 c-130 2
-193 -1 -202 -9 -11 -9 -14 -45 -14 -151 0 -79 -4 -137 -9 -134 -5 3 -12 -1
-15 -10 -4 -10 -2 -13 6 -8 7 5 8 3 2 -7 -14 -23 -19 -76 -29 -334 -4 -88 -11
-168 -17 -178 -15 -29 -106 -67 -161 -67 -87 0 -143 39 -172 119 -17 49 -20
73 -5 51 9 -13 10 -13 11 0 6 100 9 135 18 189 6 35 9 67 6 71 -2 3 -5 34 -6
68 -1 34 -7 62 -12 62 -6 0 -7 3 -4 7 4 3 0 11 -9 17 -12 9 -17 43 -22 161
l-7 150 -189 3 c-145 2 -191 -1 -198 -10 -4 -7 -8 -59 -8 -114 0 -80 -3 -103
-14 -107 -29 -11 -39 -85 -31 -227 4 -74 7 -139 7 -145 0 -5 -1 -77 -2 -160
-1 -86 5 -201 14 -269 9 -65 13 -123 10 -127 -3 -5 0 -18 6 -29 7 -13 7 -20 0
-20 -11 0 11 -24 55 -58 17 -13 65 -56 107 -95 138 -126 270 -156 528 -118
108 16 212 19 285 9 69 -10 202 20 248 55 40 31 50 64 68 227 11 108 39 227
46 200 3 -8 7 -22 9 -30 3 -8 5 -17 6 -20 0 -6 39 -63 48 -70 3 -3 28 -34 55
-70 27 -36 72 -88 100 -115 27 -28 58 -63 68 -78 10 -15 39 -38 65 -50 26 -12
49 -25 52 -28 27 -32 292 -42 500 -19 61 7 112 8 142 2 42 -8 213 -9 262 -2
11 2 36 20 57 41 31 31 40 50 53 111 19 83 18 70 17 398 0 329 -2 439 -7 610
-4 100 -1 167 8 216 8 40 11 82 7 98 -5 16 -11 56 -14 90 -8 79 -9 80 -19 87
-4 4 -11 60 -15 125 l-6 119 -191 3 c-104 1 -193 -1 -197 -4z m-181 -1049 c42
-17 77 -67 100 -139 l18 -59 -41 -37 c-99 -87 -258 -80 -343 16 l-30 35 19 37
c10 20 24 54 30 74 16 48 52 73 121 86 57 10 74 8 126 -13z m-806 -124 c0 -6
-4 -12 -8 -15 -5 -3 -9 1 -9 9 0 8 4 15 9 15 4 0 8 -4 8 -9z"/>
<path d="M10035 6528 c-185 -13 -324 -65 -431 -161 -99 -90 -141 -188 -145
-337 -1 -49 -7 -78 -15 -85 -10 -7 -14 -36 -15 -90 -3 -199 46 -305 185 -400
20 -14 52 -36 71 -49 19 -13 56 -27 82 -31 26 -4 64 -14 83 -22 19 -8 49 -17
65 -20 17 -3 46 -12 65 -21 19 -8 37 -16 40 -17 3 0 23 -10 45 -22 55 -29 29
-38 -74 -24 -106 14 -185 41 -308 106 -57 30 -109 52 -117 49 -8 -3 -42 -68
-76 -145 l-63 -140 21 -29 c19 -25 21 -35 12 -79 -12 -66 -4 -105 34 -161 17
-25 36 -54 42 -65 6 -11 15 -19 20 -18 5 1 16 -4 24 -11 30 -25 148 -53 360
-86 30 -5 96 -7 145 -4 50 3 99 5 110 5 44 -2 248 53 278 75 18 13 46 33 62
44 96 63 132 96 140 127 3 16 17 45 31 65 13 21 24 42 24 48 0 5 4 10 8 10 5
0 18 19 28 42 19 43 21 47 23 72 0 8 10 18 21 21 11 4 18 11 15 16 -4 5 -1 9
4 9 6 0 11 -5 11 -11 0 -5 4 -8 9 -5 7 5 16 -14 26 -54 0 -3 6 -15 13 -27 7
-12 23 -68 37 -124 13 -56 31 -111 39 -123 22 -33 85 -96 96 -96 5 0 38 -13
72 -28 74 -34 117 -44 240 -56 30 -2 148 14 193 27 24 7 75 38 75 46 0 5 11
19 23 32 25 26 74 126 71 147 -1 6 -2 16 -3 21 -1 9 -39 24 -54 22 -4 -1 -1 9
8 22 14 22 12 31 -35 148 -28 68 -58 129 -66 136 -12 9 -25 7 -57 -8 -23 -10
-62 -19 -87 -19 -46 0 -80 13 -67 26 4 4 2 12 -3 19 -13 16 -15 60 -6 129 8
51 15 65 55 106 31 32 60 52 88 59 30 8 52 24 81 59 69 82 76 117 46 208 -9
27 -22 103 -28 169 l-11 120 -132 3 -133 3 -1 27 c-1 15 -4 79 -8 142 l-6 115
-191 3 -192 2 -6 -22 c-3 -13 -6 -78 -6 -145 l0 -122 -92 -3 -93 -3 -6 -90
c-3 -49 -6 -79 -8 -65 -3 24 -3 24 -12 -5 -6 -16 -11 -37 -13 -45 -2 -8 -13
-16 -25 -16 -17 -1 -20 3 -16 15 32 77 31 205 -2 270 l-22 43 20 50 c28 71 25
82 -26 113 -148 86 -371 129 -590 113z m233 -602 c17 -9 32 -14 32 -11 0 3 23
-7 50 -21 55 -28 128 -34 165 -13 13 8 102 5 111 -4 13 -13 24 -7 24 12 0 11
6 18 15 17 19 -3 32 -16 16 -16 -7 0 -10 -4 -6 -9 3 -5 7 -31 10 -58 13 -128
14 -131 83 -220 46 -61 66 -97 67 -118 1 -17 4 -36 7 -41 3 -5 1 -23 -3 -40
-7 -25 -14 -31 -34 -31 -13 0 -22 3 -19 8 3 5 -2 9 -10 9 -9 0 -16 5 -16 11 0
5 -4 8 -9 5 -9 -6 -13 6 -26 89 -12 70 -61 160 -117 210 -80 71 -191 119 -395
170 -98 25 -180 45 -183 46 -3 0 9 7 25 14 41 19 170 13 213 -9z m559 -572
c-3 -3 -12 -4 -19 -1 -8 3 -5 6 6 6 11 1 17 -2 13 -5z"/>
<path d="M3733 6515 c-346 -63 -599 -313 -658 -650 -8 -48 -15 -105 -15 -127
0 -22 -4 -37 -9 -34 -16 11 -32 -90 -34 -215 -2 -118 -1 -127 26 -176 15 -29
27 -60 27 -70 0 -10 11 -36 25 -58 13 -22 25 -45 25 -52 1 -38 47 -130 84
-167 22 -23 52 -57 66 -74 15 -20 48 -42 85 -56 33 -14 64 -31 70 -39 28 -37
144 -91 246 -113 50 -11 114 -13 260 -9 231 5 269 10 317 37 20 11 45 22 56
24 12 2 22 8 24 14 2 5 9 10 16 10 7 0 23 12 37 26 25 27 73 56 99 60 36 7 64
33 91 86 16 32 40 65 54 74 24 16 75 93 75 113 0 13 51 94 63 99 4 2 7 9 7 16
0 7 9 21 20 31 11 10 20 26 20 37 0 10 5 18 11 18 5 0 9 -8 7 -17 -1 -10 2
-25 7 -33 11 -17 28 -107 39 -210 8 -70 20 -222 19 -247 -1 -13 3 -23 8 -23 5
0 9 -6 9 -12 0 -15 92 -66 130 -74 57 -10 128 -5 180 15 52 20 131 74 128 89
-1 4 4 19 10 34 7 18 11 106 10 255 -2 299 11 345 118 414 47 31 103 41 144
26 47 -18 59 -62 64 -232 3 -82 9 -170 15 -195 6 -25 10 -97 9 -160 0 -63 1
-122 3 -130 8 -27 33 -54 78 -85 43 -29 48 -30 147 -28 91 1 110 5 160 30 45
22 59 35 66 58 8 32 14 150 24 548 5 187 10 251 20 261 7 8 12 15 11 18 -1 2
8 -7 20 -21 12 -14 20 -28 17 -33 -3 -4 2 -8 10 -8 9 0 16 -7 16 -15 0 -8 5
-15 10 -15 6 0 24 -21 40 -47 35 -56 60 -91 77 -109 12 -12 73 -215 73 -245 0
-19 50 -122 64 -131 6 -4 7 -8 2 -8 -5 0 -2 -8 6 -17 20 -24 58 -105 58 -125
0 -16 -28 -28 -66 -28 -12 0 -54 16 -92 36 -39 20 -77 34 -85 31 -8 -3 -45
-67 -82 -141 -65 -132 -67 -137 -51 -161 9 -14 20 -25 25 -25 5 0 -1 -30 -14
-66 l-23 -66 41 -60 c23 -33 52 -67 65 -76 35 -23 208 -61 278 -62 54 0 91 7
144 28 8 3 17 6 20 7 54 14 324 275 336 325 0 3 3 12 6 20 14 40 48 156 48
164 0 6 11 21 24 35 16 17 41 78 72 171 53 165 74 210 107 237 24 18 59 116
92 252 8 34 23 75 33 90 10 14 24 39 32 54 25 51 72 64 151 43 25 -7 59 -59
59 -90 0 -7 22 -45 50 -85 l50 -72 -157 -212 c-170 -229 -182 -254 -126 -272
28 -9 30 -12 18 -28 -17 -23 -12 -94 8 -134 25 -47 111 -74 225 -69 60 2 86
10 151 41 55 27 84 48 97 69 22 39 31 48 70 70 49 29 96 15 156 -45 28 -28 52
-48 55 -45 3 3 20 -10 38 -28 48 -49 112 -67 227 -63 80 3 100 7 129 27 38 26
73 60 63 60 -3 0 -2 6 3 13 14 17 8 108 -8 118 -8 5 -1 9 21 11 53 5 60 29 23
80 -18 24 -95 130 -173 237 l-140 193 26 31 c14 16 36 51 49 77 14 27 53 78
89 114 53 55 68 78 87 134 12 37 25 71 29 75 4 5 2 21 -6 35 -8 15 -14 32 -14
38 0 6 -9 23 -21 38 l-20 26 52 74 c28 41 48 79 45 85 -5 7 -74 11 -211 11
l-204 0 -112 -147 c-61 -82 -114 -151 -118 -155 -4 -4 -54 62 -111 147 l-105
155 -376 0 -377 0 -134 -337 c-111 -277 -138 -337 -153 -335 -10 2 -14 -1 -10
-7 3 -7 0 -8 -9 -5 -8 3 -17 11 -19 17 -103 255 -204 502 -234 572 l-39 90
-202 3 c-234 3 -221 11 -177 -110 18 -50 22 -74 15 -87 -14 -27 -31 -110 -32
-154 0 -23 -6 -41 -14 -44 -8 -3 -11 -10 -7 -16 4 -6 1 -7 -6 -3 -7 5 -10 14
-7 22 3 8 0 11 -10 7 -7 -3 -14 -10 -15 -17 0 -6 -7 14 -15 44 -36 138 -126
262 -231 317 -85 45 -150 56 -294 51 -133 -6 -209 -25 -281 -73 -21 -14 -40
-25 -42 -25 -3 0 -6 19 -8 43 l-3 42 -180 3 c-160 2 -181 1 -192 -15 -8 -11
-13 -52 -13 -115 0 -54 -4 -98 -8 -98 -13 0 -32 -47 -32 -77 0 -31 -40 -153
-50 -153 -4 0 -15 17 -26 38 -10 20 -24 44 -30 52 -6 8 -16 46 -23 85 -36 202
-166 398 -340 510 -95 61 -166 89 -289 115 -115 23 -267 25 -379 5z m252 -626
c4 -5 13 -9 22 -9 9 0 53 -18 99 -40 58 -28 88 -48 97 -67 16 -30 55 -216 59
-273 5 -96 -154 -215 -313 -235 -113 -14 -249 34 -332 117 -56 56 -90 123 -76
149 5 10 9 31 9 48 0 33 19 81 32 81 4 0 7 3 6 8 -1 4 3 18 9 32 6 14 18 43
27 65 13 30 30 48 68 70 28 17 62 37 75 45 29 17 209 25 218 9z"/>
<path d="M16749 5262 c11 -8 11 -10 0 -15 -10 -4 -8 -6 4 -6 21 -1 18 21 -4
27 -12 3 -12 2 0 -6z"/>
</g>
</svg>
