<?xml version="1.0" standalone="no"?>
<!DOCTYPE svg PUBLIC "-//W3C//DTD SVG 20010904//EN"
 "http://www.w3.org/TR/2001/REC-SVG-20010904/DTD/svg10.dtd">
<svg version="1.0" xmlns="http://www.w3.org/2000/svg"
 width="2048.000000pt" height="2048.000000pt" viewBox="0 0 2048.000000 2048.000000"
 preserveAspectRatio="xMidYMid meet">
<metadata>
Created by potrace 1.16, written by Peter Selinger 2001-2019
</metadata>
<g transform="translate(0.000000,2048.000000) scale(0.100000,-0.100000)"
fill="#000000" stroke="none">
<path d="M7068 15200 c-261 -28 -551 -123 -768 -253 -361 -216 -646 -565 -835
-1023 -44 -107 -67 -139 -92 -130 -18 7 -16 -20 3 -49 9 -13 13 -28 10 -33 -3
-5 -25 -89 -49 -188 -74 -296 -124 -607 -147 -904 -6 -80 -16 -158 -22 -175
-5 -16 -9 -37 -8 -45 3 -27 1 -121 -10 -345 -36 -778 22 -1659 144 -2165 152
-634 371 -1049 747 -1416 132 -128 193 -179 304 -256 370 -255 808 -418 1230
-459 239 -23 519 -9 742 37 94 19 333 92 440 135 134 52 353 162 549 274 311
178 554 334 1439 920 264 175 566 374 670 443 1117 737 1556 1035 1635 1108
192 181 273 377 249 600 -11 102 -22 141 -70 240 -73 149 -178 253 -453 448
-297 211 -808 572 -1061 749 -148 104 -353 249 -455 322 -224 159 -670 476
-844 600 -70 50 -196 139 -279 198 -132 94 -275 194 -462 326 -308 216 -839
543 -1055 651 -422 210 -765 330 -1070 374 -135 20 -370 27 -482 16z m713
-465 c55 -8 144 -25 197 -36 122 -26 447 -133 572 -189 112 -49 349 -167 368
-182 7 -6 34 -21 60 -33 124 -58 477 -277 493 -306 12 -24 -24 -64 -49 -54 -9
4 -103 29 -208 56 -212 55 -414 91 -607 109 -164 16 -498 8 -627 -15 -225 -40
-466 -130 -636 -237 -105 -65 -253 -194 -335 -291 -84 -99 -197 -272 -259
-394 -46 -93 -58 -108 -82 -104 -7 1 -9 -12 -9 -64 0 -16 -20 -91 -44 -165
-24 -74 -55 -174 -69 -222 -14 -49 -28 -94 -33 -100 -4 -7 -8 -26 -9 -43 -1
-16 -11 -83 -23 -149 -105 -593 -87 -1263 49 -1801 195 -770 605 -1322 1195
-1610 313 -153 606 -216 1005 -216 264 0 496 25 725 80 66 16 128 32 137 35
26 11 61 -29 48 -54 -23 -43 -490 -298 -722 -395 -184 -76 -420 -147 -597
-177 -166 -29 -485 -31 -631 -4 -358 66 -688 206 -963 409 -161 119 -363 335
-488 522 -82 121 -244 455 -313 643 -56 152 -102 322 -136 502 -10 52 -27 140
-39 195 -28 140 -58 357 -70 510 -15 184 -32 621 -27 680 3 28 6 120 7 205 6
470 81 1006 200 1438 62 224 233 629 283 671 9 8 16 20 16 28 0 8 13 27 28 42
15 16 26 33 25 38 -6 18 102 150 221 269 217 216 429 333 714 394 195 42 419
47 633 15z m298 -1065 c35 -6 105 -24 155 -40 106 -34 388 -171 422 -205 12
-12 25 -21 28 -18 6 7 222 -122 401 -239 72 -47 204 -132 295 -190 209 -133
687 -442 763 -493 33 -22 60 -48 63 -61 5 -19 10 -22 23 -14 14 7 76 -30 287
-166 655 -426 667 -435 648 -466 -5 -8 -2 -9 12 -3 10 4 26 8 34 8 25 1 469
-293 520 -344 62 -62 90 -121 90 -189 0 -103 -56 -173 -214 -271 -74 -45 -81
-48 -102 -34 -20 13 -21 12 -17 -3 9 -35 51 -9 -967 -595 -261 -150 -574 -332
-1150 -668 -425 -249 -693 -396 -798 -439 -158 -64 -324 -90 -465 -71 -272 36
-488 151 -717 380 -151 152 -247 290 -349 501 -137 287 -224 594 -266 935 -74
607 -9 1310 165 1785 65 176 134 317 159 325 16 5 20 12 15 27 -8 26 81 161
167 252 213 228 518 341 798 296z"/>
<path d="M8199 13377 c-9 -7 -21 -22 -27 -34 -9 -16 -12 -510 -12 -1978 l0
-1956 26 -26 c42 -42 81 -30 329 99 431 225 580 309 613 343 l32 35 0 1457 c0
993 -3 1470 -11 1496 -5 21 -22 51 -37 67 -15 16 -155 102 -312 191 -157 88
-346 196 -421 240 -75 43 -142 79 -150 79 -8 0 -21 -6 -30 -13z"/>
<path d="M12060 15030 c-6 -22 -20 -45 -31 -51 -13 -6 -85 -10 -192 -9 -95 1
-225 1 -289 1 l-118 -1 0 -315 0 -316 -25 -24 c-18 -19 -35 -25 -68 -25 -72 0
-81 13 -87 127 l-5 98 -90 0 -90 0 -5 -98 c-6 -115 -15 -127 -92 -127 -72 0
-88 21 -88 116 0 87 8 108 50 122 l30 11 0 159 c0 137 -2 161 -16 166 -9 3
-80 6 -159 6 -132 0 -145 -2 -155 -19 -11 -21 -14 -278 -4 -305 3 -9 12 -16
20 -16 8 0 22 -8 32 -18 15 -15 18 -33 17 -106 -1 -52 -7 -92 -14 -99 -9 -9
-104 -13 -349 -17 -308 -5 -337 -6 -337 -22 0 -11 104 -90 290 -219 610 -426
2155 -1524 2582 -1836 263 -192 404 -321 493 -454 48 -70 119 -215 125 -256 3
-16 12 -53 21 -83 25 -87 22 -293 -5 -405 -29 -116 -122 -308 -201 -413 -136
-181 -207 -234 -1345 -1001 -236 -160 -686 -464 -1000 -676 -313 -213 -657
-444 -762 -513 -106 -70 -191 -131 -190 -137 2 -6 131 -12 346 -15 403 -6 371
6 371 -132 0 -75 -3 -91 -20 -108 -11 -11 -28 -20 -39 -20 -37 0 -42 -21 -39
-181 l3 -154 178 -3 177 -2 0 95 c0 139 -7 135 223 135 142 0 188 -3 203 -14
17 -13 20 -31 24 -163 l5 -148 444 -3 c349 -2 446 0 453 10 4 7 8 156 8 331 0
304 1 318 20 337 19 19 33 20 364 20 294 0 345 2 356 15 10 12 11 89 8 342 -5
307 -4 327 13 344 17 17 37 19 202 19 209 0 217 -2 226 -71 l6 -44 185 0 185
0 5 140 c3 77 4 161 2 188 -3 45 -5 47 -33 47 -16 0 -38 9 -49 20 -19 19 -20
33 -20 198 0 138 3 183 14 198 14 18 33 19 363 24 l348 5 5 343 c5 325 6 344
24 358 24 17 87 18 107 2 9 -7 23 -25 32 -40 l17 -28 138 0 c94 0 142 4 150
12 8 8 12 57 12 155 l0 143 -27 17 c-54 33 -65 62 -39 99 14 18 32 19 328 24
l313 5 0 435 0 435 -313 5 c-296 5 -314 6 -328 24 -28 40 -12 88 36 104 l30
11 0 154 c0 132 -2 156 -16 161 -9 3 -79 6 -155 6 l-140 0 -11 -30 c-5 -17
-18 -35 -28 -40 -32 -17 -88 -12 -110 10 -19 19 -20 33 -20 220 0 187 1 201
20 220 11 11 31 20 45 20 l25 0 0 180 0 180 -182 -2 -182 -3 -8 -30 c-13 -52
-26 -55 -225 -55 -249 0 -227 -29 -218 295 5 184 4 259 -5 274 -10 20 -18 22
-98 19 l-87 -3 -5 -117 c-3 -77 -9 -122 -18 -130 -10 -10 -54 -13 -165 -13
l-152 0 -5 -148 c-6 -172 -8 -177 -97 -177 -40 0 -58 5 -73 20 -19 19 -20 33
-20 255 0 222 1 236 20 255 28 28 57 25 88 -8 26 -28 31 -29 161 -35 94 -5
138 -4 147 4 18 15 20 256 3 293 -10 20 -9 30 5 51 14 21 16 49 14 178 l-3
152 -157 3 c-156 2 -157 2 -182 -23 -21 -21 -29 -24 -46 -15 -12 6 -73 9 -157
8 l-138 -3 -3 -142 c-3 -140 -2 -142 23 -167 30 -30 31 -40 5 -66 -14 -14 -33
-20 -65 -20 -75 0 -85 18 -85 150 l0 110 -90 0 -90 0 0 -110 c0 -137 -8 -150
-100 -150 -108 0 -100 -46 -100 581 0 333 4 547 10 559 5 10 23 23 40 28 l30
11 0 185 0 186 -175 0 -174 0 -11 -40z m-314 -254 c16 -12 20 -31 24 -138 l5
-123 83 -3 c53 -2 89 1 98 9 10 8 14 39 14 120 0 96 2 111 20 129 28 28 56 12
70 -40 8 -29 16 -40 30 -40 11 0 29 -9 40 -20 18 -18 20 -33 20 -180 0 -217
23 -200 -270 -200 -217 0 -231 1 -250 20 -19 19 -20 33 -20 230 0 197 1 211
20 230 24 24 87 27 116 6z m-706 -696 c18 -18 20 -33 20 -135 0 -102 -2 -117
-20 -135 -20 -20 -22 -20 -51 -3 -17 10 -48 34 -70 54 l-39 36 0 81 c0 103 14
122 90 122 37 0 55 -5 70 -20z m1090 0 c17 -17 20 -33 20 -100 0 -68 -3 -83
-21 -101 -20 -20 -29 -21 -138 -16 -64 2 -133 2 -153 -1 l-38 -5 0 -148 c0
-179 -5 -189 -95 -189 -42 0 -60 5 -75 20 -19 19 -20 33 -20 270 0 237 1 251
20 270 19 19 33 20 250 20 217 0 231 -1 250 -20z m0 -770 c18 -18 20 -33 20
-140 0 -107 -2 -122 -20 -140 -22 -22 -24 -21 -80 19 -57 41 -60 47 -60 148 0
111 13 133 80 133 27 0 47 -7 60 -20z m386 6 c16 -12 20 -31 24 -138 l5 -123
65 -3 c114 -5 110 -10 110 123 0 139 9 155 90 155 37 0 55 -5 70 -20 19 -19
20 -33 20 -255 0 -293 11 -275 -157 -276 -263 -2 -316 1 -350 22 -17 11 -36
33 -42 49 -5 17 -10 121 -11 235 0 192 1 206 20 225 25 25 125 28 156 6z m743
-745 c19 -19 21 -33 21 -176 l0 -155 150 0 c184 0 190 -3 190 -105 0 -88 -17
-105 -102 -105 -100 0 -127 12 -206 92 -39 40 -97 91 -128 113 -98 68 -94 59
-94 195 0 144 5 153 92 158 47 3 61 -1 77 -17z m986 5 c10 -7 19 -24 20 -36 1
-17 10 -26 31 -32 51 -14 54 -25 54 -240 0 -184 -1 -199 -20 -218 -18 -18 -34
-20 -243 -20 -166 0 -228 4 -241 13 -31 23 -46 140 -22 173 13 17 31 20 143
24 l128 5 3 88 3 87 -126 0 c-148 0 -165 9 -165 85 0 32 6 51 20 65 19 19 33
20 208 20 142 0 193 -3 207 -14z m85 -746 c16 -16 20 -33 20 -83 0 -102 2
-101 -202 -107 l-173 -5 -5 -153 c-4 -137 -7 -155 -24 -168 -29 -21 -92 -18
-116 6 -19 19 -20 33 -20 255 0 222 1 236 20 255 19 19 33 20 250 20 217 0
231 -1 250 -20z m350 0 c11 -11 20 -24 20 -30 0 -5 11 -20 25 -34 24 -24 25
-29 25 -166 l0 -140 105 0 c124 0 145 -12 145 -80 0 -27 -7 -47 -20 -60 -19
-19 -33 -20 -210 -20 -177 0 -191 1 -210 20 -19 19 -20 33 -20 255 0 222 1
236 20 255 13 13 33 20 60 20 27 0 47 -7 60 -20z m-730 -730 c32 -32 27 -93
-10 -132 -29 -30 -30 -35 -30 -118 0 -83 1 -88 30 -118 23 -25 30 -41 30 -72
0 -53 -27 -80 -80 -80 -27 0 -47 7 -60 20 -19 19 -20 33 -20 250 0 217 1 231
20 250 13 13 33 20 60 20 27 0 47 -7 60 -20z m380 0 c19 -19 20 -33 20 -250 0
-273 1 -270 -100 -270 -75 0 -100 20 -100 81 0 33 6 47 30 69 30 28 30 30 30
129 0 61 -4 101 -10 101 -24 0 -50 41 -50 80 0 60 25 80 100 80 47 0 64 -4 80
-20z m650 0 c24 -24 27 -87 6 -116 -12 -16 -30 -20 -123 -24 l-108 -5 -5 -142
c-5 -134 -6 -142 -30 -167 -14 -14 -33 -35 -42 -46 -24 -27 -91 -27 -118 0
-19 19 -20 33 -20 250 0 217 1 231 20 250 19 19 33 20 210 20 177 0 191 -1
210 -20z m-1380 -720 c15 -15 20 -33 20 -70 0 -83 -13 -90 -175 -90 -122 0
-137 2 -155 20 -25 25 -20 34 49 108 l49 52 96 0 c83 0 99 -3 116 -20z m730 0
c19 -19 20 -33 20 -250 0 -217 -1 -231 -20 -250 -19 -19 -33 -20 -250 -20
-217 0 -231 1 -250 20 -15 15 -20 33 -20 70 0 85 11 90 190 90 l150 0 0 160
c0 194 3 200 100 200 47 0 64 -4 80 -20z m-1090 -201 c6 -10 10 -76 10 -148 0
-155 -8 -171 -85 -171 -71 0 -85 21 -84 128 0 115 13 147 72 188 49 34 70 35
87 3z m-360 -519 c12 -12 20 -33 20 -55 0 -64 -23 -75 -155 -75 -133 0 -128 5
-123 -115 l3 -70 123 -5 c143 -6 152 -11 152 -92 0 -36 -5 -53 -21 -69 -20
-20 -29 -21 -118 -15 -53 3 -160 6 -238 6 -195 0 -183 -16 -183 234 0 107 3
202 6 211 4 9 23 27 43 40 35 25 39 25 253 25 205 0 219 -1 238 -20z m720 0
c19 -19 20 -33 20 -200 0 -167 -1 -181 -20 -200 -11 -11 -31 -20 -45 -20 -17
0 -25 -5 -25 -18 0 -10 -6 -26 -13 -36 -12 -16 -33 -18 -212 -18 -225 0 -225
0 -225 77 0 76 7 79 187 85 l158 5 5 158 c6 184 8 187 97 187 40 0 58 -5 73
-20z m-1470 -220 c18 -18 20 -33 20 -130 0 -141 -7 -150 -112 -149 -159 2
-249 13 -264 33 -8 11 -10 25 -5 33 8 15 320 232 334 233 4 0 16 -9 27 -20z
m0 -480 c19 -19 20 -33 20 -250 0 -217 -1 -231 -20 -250 -19 -19 -33 -20 -250
-20 -217 0 -231 1 -250 20 -19 19 -20 33 -20 250 0 217 1 231 20 250 19 19 33
20 250 20 217 0 231 -1 250 -20z m751 -1 c19 -19 21 -29 15 -88 -3 -36 -6
-139 -6 -228 0 -195 -4 -203 -95 -203 -88 0 -95 12 -95 170 l0 130 -100 0
-100 0 0 -130 c0 -117 -2 -132 -20 -150 -13 -13 -33 -20 -60 -20 -27 0 -47 7
-60 20 -19 19 -20 33 -20 250 0 217 1 231 20 250 19 19 33 20 260 20 232 0
241 -1 261 -21z m-1735 -183 c15 -11 20 -30 24 -93 l5 -78 113 -5 c98 -4 116
-8 128 -24 21 -29 18 -92 -6 -116 -19 -19 -33 -20 -240 -20 -267 0 -260 -3
-260 114 0 41 3 82 6 91 6 14 190 145 205 145 3 0 14 -6 25 -14z m264 -536
c15 -15 20 -33 20 -73 0 -94 7 -91 -260 -93 -216 -2 -233 -1 -251 17 -27 27
-27 121 1 149 19 19 33 20 245 20 212 0 226 -1 245 -20z m720 0 c19 -19 20
-33 20 -240 0 -265 2 -260 -110 -260 -107 0 -110 5 -110 185 l0 145 -140 0
c-169 0 -180 6 -180 95 0 42 5 60 20 75 19 19 33 20 250 20 217 0 231 -1 250
-20z"/>
<path d="M14870 6691 c-71 -22 -127 -71 -154 -135 -7 -17 -29 -46 -50 -63
l-36 -33 -47 18 c-48 18 -67 40 -78 95 l-5 27 -198 -2 -197 -3 -6 -37 c-6 -40
-30 -74 -59 -83 -25 -8 -45 -64 -61 -169 -18 -122 -25 -129 -132 -120 -94 7
-212 -7 -291 -35 -101 -35 -215 -128 -287 -233 -42 -62 -54 -70 -84 -56 -28
14 -113 107 -121 132 -4 12 -16 34 -28 51 -11 16 -23 50 -26 75 l-5 45 -190 3
-190 2 -37 -35 c-28 -27 -43 -53 -58 -104 -11 -38 -27 -74 -35 -81 -8 -7 -12
-17 -8 -24 7 -10 13 -73 15 -156 2 -36 -8 -91 -21 -124 -7 -16 -11 -36 -10
-45 2 -9 -1 -36 -6 -61 -4 -25 -9 -83 -10 -130 -1 -94 -13 -127 -50 -136 -30
-7 -91 28 -101 59 -4 12 -10 29 -13 37 -4 14 -6 192 -2 345 3 162 -19 264 -69
314 -23 23 -30 38 -30 68 0 73 -1 74 -215 71 l-189 -3 -6 -30 c-8 -40 -57
-122 -76 -129 -9 -3 -24 -2 -34 4 -24 13 -60 72 -60 98 0 36 -27 52 -87 52
-49 0 -59 4 -89 34 -19 19 -34 45 -35 57 -1 47 -8 64 -34 85 -14 11 -30 38
-36 60 -6 21 -16 42 -23 46 -6 4 -90 8 -186 8 -187 0 -200 -3 -200 -48 0 -28
-82 -157 -106 -166 -18 -7 -28 -2 -64 30 -14 13 -35 31 -48 41 -13 10 -27 34
-30 53 -6 32 -15 39 -92 78 -47 23 -130 54 -185 68 -86 23 -121 26 -255 27
-218 1 -346 -29 -467 -110 -65 -43 -138 -114 -159 -155 -20 -38 -76 -111 -107
-140 -41 -38 -57 -123 -57 -298 0 -84 5 -181 12 -216 12 -65 16 -72 91 -137
15 -13 40 -41 56 -61 l29 -37 -31 -75 c-28 -67 -38 -80 -84 -111 -29 -19 -51
-38 -49 -42 3 -4 -2 -38 -11 -76 -13 -64 -13 -145 1 -235 3 -14 5 -28 5 -31 2
-11 47 -54 60 -57 17 -3 121 -81 121 -90 0 -6 80 -44 100 -47 3 -1 23 -6 45
-13 22 -6 51 -13 65 -16 14 -2 45 -9 70 -16 39 -10 124 -17 240 -21 47 -1 150
9 175 18 11 4 34 7 50 8 17 0 42 8 57 18 15 11 31 16 37 13 5 -3 33 10 63 30
29 20 78 47 109 59 44 18 76 42 142 110 74 75 88 85 105 76 22 -12 72 -68 72
-81 0 -5 9 -11 19 -15 11 -3 33 -26 49 -50 16 -24 32 -42 35 -38 7 6 104 -53
115 -71 16 -26 127 -58 217 -63 140 -8 159 -6 193 11 17 9 41 16 52 16 28 0
52 13 88 50 17 16 38 30 48 30 9 0 32 12 51 26 19 14 40 27 46 28 7 1 22 6 34
10 27 9 83 -19 136 -69 39 -36 103 -73 141 -81 81 -18 283 -27 308 -13 36 19
195 27 308 15 36 -4 70 -6 75 -6 118 6 180 32 259 107 36 34 70 72 76 83 12
23 67 60 89 60 7 0 48 -34 89 -76 41 -41 98 -87 126 -101 28 -14 58 -31 66
-38 14 -11 91 -29 178 -41 75 -10 210 -10 247 1 40 11 254 11 310 0 39 -8 83
-7 104 4 9 4 38 11 65 15 35 4 61 16 90 40 62 50 104 69 135 60 14 -4 32 -6
39 -5 16 3 92 -45 92 -58 0 -4 21 -17 48 -27 35 -13 75 -18 159 -18 l112 -1
43 41 c24 23 57 49 75 59 18 10 30 22 28 26 -3 4 4 18 15 32 11 14 20 30 20
37 0 21 30 69 50 80 30 16 76 -12 90 -55 12 -35 69 -89 125 -118 30 -15 37
-17 54 -17 5 0 26 -16 47 -35 21 -20 43 -34 50 -31 8 3 38 -3 69 -14 30 -10
55 -17 55 -14 0 2 12 -2 28 -9 27 -14 180 -15 232 -2 14 3 37 8 52 10 15 2 45
9 68 15 23 6 44 9 47 6 3 -3 21 8 40 24 18 17 39 30 46 30 7 0 76 32 153 71
164 83 172 84 245 11 26 -27 54 -46 63 -44 9 2 34 -14 56 -35 48 -48 82 -65
140 -69 25 -2 63 -6 85 -9 37 -4 198 -16 255 -17 20 -1 131 16 175 26 50 12
104 32 120 46 38 31 135 91 154 95 32 6 62 25 56 35 -3 6 5 21 19 35 15 14 26
30 26 36 0 21 30 68 47 73 10 3 19 16 19 28 2 30 13 77 23 97 4 9 6 34 4 56
-3 35 -10 100 -12 115 -1 3 -14 20 -30 37 -21 23 -32 49 -40 95 -6 35 -16 79
-21 98 -6 19 -13 66 -16 105 -3 38 -7 71 -9 74 -2 2 0 12 6 23 19 35 29 90 34
188 5 87 -13 148 -55 195 -15 17 -33 40 -39 52 -14 27 -99 68 -199 95 -104 28
-382 31 -485 5 -123 -31 -211 -85 -278 -170 -42 -53 -124 -122 -163 -137 -30
-11 -70 15 -114 74 -74 101 -232 206 -354 235 -131 31 -335 22 -463 -20 -105
-35 -216 -120 -301 -231 -24 -31 -53 -60 -65 -63 -32 -10 -67 19 -79 67 -6 24
-16 55 -22 70 -8 22 -7 37 6 68 9 23 18 55 21 73 2 18 7 43 10 57 8 38 8 201
-1 246 -3 21 -11 48 -16 59 -18 35 -161 168 -203 186 -42 19 -147 24 -195 10z
m1167 -1222 c40 -34 59 -119 38 -172 -28 -70 -202 -56 -221 17 -7 27 55 148
84 166 22 13 77 6 99 -11z"/>
<path d="M3711 6515 c-181 -40 -321 -118 -436 -244 -27 -30 -71 -77 -97 -104
-52 -52 -70 -80 -74 -113 -4 -42 -37 -79 -66 -75 -4 0 -16 -14 -27 -32 -30
-49 -52 -173 -57 -326 -2 -75 -6 -167 -8 -206 -3 -38 -1 -88 4 -110 5 -22 12
-60 15 -85 4 -24 11 -52 16 -62 5 -10 7 -18 4 -18 -8 0 25 -51 55 -85 27 -29
86 -125 84 -135 -5 -21 35 -71 68 -86 21 -9 57 -37 79 -61 22 -25 48 -46 57
-48 47 -10 131 -56 137 -75 4 -12 9 -19 13 -16 3 3 16 -1 28 -9 41 -27 128
-54 174 -55 25 0 61 -2 80 -5 95 -13 345 -4 378 14 13 7 28 10 35 8 7 -2 26 2
43 9 17 7 34 11 37 7 3 -3 18 4 33 16 15 11 36 21 48 21 12 0 27 9 33 19 15
24 111 74 125 65 5 -3 33 18 61 49 54 57 91 82 106 72 5 -3 12 4 16 15 9 28
40 43 64 31 10 -6 28 -34 41 -63 12 -29 28 -57 35 -63 7 -5 25 -35 41 -65 16
-30 35 -60 43 -66 31 -24 167 -54 256 -55 18 -1 53 9 74 21 12 6 21 8 21 5 0
-3 12 3 27 12 15 10 29 18 32 18 10 0 79 81 94 110 8 17 26 36 39 43 29 16 28
-16 25 438 -1 72 3 97 19 124 27 46 66 74 93 65 35 -11 50 -56 56 -171 3 -59
8 -110 10 -114 4 -6 6 -102 5 -245 -1 -147 26 -218 89 -231 7 -1 23 -12 36
-24 22 -21 119 -63 127 -55 2 2 19 7 38 10 172 32 220 13 214 -87 -8 -122 -7
-136 15 -188 18 -42 36 -59 94 -84 32 -15 58 -33 62 -45 4 -13 13 -18 27 -16
11 3 37 -3 57 -12 20 -8 47 -16 61 -17 14 -1 32 -6 39 -10 26 -17 154 -8 209
13 29 12 56 20 60 19 4 -1 19 6 34 16 15 10 31 15 37 12 5 -3 12 1 15 10 3 8
20 21 38 29 18 8 69 48 112 90 44 41 84 75 88 75 5 0 7 4 4 9 -3 5 3 19 13 32
10 13 28 45 39 72 11 26 26 47 31 47 6 0 11 7 11 15 0 8 8 23 18 33 23 23 52
99 52 137 0 17 5 47 11 69 6 21 12 48 15 59 2 11 10 28 19 37 9 9 18 28 20 41
3 13 16 34 29 45 13 12 33 39 44 61 23 45 67 174 64 186 -1 4 13 35 33 68 19
32 32 59 29 59 -2 0 4 17 14 38 11 20 22 49 26 64 4 17 18 34 36 43 27 14 31
14 48 -2 10 -10 25 -19 33 -21 21 -5 33 -24 54 -87 18 -51 18 -59 4 -83 -8
-15 -29 -36 -46 -47 -18 -11 -37 -33 -44 -48 -6 -15 -19 -33 -29 -40 -21 -15
-43 -55 -46 -85 -2 -13 -19 -47 -38 -76 -20 -28 -36 -58 -36 -67 0 -9 -9 -27
-19 -41 -11 -13 -22 -45 -24 -71 -3 -25 -8 -51 -12 -56 -3 -6 8 -37 25 -70 21
-43 34 -59 45 -55 8 4 26 -7 42 -24 34 -38 62 -45 178 -45 141 -1 186 5 205
26 10 10 24 19 31 21 26 4 59 27 103 71 24 25 53 45 64 45 31 0 175 -77 218
-117 21 -20 44 -38 49 -39 6 -1 28 -5 50 -10 65 -13 162 -10 295 9 17 2 67 34
90 57 42 42 55 76 61 155 2 32 -22 137 -36 159 -9 14 -13 31 -9 37 4 8 3 9 -5
5 -7 -5 -23 5 -39 22 -43 46 -183 244 -187 263 -2 10 -8 27 -14 38 -18 32 -13
58 17 93 16 18 48 65 72 103 23 39 72 98 107 133 36 35 63 66 60 69 -3 3 -1
17 5 32 9 22 21 115 21 161 1 51 -18 121 -40 155 -15 22 -26 50 -25 62 1 13
-6 26 -16 31 -9 5 -105 7 -213 4 l-197 -4 -62 -85 c-66 -89 -91 -111 -136
-119 -15 -3 -34 -9 -43 -14 -27 -14 -48 6 -121 116 l-70 104 -243 1 c-133 1
-297 2 -365 3 -68 0 -131 -2 -141 -6 -10 -3 -28 -32 -40 -66 -13 -33 -36 -72
-52 -88 -16 -15 -29 -35 -29 -44 0 -20 -43 -88 -70 -111 -10 -9 -33 -43 -50
-75 -37 -70 -65 -98 -88 -85 -39 22 -106 140 -117 208 -15 83 -46 150 -66 137
-18 -10 -44 15 -68 68 l-26 53 -203 3 c-220 3 -223 2 -203 -51 9 -24 7 -31
-22 -61 -28 -29 -85 -66 -102 -66 -3 0 -37 30 -76 66 -85 80 -150 111 -263
126 -136 17 -255 -3 -403 -68 -12 -6 -47 24 -55 47 -4 11 -42 15 -173 17 -210
4 -227 -2 -267 -88 -40 -89 -53 -91 -132 -23 -36 31 -80 79 -99 107 -115 174
-294 294 -498 336 -113 24 -321 26 -418 5z m332 -754 c60 -39 73 -52 65 -65
-2 -2 4 -12 13 -22 62 -73 102 -208 74 -251 -15 -22 -26 -27 -50 -24 -6 0 -19
-15 -29 -34 -10 -19 -37 -47 -59 -62 -38 -27 -46 -28 -151 -28 -103 0 -115 2
-171 30 -59 30 -60 31 -91 110 -28 71 -31 87 -25 146 6 63 8 68 57 115 29 28
59 64 68 82 23 45 41 51 141 49 88 -2 92 -3 158 -46z"/>
</g>
</svg>
