<?xml version="1.0" standalone="no"?>
<!DOCTYPE svg PUBLIC "-//W3C//DTD SVG 20010904//EN"
 "http://www.w3.org/TR/2001/REC-SVG-20010904/DTD/svg10.dtd">
<svg version="1.0" xmlns="http://www.w3.org/2000/svg"
 width="2048.000000pt" height="2048.000000pt" viewBox="0 0 2048.000000 2048.000000"
 preserveAspectRatio="xMidYMid meet">
<metadata>
Created by potrace 1.16, written by Peter Selinger 2001-2019
</metadata>
<g transform="translate(0.000000,2048.000000) scale(0.100000,-0.100000)"
fill="#000000" stroke="none">
<path d="M7068 15200 c-261 -28 -551 -123 -768 -253 -360 -215 -647 -566 -833
-1019 -35 -83 -48 -106 -72 -118 -17 -8 -32 -16 -34 -17 -2 -1 2 -22 8 -45 11
-40 9 -58 -32 -223 -73 -295 -123 -604 -147 -905 -7 -80 -17 -161 -24 -181 -7
-19 -10 -44 -6 -55 4 -10 4 -73 -1 -139 -17 -233 -22 -920 -10 -1165 24 -470
78 -913 145 -1190 152 -634 371 -1049 747 -1416 132 -128 193 -179 304 -256
370 -255 808 -418 1230 -459 239 -23 519 -9 742 37 94 19 333 92 440 135 134
52 353 162 549 274 311 178 554 334 1439 920 264 175 564 374 668 442 l187
124 0 640 c0 351 -2 639 -4 639 -2 0 -19 -6 -37 -14 -19 -7 -43 -10 -54 -6
-16 6 -23 0 -36 -29 -18 -39 49 2 -894 -542 -331 -191 -664 -384 -1180 -686
-583 -341 -757 -434 -907 -482 -138 -44 -253 -57 -371 -43 -276 34 -495 149
-727 381 -151 152 -247 290 -349 501 -137 287 -224 594 -266 935 -74 607 -9
1310 165 1785 62 169 134 317 158 324 12 4 20 15 20 31 0 49 105 198 207 293
108 102 210 164 340 209 270 93 471 67 814 -103 84 -41 164 -86 177 -99 13
-13 38 -28 57 -34 35 -12 201 -111 372 -223 55 -36 188 -121 295 -190 261
-167 691 -445 763 -493 33 -22 60 -48 63 -61 3 -12 11 -21 18 -18 24 9 68 -17
414 -242 191 -125 382 -249 424 -277 56 -36 81 -58 89 -81 10 -28 16 -31 48
-31 39 0 54 -8 284 -158 l117 -77 0 628 -1 627 -212 150 c-116 83 -354 251
-528 375 -174 124 -373 266 -443 315 -70 50 -196 139 -279 198 -132 94 -275
194 -462 326 -308 216 -839 543 -1055 651 -422 210 -765 330 -1070 374 -135
20 -370 27 -482 16z m713 -465 c55 -8 144 -25 197 -36 122 -26 447 -133 572
-189 102 -45 348 -166 365 -180 5 -4 51 -29 100 -55 245 -128 288 -166 260
-232 -21 -48 -54 -54 -164 -26 -124 32 -345 68 -504 83 -164 16 -498 8 -627
-15 -225 -40 -466 -130 -636 -237 -105 -65 -253 -194 -335 -291 -81 -95 -196
-270 -255 -385 -30 -60 -56 -98 -71 -105 -22 -10 -29 -32 -25 -80 2 -18 -86
-306 -130 -427 -10 -30 -21 -71 -23 -90 -2 -19 -13 -88 -24 -154 -105 -596
-87 -1263 49 -1801 195 -770 605 -1322 1195 -1610 237 -116 446 -174 730 -205
129 -14 418 -14 565 0 122 11 320 39 331 46 18 11 72 -21 84 -49 26 -62 10
-77 -178 -179 -317 -171 -643 -290 -936 -340 -166 -29 -485 -31 -631 -4 -491
90 -911 313 -1229 652 -168 180 -261 319 -392 589 -141 291 -223 535 -279 835
-10 52 -27 140 -39 195 -28 140 -58 357 -70 510 -15 184 -32 621 -27 680 3 28
6 120 7 205 6 470 81 1006 200 1438 62 224 233 629 283 671 9 8 16 20 16 28 0
8 13 27 28 43 16 16 35 43 42 61 38 92 270 327 421 428 163 110 306 170 497
211 195 42 419 47 633 15z"/>
<path d="M11430 14675 c0 -330 -4 -354 -59 -373 -39 -14 -86 1 -103 32 -7 11
-15 57 -18 101 l-5 80 -106 1 -106 0 13 -33 c18 -42 18 -95 0 -137 -17 -42
-61 -60 -107 -44 -79 28 -79 199 1 227 18 6 36 8 41 6 4 -3 2 10 -6 29 -11 25
-15 74 -15 165 0 108 -3 130 -16 135 -9 3 -80 6 -159 6 -132 0 -145 -2 -155
-19 -5 -11 -10 -82 -10 -160 0 -114 3 -142 16 -155 8 -9 20 -16 25 -16 6 0 17
-16 25 -35 24 -58 0 -160 -43 -181 -10 -5 -160 -11 -333 -14 -287 -5 -315 -6
-315 -22 0 -11 104 -90 290 -219 409 -285 1190 -838 1283 -907 l32 -24 0 926
0 926 -85 0 -85 0 0 -295z"/>
<path d="M8199 13377 c-9 -7 -21 -22 -27 -34 -9 -16 -12 -510 -12 -1978 l0
-1956 26 -26 c42 -42 81 -30 329 99 431 225 580 309 613 343 l32 35 0 1457 c0
993 -3 1470 -11 1496 -5 21 -22 51 -37 67 -15 16 -155 102 -312 191 -157 88
-346 196 -421 240 -75 43 -142 79 -150 79 -8 0 -21 -6 -30 -13z"/>
<path d="M11549 9328 c-68 -50 -1130 -767 -1351 -913 -109 -71 -196 -134 -195
-140 2 -6 125 -12 328 -15 230 -4 330 -9 345 -17 27 -15 44 -62 44 -118 0 -67
-18 -104 -59 -123 l-36 -17 0 -160 0 -160 178 -3 177 -2 0 70 c0 91 18 134 60
149 42 14 287 14 329 0 17 -6 37 -21 44 -33 7 -12 14 -76 17 -151 l5 -130 83
-3 82 -3 0 901 c0 495 -2 900 -3 900 -2 0 -24 -14 -48 -32z"/>
<path d="M14870 6691 c-49 -15 -89 -41 -119 -78 -17 -21 -31 -43 -31 -50 0
-22 -50 -72 -84 -83 -27 -9 -42 -8 -69 4 -29 11 -38 23 -52 65 l-17 51 -195
-2 -196 -3 -14 -48 c-10 -35 -22 -53 -43 -65 -34 -20 -55 -64 -65 -142 -17
-128 -52 -162 -155 -153 -71 7 -202 -10 -273 -36 -30 -10 -81 -37 -114 -59
-59 -40 -173 -154 -173 -173 0 -6 -16 -17 -35 -25 -30 -12 -39 -12 -74 2 -59
23 -134 138 -149 228 l-8 41 -189 3 -190 2 -37 -35 c-28 -27 -43 -53 -58 -104
-11 -38 -27 -74 -35 -81 -8 -7 -12 -17 -8 -22 5 -10 13 -90 16 -158 1 -31 -9
-89 -22 -123 -5 -14 -10 -38 -9 -53 0 -16 -4 -47 -9 -69 -6 -22 -8 -52 -6 -65
2 -14 -4 -45 -13 -68 -20 -53 -60 -76 -107 -59 -51 17 -59 54 -51 250 3 95 6
177 6 182 -6 129 -30 222 -67 259 -13 13 -27 41 -30 62 -15 90 0 85 -216 82
l-191 -3 -16 -49 c-13 -39 -24 -53 -47 -62 -45 -18 -91 4 -111 53 -20 46 -29
53 -77 53 -83 0 -125 38 -141 125 -3 16 -17 40 -30 54 -14 15 -31 42 -37 61
-7 19 -17 38 -23 42 -6 4 -90 8 -187 8 -190 0 -190 0 -203 -55 -12 -48 -64
-122 -95 -133 -50 -18 -122 29 -144 93 -12 36 -21 44 -97 83 -47 23 -130 54
-185 68 -86 23 -121 26 -255 27 -218 1 -346 -29 -467 -110 -65 -43 -138 -114
-159 -155 -20 -38 -76 -111 -107 -140 -41 -38 -57 -123 -57 -298 0 -194 13
-270 53 -308 16 -15 45 -42 64 -60 19 -18 41 -48 49 -67 13 -32 12 -39 -13
-101 -23 -56 -35 -71 -80 -101 -29 -19 -51 -38 -49 -42 3 -4 -2 -38 -11 -76
-13 -64 -13 -145 1 -235 3 -14 5 -28 5 -31 2 -14 50 -56 86 -74 21 -11 53 -34
71 -50 47 -45 133 -81 234 -98 14 -3 45 -10 70 -17 39 -11 103 -17 240 -21 43
-1 148 9 172 17 9 3 34 6 55 8 46 4 126 38 171 73 18 14 60 36 93 48 45 18 75
39 117 84 69 73 105 89 155 68 19 -9 38 -24 42 -36 3 -11 15 -23 25 -26 11 -3
32 -26 47 -50 20 -30 39 -46 65 -54 20 -6 50 -24 66 -39 48 -45 134 -73 237
-79 143 -7 148 -7 195 10 25 8 58 18 73 22 15 3 37 16 48 30 12 13 35 29 53
36 17 7 43 21 58 31 15 10 44 25 66 32 35 13 43 12 78 -4 21 -10 56 -34 77
-54 51 -48 122 -83 183 -91 100 -13 246 -13 283 -1 55 19 174 24 291 12 99
-10 142 -6 219 21 50 18 167 117 191 163 7 12 27 28 45 36 47 19 77 6 148 -67
32 -32 81 -71 110 -85 29 -15 59 -32 67 -39 14 -11 91 -29 178 -41 68 -9 208
-10 237 -1 45 13 253 15 310 2 30 -7 64 -8 85 -3 19 4 60 13 90 19 37 7 69 22
97 45 45 37 109 68 122 60 4 -3 22 -8 41 -11 41 -7 89 -32 96 -49 12 -30 95
-50 211 -50 l112 -1 43 41 c24 23 57 49 73 58 20 11 39 37 55 73 18 40 33 59
54 68 39 17 82 2 101 -35 19 -36 80 -85 142 -112 26 -12 65 -34 85 -51 20 -16
41 -26 46 -23 5 3 47 -7 93 -22 71 -24 98 -28 179 -26 55 1 132 11 183 23 49
12 92 19 97 16 4 -3 13 2 20 10 7 8 91 54 186 101 165 82 175 85 208 74 19 -6
53 -31 75 -55 23 -25 41 -43 41 -40 0 12 63 -21 82 -43 30 -35 72 -54 128 -58
25 -2 63 -6 85 -9 37 -4 198 -16 255 -17 20 -1 131 16 175 26 50 12 104 32
120 46 41 33 102 69 158 94 34 15 57 31 57 40 0 9 8 24 19 35 10 10 24 35 31
55 6 20 21 42 33 49 12 6 23 19 23 27 3 32 15 83 23 99 7 16 7 61 -3 133 -2
21 -18 57 -35 80 -51 72 -94 314 -71 402 44 171 33 301 -30 371 -15 17 -33 40
-39 52 -14 27 -99 68 -199 95 -104 28 -382 31 -485 5 -126 -32 -230 -98 -291
-185 -25 -37 -109 -102 -148 -115 -33 -11 -77 14 -115 65 -75 103 -232 207
-355 237 -81 19 -218 24 -313 12 -176 -24 -296 -86 -412 -216 -66 -74 -95 -89
-140 -70 -24 10 -35 26 -52 69 -19 51 -19 58 -5 98 8 23 17 56 19 73 2 16 7
41 10 55 8 38 8 201 -1 246 -3 21 -11 48 -16 59 -18 35 -161 168 -203 186 -42
19 -147 24 -195 10z"/>
<path d="M3711 6515 c-181 -40 -321 -118 -436 -244 -27 -30 -72 -78 -99 -105
-27 -28 -60 -76 -76 -112 -18 -38 -36 -65 -49 -69 -54 -17 -90 -151 -97 -364
-2 -75 -6 -167 -8 -206 -3 -38 -1 -88 4 -110 5 -22 11 -58 14 -79 14 -87 27
-116 77 -171 15 -16 46 -69 69 -117 37 -74 48 -89 82 -104 21 -9 57 -37 79
-61 30 -32 59 -51 111 -70 46 -17 73 -33 80 -48 12 -26 158 -85 208 -84 19 1
55 -2 80 -6 89 -14 355 -5 403 14 15 6 27 9 27 6 0 -2 15 2 34 10 18 8 36 12
39 9 3 -3 16 1 29 9 12 8 34 18 48 22 13 4 32 18 42 31 10 12 47 32 83 44 52
17 72 30 102 66 41 51 56 61 103 69 18 3 37 8 41 10 17 11 71 -19 86 -49 9
-17 22 -35 28 -41 7 -5 25 -35 41 -65 16 -30 35 -60 43 -66 24 -19 112 -43
181 -49 92 -9 101 -8 167 16 59 23 120 78 154 141 8 16 26 37 40 46 13 9 25
28 26 42 5 63 5 225 0 330 -5 99 -4 121 12 156 23 51 62 68 108 49 48 -20 52
-44 59 -382 5 -252 17 -295 92 -336 125 -69 143 -75 197 -63 116 25 186 10
209 -46 8 -18 12 -46 9 -63 -10 -70 -9 -96 6 -138 24 -65 42 -84 103 -111 33
-15 59 -33 63 -45 4 -13 13 -18 27 -16 11 3 37 -3 57 -12 20 -9 41 -17 46 -17
6 -1 30 -6 55 -10 71 -14 153 -9 209 14 28 11 55 19 59 18 14 -5 75 26 98 49
13 13 29 23 36 23 7 0 46 31 86 70 40 38 80 75 90 82 10 7 35 48 55 91 21 42
42 77 47 77 6 0 10 7 10 15 0 8 8 23 18 33 24 24 52 100 52 142 1 19 11 64 23
100 18 54 28 68 55 82 39 19 86 9 103 -23 15 -29 19 -78 8 -105 -7 -20 -3 -37
21 -84 17 -33 37 -60 44 -60 8 0 27 -11 43 -24 15 -13 45 -28 66 -34 34 -10
235 -8 283 2 32 7 126 67 159 103 53 57 75 59 169 14 44 -22 99 -57 121 -77
22 -21 45 -39 50 -40 6 -1 28 -5 50 -10 65 -13 162 -10 295 9 17 2 67 34 90
57 53 53 69 114 55 205 -12 77 -38 155 -52 155 -19 0 -52 37 -133 151 -84 118
-114 186 -99 226 6 16 18 37 28 48 10 11 37 52 61 90 24 39 72 98 107 133 36
35 63 66 60 69 -3 3 -1 17 5 32 9 22 21 115 21 161 1 46 -17 116 -38 156 -14
26 -25 55 -25 65 0 10 -8 22 -17 27 -10 5 -106 7 -214 4 l-196 -4 -66 -88
c-59 -79 -72 -90 -121 -109 -82 -30 -100 -21 -180 100 l-66 99 -243 1 c-133 1
-297 2 -365 3 -68 0 -131 -2 -141 -6 -10 -3 -28 -32 -40 -65 -12 -32 -35 -71
-50 -88 -16 -16 -34 -46 -40 -66 -6 -19 -30 -55 -52 -80 -22 -24 -47 -59 -54
-77 -18 -41 -67 -65 -105 -50 -57 22 -82 67 -119 223 -14 59 -24 72 -67 90
-24 10 -40 27 -56 62 l-23 48 -205 0 -205 0 -1 -36 c-1 -49 -37 -105 -75 -118
-41 -14 -72 -1 -136 60 -69 65 -140 97 -247 111 -105 13 -237 -1 -329 -36 -66
-25 -100 -22 -125 12 -11 15 -36 17 -179 20 -198 4 -228 -4 -255 -69 -42 -100
-147 -73 -238 61 -123 181 -295 298 -501 340 -113 24 -321 26 -418 5z"/>
</g>
</svg>
