<?xml version="1.0" standalone="no"?>
<!DOCTYPE svg PUBLIC "-//W3C//DTD SVG 20010904//EN"
 "http://www.w3.org/TR/2001/REC-SVG-20010904/DTD/svg10.dtd">
<svg version="1.0" xmlns="http://www.w3.org/2000/svg"
 width="2048.000000pt" height="850.000000pt" viewBox="0 0 2048.000000 850.000000"
 preserveAspectRatio="xMidYMid meet">
<metadata>
Created by potrace 1.16, written by Peter Selinger 2001-2019
</metadata>
<g transform="translate(0.000000,850.000000) scale(0.100000,-0.100000)"
fill="#000000" stroke="none">
<path d="M7068 8020 c-261 -28 -551 -123 -768 -253 -361 -216 -646 -565 -835
-1023 -44 -107 -67 -139 -92 -130 -18 7 -16 -20 3 -49 9 -13 13 -28 10 -33 -3
-5 -25 -89 -49 -188 -74 -296 -124 -607 -147 -904 -6 -80 -16 -158 -22 -175
-5 -16 -9 -37 -8 -45 3 -27 1 -121 -10 -345 -36 -778 22 -1659 144 -2165 152
-634 371 -1049 747 -1416 132 -128 193 -179 304 -256 370 -255 808 -418 1230
-459 239 -23 519 -9 742 37 94 19 333 92 440 135 134 52 353 162 549 274 311
178 554 334 1439 920 264 175 566 374 670 443 1117 737 1556 1035 1635 1108
192 181 273 377 249 600 -11 102 -22 141 -70 240 -73 149 -178 253 -453 448
-297 211 -808 572 -1061 749 -148 104 -353 249 -455 322 -224 159 -670 476
-844 600 -70 50 -196 139 -279 198 -132 94 -275 194 -462 326 -308 216 -839
543 -1055 651 -422 210 -765 330 -1070 374 -135 20 -370 27 -482 16z m713
-465 c55 -8 144 -25 197 -36 122 -26 447 -133 572 -189 112 -49 349 -167 368
-182 7 -6 34 -21 60 -33 124 -58 477 -277 493 -306 12 -24 -24 -64 -49 -54 -9
4 -103 29 -208 56 -212 55 -414 91 -607 109 -164 16 -498 8 -627 -15 -225 -40
-466 -130 -636 -237 -105 -65 -253 -194 -335 -291 -84 -99 -197 -272 -259
-394 -46 -93 -58 -108 -82 -104 -7 1 -9 -12 -9 -64 0 -16 -20 -91 -44 -165
-24 -74 -55 -174 -69 -222 -14 -49 -28 -94 -33 -100 -4 -7 -8 -26 -9 -43 -1
-16 -11 -83 -23 -149 -105 -593 -87 -1263 49 -1801 195 -770 605 -1322 1195
-1610 313 -153 606 -216 1005 -216 264 0 496 25 725 80 66 16 128 32 137 35
26 11 61 -29 48 -54 -23 -43 -490 -298 -722 -395 -184 -76 -420 -147 -597
-177 -166 -29 -485 -31 -631 -4 -358 66 -688 206 -963 409 -161 119 -363 335
-488 522 -82 121 -244 455 -313 643 -56 152 -102 322 -136 502 -10 52 -27 140
-39 195 -28 140 -58 357 -70 510 -15 184 -32 621 -27 680 3 28 6 120 7 205 6
470 81 1006 200 1438 62 224 233 629 283 671 9 8 16 20 16 28 0 8 13 27 28 42
15 16 26 33 25 38 -6 18 102 150 221 269 217 216 429 333 714 394 195 42 419
47 633 15z m298 -1065 c35 -6 105 -24 155 -40 106 -34 388 -171 422 -205 12
-12 25 -21 28 -18 6 7 222 -122 401 -239 72 -47 204 -132 295 -190 209 -133
687 -442 763 -493 33 -22 60 -48 63 -61 5 -19 10 -22 23 -14 14 7 76 -30 287
-166 655 -426 667 -435 648 -466 -5 -8 -2 -9 12 -3 10 4 26 8 34 8 25 1 469
-293 520 -344 62 -62 90 -121 90 -189 0 -103 -56 -173 -214 -271 -74 -45 -81
-48 -102 -34 -20 13 -21 12 -17 -3 9 -35 51 -9 -967 -595 -261 -150 -574 -332
-1150 -668 -425 -249 -693 -396 -798 -439 -158 -64 -324 -90 -465 -71 -272 36
-488 151 -717 380 -151 152 -247 290 -349 501 -137 287 -224 594 -266 935 -74
607 -9 1310 165 1785 65 176 134 317 159 325 16 5 20 12 15 27 -8 26 81 161
167 252 213 228 518 341 798 296z"/>
<path d="M8199 6197 c-9 -7 -21 -22 -27 -34 -9 -16 -12 -510 -12 -1978 l0
-1956 26 -26 c42 -42 81 -30 329 99 431 225 580 309 613 343 l32 35 0 1457 c0
993 -3 1470 -11 1496 -5 21 -22 51 -37 67 -15 16 -155 102 -312 191 -157 88
-346 196 -421 240 -75 43 -142 79 -150 79 -8 0 -21 -6 -30 -13z"/>
<path d="M12060 7850 c-6 -22 -20 -45 -31 -51 -13 -6 -85 -10 -192 -9 -95 1
-225 1 -289 1 l-118 -1 0 -315 0 -316 -25 -24 c-18 -19 -35 -25 -68 -25 -72 0
-81 13 -87 127 l-5 98 -90 0 -90 0 -5 -98 c-6 -115 -15 -127 -92 -127 -72 0
-88 21 -88 116 0 87 8 108 50 122 l30 11 0 159 c0 137 -2 161 -16 166 -9 3
-80 6 -159 6 -132 0 -145 -2 -155 -19 -11 -21 -14 -278 -4 -305 3 -9 12 -16
20 -16 8 0 22 -8 32 -18 15 -15 18 -33 17 -106 -1 -52 -7 -92 -14 -99 -9 -9
-104 -13 -349 -17 -308 -5 -337 -6 -337 -22 0 -11 104 -90 290 -219 610 -426
2155 -1524 2582 -1836 263 -192 404 -321 493 -454 48 -70 119 -215 125 -256 3
-16 12 -53 21 -83 25 -87 22 -293 -5 -405 -29 -116 -122 -308 -201 -413 -136
-181 -207 -234 -1345 -1001 -236 -160 -686 -464 -1000 -676 -313 -213 -657
-444 -762 -513 -106 -70 -191 -131 -190 -137 2 -6 131 -12 346 -15 403 -6 371
6 371 -132 0 -75 -3 -91 -20 -108 -11 -11 -28 -20 -39 -20 -37 0 -42 -21 -39
-181 l3 -154 178 -3 177 -2 0 95 c0 139 -7 135 223 135 142 0 188 -3 203 -14
17 -13 20 -31 24 -163 l5 -148 444 -3 c349 -2 446 0 453 10 4 7 8 156 8 331 0
304 1 318 20 337 19 19 33 20 364 20 294 0 345 2 356 15 10 12 11 89 8 342 -5
307 -4 327 13 344 17 17 37 19 202 19 209 0 217 -2 226 -71 l6 -44 185 0 185
0 5 140 c3 77 4 161 2 187 -3 46 -5 48 -33 48 -16 0 -38 9 -49 20 -19 19 -20
33 -20 198 0 138 3 183 14 198 14 18 33 19 363 24 l348 5 5 343 c5 325 6 344
24 358 24 17 87 18 107 2 9 -7 23 -25 32 -40 l17 -28 138 0 c94 0 142 4 150
12 8 8 12 57 12 155 l0 143 -27 17 c-54 33 -65 62 -39 99 14 18 32 19 328 24
l313 5 0 435 0 435 -313 5 c-296 5 -314 6 -328 24 -28 40 -12 88 36 104 l30
11 0 154 c0 132 -2 156 -16 161 -9 3 -79 6 -155 6 l-140 0 -11 -30 c-5 -17
-18 -35 -28 -40 -32 -17 -88 -12 -110 10 -19 19 -20 33 -20 220 0 187 1 201
20 220 11 11 31 20 45 20 l25 0 0 180 0 180 -182 -2 -182 -3 -8 -30 c-13 -52
-26 -55 -225 -55 -249 0 -227 -29 -218 295 5 184 4 259 -5 274 -10 20 -18 22
-98 19 l-87 -3 -5 -117 c-3 -77 -9 -122 -18 -130 -10 -10 -54 -13 -165 -13
l-152 0 -5 -148 c-6 -172 -8 -177 -97 -177 -40 0 -58 5 -73 20 -19 19 -20 33
-20 255 0 222 1 236 20 255 28 28 57 25 88 -8 26 -28 31 -29 161 -35 94 -5
138 -4 147 4 18 15 20 256 3 293 -10 20 -9 30 5 51 14 21 16 49 14 178 l-3
152 -157 3 c-156 2 -157 2 -182 -23 -21 -21 -29 -24 -46 -15 -12 6 -73 9 -157
8 l-138 -3 -3 -142 c-3 -140 -2 -142 23 -167 30 -30 31 -40 5 -66 -14 -14 -33
-20 -65 -20 -75 0 -85 18 -85 150 l0 110 -90 0 -90 0 0 -110 c0 -137 -8 -150
-100 -150 -108 0 -100 -46 -100 581 0 333 4 547 10 559 5 10 23 23 40 28 l30
11 0 185 0 186 -175 0 -174 0 -11 -40z m-314 -254 c16 -12 20 -31 24 -138 l5
-123 83 -3 c53 -2 89 1 98 9 10 8 14 39 14 120 0 96 2 111 20 129 28 28 56 12
70 -40 8 -29 16 -40 30 -40 11 0 29 -9 40 -20 18 -18 20 -33 20 -180 0 -217
23 -200 -270 -200 -217 0 -231 1 -250 20 -19 19 -20 33 -20 230 0 197 1 211
20 230 24 24 87 27 116 6z m-706 -696 c18 -18 20 -33 20 -135 0 -102 -2 -117
-20 -135 -20 -20 -22 -20 -51 -3 -17 10 -48 34 -70 54 l-39 36 0 81 c0 103 14
122 90 122 37 0 55 -5 70 -20z m1090 0 c17 -17 20 -33 20 -100 0 -68 -3 -83
-21 -101 -20 -20 -29 -21 -138 -16 -64 2 -133 2 -153 -1 l-38 -5 0 -148 c0
-179 -5 -189 -95 -189 -42 0 -60 5 -75 20 -19 19 -20 33 -20 270 0 237 1 251
20 270 19 19 33 20 250 20 217 0 231 -1 250 -20z m0 -770 c18 -18 20 -33 20
-140 0 -107 -2 -122 -20 -140 -22 -22 -24 -21 -80 19 -57 41 -60 47 -60 148 0
111 13 133 80 133 27 0 47 -7 60 -20z m386 6 c16 -12 20 -31 24 -138 l5 -123
65 -3 c114 -5 110 -10 110 123 0 139 9 155 90 155 37 0 55 -5 70 -20 19 -19
20 -33 20 -255 0 -293 11 -275 -157 -276 -263 -2 -316 1 -350 22 -17 11 -36
33 -42 49 -5 17 -10 121 -11 235 0 192 1 206 20 225 25 25 125 28 156 6z m743
-745 c19 -19 21 -33 21 -176 l0 -155 150 0 c184 0 190 -3 190 -105 0 -88 -17
-105 -102 -105 -100 0 -127 12 -206 92 -39 40 -97 91 -128 113 -98 68 -94 59
-94 195 0 144 5 153 92 158 47 3 61 -1 77 -17z m986 5 c10 -7 19 -24 20 -36 1
-17 10 -26 31 -32 51 -14 54 -25 54 -240 0 -184 -1 -199 -20 -218 -18 -18 -34
-20 -243 -20 -166 0 -228 4 -241 13 -31 23 -46 140 -22 173 13 17 31 20 143
24 l128 5 3 88 3 87 -126 0 c-148 0 -165 9 -165 85 0 32 6 51 20 65 19 19 33
20 208 20 142 0 193 -3 207 -14z m85 -746 c16 -16 20 -33 20 -83 0 -102 2
-101 -202 -107 l-173 -5 -5 -153 c-4 -137 -7 -155 -24 -168 -29 -21 -92 -18
-116 6 -19 19 -20 33 -20 255 0 222 1 236 20 255 19 19 33 20 250 20 217 0
231 -1 250 -20z m350 0 c11 -11 20 -24 20 -30 0 -5 11 -20 25 -34 24 -24 25
-29 25 -166 l0 -140 105 0 c124 0 145 -12 145 -80 0 -27 -7 -47 -20 -60 -19
-19 -33 -20 -210 -20 -177 0 -191 1 -210 20 -19 19 -20 33 -20 255 0 222 1
236 20 255 13 13 33 20 60 20 27 0 47 -7 60 -20z m-730 -730 c32 -32 27 -93
-10 -132 -29 -30 -30 -35 -30 -118 0 -83 1 -88 30 -118 23 -25 30 -41 30 -72
0 -53 -27 -80 -80 -80 -27 0 -47 7 -60 20 -19 19 -20 33 -20 250 0 217 1 231
20 250 13 13 33 20 60 20 27 0 47 -7 60 -20z m380 0 c19 -19 20 -33 20 -250 0
-273 1 -270 -100 -270 -75 0 -100 20 -100 81 0 33 6 47 30 69 30 28 30 30 30
129 0 61 -4 101 -10 101 -24 0 -50 41 -50 80 0 60 25 80 100 80 47 0 64 -4 80
-20z m650 0 c24 -24 27 -87 6 -116 -12 -16 -30 -20 -123 -24 l-108 -5 -5 -142
c-5 -134 -6 -142 -30 -167 -14 -14 -33 -35 -42 -46 -24 -27 -91 -27 -118 0
-19 19 -20 33 -20 250 0 217 1 231 20 250 19 19 33 20 210 20 177 0 191 -1
210 -20z m-1380 -720 c15 -15 20 -33 20 -70 0 -83 -13 -90 -175 -90 -122 0
-137 2 -155 20 -25 25 -20 34 49 108 l49 52 96 0 c83 0 99 -3 116 -20z m730 0
c19 -19 20 -33 20 -250 0 -217 -1 -231 -20 -250 -19 -19 -33 -20 -250 -20
-217 0 -231 1 -250 20 -15 15 -20 33 -20 70 0 85 11 90 190 90 l150 0 0 160
c0 194 3 200 100 200 47 0 64 -4 80 -20z m-1090 -201 c6 -10 10 -76 10 -148 0
-155 -8 -171 -85 -171 -71 0 -85 21 -84 128 0 115 13 147 72 188 49 34 70 35
87 3z m-360 -519 c12 -12 20 -33 20 -55 0 -64 -23 -75 -155 -75 -133 0 -128 5
-123 -115 l3 -70 123 -5 c143 -6 152 -11 152 -92 0 -36 -5 -53 -21 -69 -20
-20 -29 -21 -118 -15 -53 3 -160 6 -238 6 -195 0 -183 -16 -183 234 0 107 3
202 6 211 4 9 23 27 43 40 35 25 39 25 253 25 205 0 219 -1 238 -20z m720 0
c19 -19 20 -33 20 -200 0 -167 -1 -181 -20 -200 -11 -11 -31 -20 -45 -20 -17
0 -25 -5 -25 -18 0 -10 -6 -26 -13 -36 -12 -16 -33 -18 -212 -18 -225 0 -225
0 -225 77 0 76 7 79 187 85 l158 5 5 158 c6 184 8 187 97 187 40 0 58 -5 73
-20z m-1470 -220 c18 -18 20 -33 20 -130 0 -141 -7 -150 -112 -149 -159 2
-249 13 -264 33 -8 11 -10 25 -5 33 8 15 320 232 334 233 4 0 16 -9 27 -20z
m0 -480 c19 -19 20 -33 20 -250 0 -217 -1 -231 -20 -250 -19 -19 -33 -20 -250
-20 -217 0 -231 1 -250 20 -19 19 -20 33 -20 250 0 217 1 231 20 250 19 19 33
20 250 20 217 0 231 -1 250 -20z m751 -1 c19 -19 21 -29 15 -88 -3 -36 -6
-139 -6 -228 0 -195 -4 -203 -95 -203 -88 0 -95 12 -95 170 l0 130 -100 0
-100 0 0 -130 c0 -117 -2 -132 -20 -150 -13 -13 -33 -20 -60 -20 -27 0 -47 7
-60 20 -19 19 -20 33 -20 250 0 217 1 231 20 250 19 19 33 20 260 20 232 0
241 -1 261 -21z m-1735 -183 c15 -11 20 -30 24 -93 l5 -78 113 -5 c98 -4 116
-8 128 -24 21 -29 18 -92 -6 -116 -19 -19 -33 -20 -240 -20 -267 0 -260 -3
-260 114 0 41 3 82 6 91 6 14 190 145 205 145 3 0 14 -6 25 -14z m264 -536
c15 -15 20 -33 20 -73 0 -94 7 -91 -260 -93 -216 -2 -233 -1 -251 17 -27 27
-27 121 1 149 19 19 33 20 245 20 212 0 226 -1 245 -20z m720 0 c19 -19 20
-33 20 -240 0 -265 2 -260 -110 -260 -107 0 -110 5 -110 185 l0 145 -140 0
c-169 0 -180 6 -180 95 0 42 5 60 20 75 19 19 33 20 250 20 217 0 231 -1 250
-20z"/>
</g>
</svg>
