<?xml version="1.0" standalone="no"?>
<!DOCTYPE svg PUBLIC "-//W3C//DTD SVG 20010904//EN"
 "http://www.w3.org/TR/2001/REC-SVG-20010904/DTD/svg10.dtd">
<svg version="1.0" xmlns="http://www.w3.org/2000/svg"
 width="2048.000000pt" height="2048.000000pt" viewBox="0 0 2048.000000 2048.000000"
 preserveAspectRatio="xMidYMid meet">
<metadata>
Created by potrace 1.16, written by Peter Selinger 2001-2019
</metadata>
<g transform="translate(0.000000,2048.000000) scale(0.100000,-0.100000)"
fill="#000000" stroke="none">
<path d="M7020 15189 c-292 -38 -601 -158 -840 -329 -305 -217 -549 -542 -718
-955 -146 -357 -246 -900 -291 -1575 -43 -637 -35 -1183 25 -1780 38 -379 76
-587 165 -895 77 -266 212 -569 341 -767 120 -184 312 -397 488 -544 230 -192
512 -348 825 -457 278 -96 489 -130 810 -130 300 -1 484 28 760 119 445 148
768 334 2060 1189 209 138 454 300 545 360 874 576 1778 1184 1837 1236 93 83
153 157 196 244 49 98 67 166 74 270 7 123 -13 213 -78 345 -46 93 -63 116
-148 200 -115 114 -99 102 -1301 948 -223 157 -323 228 -955 677 -1206 857
-1326 940 -1690 1167 -636 397 -1169 617 -1625 673 -132 16 -372 18 -480 4z
m365 -29 c400 -34 829 -180 1324 -449 320 -174 736 -441 1141 -732 189 -135
364 -260 620 -440 119 -83 465 -330 546 -388 50 -36 128 -92 173 -124 45 -32
79 -62 76 -68 -4 -5 2 -9 12 -9 23 0 149 -87 146 -101 -2 -5 5 -9 15 -9 10 0
73 -39 140 -87 192 -138 280 -199 375 -264 48 -33 87 -66 87 -74 0 -8 8 -15
17 -15 25 0 124 -70 116 -83 -3 -6 -1 -7 6 -3 7 5 42 -15 87 -49 60 -45 74
-60 69 -76 -5 -16 -1 -19 27 -19 45 0 165 -81 141 -96 -8 -5 -16 -23 -18 -40
-2 -28 0 -31 24 -28 14 1 31 10 37 19 10 13 14 14 20 3 16 -25 12 -35 -12 -30
-18 3 -23 1 -19 -10 4 -10 16 -14 35 -12 16 2 32 -1 35 -6 3 -5 13 -6 22 -3
10 4 14 2 10 -4 -4 -6 0 -16 7 -22 10 -8 16 -9 21 -1 3 6 11 8 16 5 5 -4 9 -1
9 5 0 6 5 8 10 5 6 -3 10 -15 10 -26 0 -21 16 -26 22 -8 3 8 19 2 45 -15 30
-20 40 -33 38 -47 -2 -11 0 -17 5 -14 4 3 11 -1 13 -7 4 -10 7 -10 14 -1 6 9
24 0 66 -32 47 -37 57 -51 57 -75 0 -17 -5 -30 -11 -30 -6 0 -8 7 -5 16 5 12
1 14 -15 9 -15 -5 -19 -4 -14 5 6 9 2 9 -15 0 -19 -10 -25 -9 -39 5 -9 10 -10
15 -3 11 15 -9 15 -1 1 25 -5 11 -14 17 -20 14 -5 -4 -12 2 -16 12 -9 25 -23
32 -55 28 -19 -2 -32 3 -41 16 -8 10 -17 16 -20 12 -4 -3 -7 -1 -7 6 0 8 -6
11 -16 7 -8 -3 -12 -2 -9 4 3 6 -2 10 -12 11 -16 0 -16 1 2 8 16 7 12 9 -16 9
-25 0 -45 8 -60 23 -15 15 -17 20 -6 16 9 -3 19 -1 23 5 4 7 3 8 -4 4 -7 -4
-12 -3 -12 2 0 5 -21 10 -47 11 -27 1 -60 3 -75 5 -16 2 -29 -1 -29 -5 -4 -29
-3 -35 10 -45 7 -6 11 -17 8 -25 -4 -10 -6 -9 -6 4 -1 11 -8 18 -18 16 -32 -3
-37 1 -20 14 13 9 14 16 6 27 -9 13 -10 13 -6 -2 4 -10 -1 -18 -15 -21 -11 -3
-17 -10 -13 -16 4 -7 -5 -12 -22 -12 -26 -2 -25 -2 7 -9 19 -4 28 -8 19 -9 -9
0 -22 -8 -29 -16 -11 -14 -10 -14 16 -5 16 6 25 7 19 2 -17 -16 -55 -24 -55
-12 0 6 -4 8 -10 5 -6 -3 -7 1 -4 9 5 12 0 16 -20 16 -14 0 -26 5 -26 10 0 6
-8 10 -17 10 -15 0 -16 -2 -3 -10 13 -8 12 -10 -2 -10 -10 0 -18 4 -18 8 0 10
-1 10 -118 14 -71 2 -91 0 -87 -9 3 -9 -5 -13 -23 -12 -24 0 -25 1 -7 9 19 8
18 9 -5 11 -14 1 -41 1 -61 0 -20 -2 -40 2 -44 8 -3 6 -12 11 -18 11 -9 0 -9
-2 -1 -8 7 -4 8 -15 3 -27 -6 -17 -8 -17 -8 -2 -1 9 -9 17 -19 17 -10 0 -24 6
-31 13 -11 9 -12 9 -7 0 4 -7 2 -21 -4 -30 -10 -16 -11 -16 -6 -1 5 15 -10 17
-155 20 -87 2 -163 2 -169 0 -5 -2 -6 -10 -3 -19 4 -11 2 -14 -8 -11 -8 3 -13
10 -12 16 3 13 -49 20 -73 11 -20 -8 -13 -11 36 -13 20 -1 26 -7 28 -29 2 -20
8 -27 18 -23 17 6 18 1 4 -25 -10 -17 -7 -19 24 -19 19 0 38 -5 41 -10 4 -7
-2 -9 -19 -4 -30 7 -58 -10 -49 -31 3 -8 -2 -21 -11 -30 -14 -14 -21 -12 -80
27 -39 26 -66 50 -66 61 0 9 -6 17 -12 17 -9 0 -8 3 2 10 11 7 17 5 22 -8 6
-15 8 -14 13 5 4 11 16 24 27 26 12 4 17 10 13 17 -5 8 -10 9 -14 2 -3 -6 -17
-12 -31 -15 -14 -2 -20 -2 -13 0 16 6 12 43 -4 43 -17 0 -17 37 0 43 9 4 9 6
-1 6 -7 1 -15 -6 -18 -14 -5 -12 -10 -10 -26 8 -11 12 -17 16 -13 10 9 -18 -5
-16 -27 4 -12 11 -18 12 -18 3 0 -9 -6 -8 -23 3 -14 9 -29 12 -37 7 -10 -6 -8
-9 6 -13 20 -5 10 -7 -61 -12 -30 -2 -80 27 -68 39 3 3 -3 6 -15 6 -12 0 -31
9 -42 20 -11 11 -23 19 -27 18 -5 -2 -29 12 -55 30 -31 21 -45 37 -42 47 5 12
-2 15 -31 15 -29 0 -38 5 -42 20 -3 11 -10 20 -17 19 -23 -3 -37 1 -32 9 3 5
0 9 -7 9 -22 0 -67 35 -67 52 0 11 -3 12 -8 4 -5 -9 -30 3 -85 39 -42 28 -77
55 -77 59 0 5 -7 9 -15 9 -21 0 -151 89 -147 102 2 6 -3 8 -11 5 -11 -4 -113
57 -279 168 -21 14 -38 30 -38 36 0 5 -4 8 -9 4 -11 -6 -211 121 -211 135 0 6
-9 10 -19 10 -11 0 -26 9 -34 20 -8 12 -19 20 -24 18 -10 -4 -143 81 -143 92
0 3 -6 7 -13 7 -7 0 -58 29 -112 65 -180 117 -249 162 -285 181 -19 11 -66 41
-105 67 -138 93 -411 252 -549 320 -319 156 -501 189 -741 135 -192 -43 -377
-152 -516 -303 -73 -80 -182 -247 -244 -377 -29 -60 -53 -112 -52 -115 0 -3
-7 -19 -16 -36 -25 -48 -101 -313 -133 -461 -23 -110 -31 -133 -46 -133 -10 0
-18 -4 -18 -10 0 -5 8 -10 18 -10 13 0 14 -2 4 -9 -7 -4 -14 -20 -16 -34 -1
-15 -5 -29 -8 -32 -3 -3 -3 -29 -2 -58 2 -28 2 -47 -1 -41 -3 6 -22 10 -43 8
-20 -2 -31 -1 -25 2 9 4 10 11 3 23 -5 10 -6 21 -3 25 3 3 -1 6 -10 6 -10 0
-17 8 -17 18 -1 25 -27 55 -41 46 -9 -5 -11 -1 -7 14 5 16 2 20 -15 17 -19 -4
-20 -1 -14 118 6 122 15 165 81 372 45 143 49 154 56 150 4 -3 10 12 14 33 9
58 52 157 66 154 8 -2 10 3 6 13 -8 22 72 177 88 168 6 -3 8 -3 4 2 -9 10 13
54 66 130 63 90 80 110 201 230 155 155 290 243 506 329 216 85 411 118 709
119 201 1 276 -6 512 -43 122 -20 282 -55 301 -67 6 -4 20 -8 32 -9 78 -8 394
-104 667 -203 32 -12 65 -21 75 -21 27 1 -11 29 -277 209 -744 501 -1268 744
-1815 842 -112 21 -161 24 -360 23 -198 0 -244 -3 -328 -22 -255 -57 -517
-184 -681 -333 -103 -93 -245 -258 -320 -373 -72 -109 -176 -305 -211 -398
-10 -26 -21 -45 -26 -42 -5 3 -6 -1 -4 -8 3 -7 -5 -40 -18 -73 -13 -33 -43
-124 -67 -202 -26 -87 -47 -140 -53 -136 -7 4 -8 0 -4 -11 4 -10 -4 -62 -17
-115 -34 -135 -51 -236 -80 -466 -37 -289 -38 -298 -46 -285 -4 7 -8 53 -9
103 -1 50 -4 93 -7 96 -4 4 -8 -193 -5 -213 1 -5 -5 -6 -14 -3 -11 5 -15 -1
-16 -21 l-1 -27 -8 25 c-8 24 -8 24 -9 3 -1 -16 -7 -23 -22 -23 -11 0 -17 -5
-14 -10 4 -6 12 -8 18 -4 7 3 5 0 -4 -8 -9 -7 -14 -19 -12 -25 4 -10 -20 -13
-96 -13 -56 0 -101 -2 -101 -4 0 -17 14 -35 23 -29 6 3 7 1 3 -5 -4 -7 -18
-12 -32 -12 -15 0 -24 -6 -24 -16 0 -9 5 -12 12 -8 7 4 8 3 4 -4 -11 -19 -23
-14 -30 12 -3 13 -9 31 -12 40 -4 11 0 16 12 17 17 1 17 2 2 6 -17 4 -18 28
-20 291 -2 158 -2 319 0 357 6 197 116 713 204 960 56 158 183 405 282 550
231 339 537 573 916 703 144 49 240 71 388 87 151 16 183 17 327 5z m362 -415
c544 -72 1117 -329 1895 -850 91 -60 91 -65 2 -34 -101 35 -426 126 -546 153
-669 150 -1187 118 -1620 -99 -258 -130 -443 -302 -621 -575 -190 -293 -341
-754 -401 -1220 -58 -450 -45 -958 34 -1400 81 -447 276 -908 519 -1225 180
-235 438 -447 708 -579 327 -162 595 -220 1013 -220 358 0 663 47 1030 159 47
14 94 28 105 32 21 6 -113 -84 -255 -172 -645 -397 -1138 -570 -1620 -569
-256 1 -484 46 -745 147 -515 198 -898 553 -1159 1072 -182 364 -261 625 -361
1205 -44 258 -65 508 -72 885 -17 904 108 1689 359 2255 265 599 682 948 1235
1034 121 19 357 19 500 1z m488 -1109 c216 -75 469 -217 1010 -564 434 -278
579 -372 1385 -897 201 -131 513 -333 694 -449 380 -244 461 -310 491 -407 23
-72 14 -131 -26 -193 -53 -79 -97 -107 -869 -553 -441 -255 -1180 -684 -1575
-915 -737 -430 -858 -485 -1100 -495 -310 -13 -589 110 -855 377 -151 152
-231 265 -340 485 -204 413 -294 816 -307 1386 -11 454 44 896 152 1242 92
292 227 553 370 714 114 130 298 242 471 289 79 21 106 24 239 21 144 -3 154
-4 260 -41z m-2978 -981 c-1 -19 -5 -35 -9 -35 -5 0 -7 12 -4 28 2 15 5 30 5
35 1 4 3 7 5 7 2 0 3 -16 3 -35z m3 -74 c0 -11 -4 -23 -10 -26 -6 -4 -9 5 -8
19 3 30 18 35 18 7z m-5 -194 c-1 -204 -3 -249 -14 -243 -5 4 -12 0 -14 -6 -3
-7 -6 -4 -6 7 -1 16 -3 17 -10 6 -7 -10 -8 -2 -6 25 3 21 7 82 9 134 6 106 9
126 19 136 4 4 7 24 7 44 0 29 6 50 14 50 1 0 1 -69 1 -153z m118 -194 c-7 -2
-19 -2 -25 0 -7 3 -2 5 12 5 14 0 19 -2 13 -5z m-166 -100 c-3 -10 -5 -4 -5
12 0 17 2 24 5 18 2 -7 2 -21 0 -30z m7313 -42 c0 -11 6 -22 13 -24 6 -3 0 -6
-15 -6 -20 -1 -25 3 -23 17 2 9 4 20 4 25 2 16 21 6 21 -12z m-5993 -28 c-3
-10 -5 -4 -5 12 0 17 2 24 5 18 2 -7 2 -21 0 -30z m6093 -23 c0 -5 -8 -10 -17
-10 -15 0 -16 2 -3 10 19 12 20 12 20 0z m50 -45 c-7 -8 -16 -12 -21 -9 -13 8
-1 24 18 24 13 0 13 -3 3 -15z m-190 -9 c0 -3 -4 -8 -10 -11 -5 -3 -10 -1 -10
4 0 6 5 11 10 11 6 0 10 -2 10 -4z m90 -10 c0 -2 2 -10 5 -18 4 -9 -7 -14 -39
-16 -24 -1 -47 2 -50 7 -3 5 2 7 13 4 11 -3 21 2 24 11 5 14 47 24 47 12z
m-1410 -14 c0 -4 -11 -9 -25 -10 -14 -1 -25 3 -25 8 0 6 11 10 25 10 14 0 25
-4 25 -8z m360 -42 c0 -5 -2 -10 -4 -10 -3 0 -8 5 -11 10 -3 6 -1 10 4 10 6 0
11 -4 11 -10z m435 0 c3 -6 -1 -7 -9 -4 -18 7 -21 14 -7 14 6 0 13 -4 16 -10z
m168 -10 c-3 -12 -8 -19 -11 -16 -5 6 5 36 12 36 2 0 2 -9 -1 -20z m52 -9 c-6
-5 -25 10 -25 20 0 5 6 4 14 -3 8 -7 12 -15 11 -17z m412 23 c-3 -3 -12 -4
-19 -1 -8 3 -5 6 6 6 11 1 17 -2 13 -5z m56 -1 c-7 -2 -19 -2 -25 0 -7 3 -2 5
12 5 14 0 19 -2 13 -5z m-853 -23 c-19 -12 -30 -12 -30 -1 0 10 31 20 40 14 2
-2 -2 -8 -10 -13z m940 -24 c0 -3 -4 -8 -10 -11 -5 -3 -10 -1 -10 4 0 6 5 11
10 11 6 0 10 -2 10 -4z m87 -32 c-3 -3 -12 -4 -19 -1 -8 3 -5 6 6 6 11 1 17
-2 13 -5z m-1297 -61 c0 -7 -7 -13 -15 -13 -8 0 -15 6 -15 13 0 8 7 14 15 14
8 0 15 -6 15 -14z"/>
<path d="M11360 11956 c0 -2 7 -7 16 -10 8 -3 12 -2 9 4 -6 10 -25 14 -25 6z"/>
<path d="M11487 11949 c7 -7 15 -10 18 -7 3 3 -2 9 -12 12 -14 6 -15 5 -6 -5z"/>
<path d="M12386 11948 c3 -5 10 -6 15 -3 13 9 11 12 -6 12 -8 0 -12 -4 -9 -9z"/>
<path d="M12045 11940 c-4 -6 -11 -7 -17 -4 -7 4 -8 2 -4 -4 10 -16 23 -15 30
3 6 17 0 20 -9 5z"/>
<path d="M11665 11920 c-3 -6 1 -7 9 -4 18 7 21 14 7 14 -6 0 -13 -4 -16 -10z"/>
<path d="M11850 11920 c0 -5 5 -10 10 -10 6 0 10 5 10 10 0 6 -4 10 -10 10 -5
0 -10 -4 -10 -10z"/>
<path d="M11426 11872 c-3 -5 1 -9 9 -9 8 0 12 4 9 9 -3 4 -7 8 -9 8 -2 0 -6
-4 -9 -8z"/>
<path d="M12740 11870 c0 -5 5 -10 11 -10 5 0 7 5 4 10 -3 6 -8 10 -11 10 -2
0 -4 -4 -4 -10z"/>
<path d="M11420 11846 c0 -2 7 -7 16 -10 8 -3 12 -2 9 4 -6 10 -25 14 -25 6z"/>
<path d="M8184 13355 c-14 -22 -16 -199 -14 -1987 1 -1841 2 -1964 18 -1980
39 -40 69 -34 217 43 341 176 683 364 713 392 l32 31 0 1473 c0 1588 3 1511
-51 1559 -13 12 -172 106 -354 209 -181 103 -367 209 -411 236 -92 55 -126 61
-150 24z m219 -112 c109 -63 145 -88 135 -95 -10 -7 -8 -8 5 -4 18 6 101 -35
260 -128 49 -28 107 -62 130 -75 23 -13 44 -27 47 -30 3 -3 23 -15 45 -26 22
-11 50 -35 62 -54 l23 -34 -2 -371 -3 -370 -38 1 c-21 0 -41 3 -44 7 -3 3 -11
2 -17 -4 -7 -5 -33 -10 -59 -11 -40 -2 -46 -6 -42 -20 6 -18 -26 -36 -54 -30
-8 1 -10 -2 -5 -11 6 -10 5 -10 -7 -2 -8 6 -32 10 -54 10 -22 -1 -52 2 -67 6
-16 4 -28 2 -28 -3 0 -5 -10 -8 -22 -6 -13 2 -17 2 -10 0 6 -3 12 -9 12 -14 0
-6 4 -8 9 -4 5 3 12 1 16 -5 3 -5 -3 -10 -14 -10 -12 0 -21 6 -21 13 0 9 -2 9
-9 -1 -7 -11 -9 -11 -14 2 -4 11 -16 14 -39 11 -32 -4 -62 10 -53 26 3 4 -5 6
-17 4 -33 -7 -58 4 -58 23 0 14 -2 14 -9 3 -7 -11 -10 -10 -18 4 -7 11 -13 14
-17 7 -4 -6 -14 -8 -23 -5 -9 4 -19 -1 -25 -10 -5 -10 -17 -17 -26 -18 -14 0
-13 -2 3 -9 18 -8 17 -9 -7 -11 -16 -1 -37 -3 -48 -4 -11 -1 -24 -3 -30 -4 -5
0 -11 -9 -11 -18 -1 -17 -2 -17 -6 0 -2 9 -9 17 -15 17 -5 0 -8 7 -5 14 4 10
1 13 -8 10 -12 -5 -14 92 -15 644 0 357 2 657 6 666 9 22 10 21 187 -81z m625
-1208 c-3 -3 -9 2 -12 12 -6 14 -5 15 5 6 7 -7 10 -15 7 -18z m-546 -33 c-7
-2 -10 -8 -7 -12 3 -5 0 -12 -6 -16 -8 -4 -9 -3 -5 4 4 7 3 12 -2 12 -5 0 -9
6 -9 14 0 8 8 11 21 8 11 -3 15 -7 8 -10z m461 5 c3 -7 -3 -13 -14 -14 -12 -1
-16 3 -12 13 6 18 19 18 26 1z m152 -9 c5 -4 0 -6 -12 -6 -13 1 -19 7 -16 15
3 8 8 10 12 6 3 -4 10 -11 16 -15z m-560 2 c3 -6 -4 -10 -17 -10 -18 0 -20 2
-8 10 19 12 18 12 25 0z m485 0 c0 -5 -9 -10 -20 -10 -11 0 -20 5 -20 10 0 6
9 10 20 10 11 0 20 -4 20 -10z m-190 -30 c0 -5 -8 -10 -17 -10 -15 0 -16 2 -3
10 19 12 20 12 20 0z"/>
<path d="M8350 12040 c-13 -8 -12 -10 3 -10 9 0 17 5 17 10 0 12 -1 12 -20 0z"/>
<path d="M8620 12044 c0 -2 9 -8 20 -14 15 -8 18 -8 14 3 -4 11 -34 21 -34 11z"/>
<path d="M12077 15064 c-4 -4 -7 -27 -7 -51 l0 -43 -317 -2 -318 -3 -3 -342
-2 -343 -90 0 -89 0 -3 113 -3 112 -87 3 -88 3 0 -116 0 -115 -95 0 -95 0 0
130 0 130 35 0 35 0 0 160 0 160 -160 0 -160 0 0 -160 0 -160 35 0 35 0 0
-130 0 -130 -350 0 c-282 0 -350 -3 -350 -13 0 -7 125 -100 278 -207 539 -376
1593 -1124 2471 -1754 508 -364 658 -530 748 -823 24 -80 26 -103 27 -248 0
-199 -16 -265 -108 -450 -122 -243 -248 -367 -651 -640 -88 -60 -230 -157
-315 -215 -85 -59 -357 -244 -605 -410 -247 -167 -648 -438 -890 -602 -242
-163 -553 -373 -692 -465 -139 -92 -251 -172 -249 -178 2 -6 131 -11 354 -13
l352 -2 0 -135 0 -135 -45 0 -45 0 2 -162 3 -163 168 -3 167 -2 0 115 0 115
230 0 229 0 3 -157 3 -158 443 -3 c309 -1 442 1 442 8 0 6 5 8 10 5 7 -4 10
110 10 334 l0 341 360 0 360 0 2 108 2 107 6 -105 c4 -63 7 37 8 253 l2 357
224 0 225 0 3 -52 3 -53 185 0 185 0 0 180 0 180 -47 3 -48 3 0 225 0 224 360
0 360 0 0 355 0 355 90 0 90 0 0 -35 0 -35 150 0 150 0 0 155 0 155 -40 0 -40
0 0 65 0 65 328 2 327 3 3 433 2 432 -330 0 -330 0 0 75 0 75 40 0 40 0 0 155
0 156 -152 -3 -153 -3 -3 -32 -3 -33 -80 0 -79 0 0 239 0 240 43 3 42 3 0 173
0 174 -175 0 -175 0 -3 -46 -3 -46 -229 0 -230 0 -2 293 -3 292 -90 0 -90 0
-3 -127 -3 -128 -169 0 -170 0 0 -165 0 -165 -100 0 -100 0 0 285 0 286 68 -3
67 -3 3 -33 3 -33 142 3 142 3 0 145 0 145 -33 3 c-29 3 -33 6 -30 30 3 23 8
28 38 30 19 2 38 7 43 11 4 4 4 73 1 154 l-7 147 -159 0 -158 0 0 -154 0 -155
33 -3 c28 -3 32 -6 32 -33 0 -23 -5 -31 -22 -33 -15 -2 -23 -10 -23 -23 0 -17
-8 -19 -70 -19 l-70 0 0 54 c0 52 1 55 28 58 l27 3 0 135 0 135 -147 3 -148 3
0 -141 0 -140 30 0 c30 0 30 -1 30 -55 l0 -55 -90 0 -89 0 -3 128 -3 127 -85
0 -85 0 -3 -127 -3 -128 -99 0 -100 0 0 590 0 590 40 0 40 0 -2 183 -3 182
-166 3 c-91 1 -168 -1 -172 -4z m10 -61 c-3 -10 -5 -2 -5 17 0 19 2 27 5 18 2
-10 2 -26 0 -35z m301 -120 l3 -142 -43 -3 -43 -3 -3 -627 -2 -628 140 0 140
0 0 125 0 125 50 0 50 0 0 -125 0 -125 130 0 131 0 -3 93 -3 92 -27 3 -28 3 0
105 0 104 110 0 110 0 0 -105 0 -105 -30 0 -30 0 0 -95 0 -95 104 0 c101 0
105 1 108 23 2 14 11 23 26 25 19 3 22 10 24 53 1 27 2 57 2 67 1 12 -8 18
-31 20 l-33 3 0 115 0 114 125 0 125 0 0 -115 0 -115 -40 0 -40 0 0 -70 0 -70
30 0 30 0 0 -110 0 -110 -105 0 -105 0 0 30 0 30 -110 0 -110 0 0 -320 0 -320
140 0 140 0 0 165 0 165 173 2 172 3 3 128 3 127 49 0 50 0 0 -295 0 -295 270
0 270 0 0 48 0 47 138 0 137 0 -1 -25 c-1 -14 -2 -76 -3 -137 l-1 -113 -40 0
-40 0 0 -280 0 -280 64 0 c34 0 78 -5 95 -11 24 -9 35 -9 44 0 6 6 19 11 29
11 14 0 18 8 18 41 0 33 3 40 16 35 9 -3 58 -6 110 -6 l94 0 0 -113 c0 -110
-1 -113 -22 -114 -57 -1 -58 -2 -58 -39 0 -22 -4 -33 -10 -29 -23 14 -40 -17
-40 -72 0 -46 -3 -54 -17 -51 -15 3 -18 17 -21 90 -2 73 -6 89 -21 98 -10 5
-21 6 -25 3 -3 -3 -6 10 -6 30 0 20 -4 37 -10 37 -5 0 -10 5 -10 11 0 5 6 7
13 4 6 -4 5 -1 -3 7 -8 7 -15 19 -16 26 -3 33 -4 35 -18 23 -7 -6 -28 -9 -47
-6 -26 4 -30 3 -14 -4 11 -5 14 -10 8 -10 -7 -1 -13 -10 -13 -22 0 -13 4 -18
12 -13 6 4 8 3 5 -3 -4 -6 -38 -13 -77 -15 -39 -3 -72 -7 -74 -9 -4 -3 -14
-166 -16 -235 0 -17 -5 -20 -30 -16 -19 3 -30 0 -30 -7 0 -7 -5 -9 -10 -6 -6
4 -10 12 -8 18 2 10 -11 141 -17 172 -1 6 -3 24 -3 41 l-2 32 -122 6 c-163 7
-163 7 -136 34 9 9 8 12 -5 12 -9 0 -17 -4 -17 -10 0 -5 -4 -10 -9 -10 -5 0
-7 9 -4 20 3 11 9 17 14 14 5 -3 6 2 3 10 -3 9 -5 17 -3 17 2 1 67 5 144 8
l140 6 -1 275 -1 275 -41 3 c-42 3 -42 3 -42 43 l0 39 -270 0 -270 0 0 -125 0
-125 135 0 135 0 0 -45 0 -45 -134 0 -134 0 -5 -27 c-3 -16 -6 -81 -6 -146 -2
-88 1 -118 11 -121 13 -5 141 -15 188 -16 19 0 22 -2 10 -9 -8 -6 -18 -7 -22
-5 -4 3 -8 -2 -8 -10 0 -9 -5 -16 -11 -16 -8 0 -8 -4 0 -14 17 -21 2 -27 -83
-33 l-73 -6 -7 -60 c-3 -33 -6 -85 -6 -116 -1 -50 -2 -54 -14 -38 -14 18 -15
18 -25 0 -8 -14 -11 -15 -11 -3 0 12 -3 11 -11 -2 -21 -38 -28 -14 -31 105
l-3 122 -57 3 c-57 3 -58 4 -58 32 0 16 -4 32 -10 35 -5 3 -10 1 -10 -6 0 -10
-3 -10 -11 -2 -6 6 -8 16 -5 22 9 15 34 3 41 -20 4 -11 11 -17 16 -13 7 4 6
10 0 18 -7 8 -4 12 12 13 12 1 36 5 54 8 31 6 32 7 35 63 2 31 2 96 0 145 l-3
87 -175 0 -174 0 0 175 0 175 -140 0 -140 0 2 -177 3 -177 65 -45 c36 -24 109
-89 163 -143 80 -79 104 -98 128 -98 25 0 29 -4 29 -26 0 -19 -4 -25 -15 -20
-8 3 -19 -3 -25 -13 -6 -13 -18 -17 -39 -15 -25 3 -29 1 -24 -14 6 -15 3 -14
-16 3 -17 15 -21 27 -17 47 3 16 1 28 -4 28 -10 0 -14 -15 -10 -35 1 -5 -10 1
-25 15 -14 13 -21 26 -16 28 6 2 11 8 11 14 0 5 -8 7 -19 3 -26 -8 -165 109
-170 144 -3 21 -5 23 -10 8 -6 -16 -14 -12 -69 30 -40 30 -62 54 -62 68 0 15
-3 17 -9 7 -12 -19 -200 115 -200 142 -1 15 -4 17 -12 9 -8 -8 -27 0 -70 30
-32 23 -58 48 -58 55 -1 7 -5 10 -11 7 -17 -10 -530 360 -530 383 0 11 -3 13
-8 6 -7 -11 -229 136 -262 173 -9 10 -21 19 -27 20 -7 2 -95 62 -197 135 -102
73 -238 171 -303 217 -119 85 -414 293 -548 386 -350 243 -584 410 -578 412 5
2 148 4 318 5 l310 3 0 165 0 165 -37 3 -38 3 0 120 0 119 130 0 131 0 -3
-122 -3 -122 -35 -1 -35 0 0 -165 0 -165 128 -1 127 0 0 118 0 118 55 0 54 0
3 -117 3 -118 125 0 125 0 3 343 2 342 315 0 315 0 0 43 c0 24 3 47 7 51 4 3
68 5 142 4 l136 -3 3 -142z m-935 57 c-3 -12 -8 -19 -11 -16 -5 6 5 36 12 36
2 0 2 -9 -1 -20z m587 10 c0 -6 -23 -9 -52 -8 l-53 1 45 7 c25 4 48 8 53 8 4
1 7 -2 7 -8z m-1323 -686 c-3 -3 -12 -4 -19 -1 -8 3 -5 6 6 6 11 1 17 -2 13
-5z m2536 -341 c-7 -2 -19 -2 -25 0 -7 3 -2 5 12 5 14 0 19 -2 13 -5z m155 0
c-21 -2 -55 -2 -75 0 -21 2 -4 4 37 4 41 0 58 -2 38 -4z m100 -140 c-2 -149
-5 -131 -10 50 -2 53 0 97 5 97 4 0 6 -66 5 -147z m-600 -140 c-10 -2 -26 -2
-35 0 -10 3 -2 5 17 5 19 0 27 -2 18 -5z m200 0 c-10 -2 -26 -2 -35 0 -10 3
-2 5 17 5 19 0 27 -2 18 -5z m160 0 c-10 -2 -26 -2 -35 0 -10 3 -2 5 17 5 19
0 27 -2 18 -5z m-5 -100 c-16 -3 -23 -11 -23 -29 0 -23 -3 -24 -57 -22 l-58 2
53 3 c48 4 52 6 52 29 0 20 5 24 28 23 23 -2 24 -2 5 -6z m-40 -190 c-7 -2
-19 -2 -25 0 -7 3 -2 5 12 5 14 0 19 -2 13 -5z m1064 -555 c-2 -13 -4 -5 -4
17 -1 22 1 32 4 23 2 -10 2 -28 0 -40z m3 -38 c0 -5 -19 -9 -42 -9 l-43 2 40
7 c22 4 41 8 43 9 1 0 2 -3 2 -9z m-377 -7 c-24 -2 -62 -2 -85 0 -24 2 -5 4
42 4 47 0 66 -2 43 -4z m24 -149 c-3 -3 -12 -4 -19 -1 -8 3 -5 6 6 6 11 1 17
-2 13 -5z m-655 -186 l3 -173 168 -3 167 -2 0 -105 0 -105 -112 0 -111 0 -96
93 c-53 51 -124 112 -158 136 l-63 44 0 143 0 144 100 0 100 0 2 -172z m988
132 l0 -40 40 0 40 0 0 -240 0 -240 -270 0 -270 0 0 105 0 105 140 0 141 0 -3
88 -3 87 -137 3 -138 3 0 84 0 85 230 0 230 0 0 -40z m-713 -536 c-3 -3 -12
-4 -19 -1 -8 3 -5 6 6 6 11 1 17 -2 13 -5z m61 -1 c-10 -2 -26 -2 -35 0 -10 3
-2 5 17 5 19 0 27 -2 18 -5z m605 0 c-79 -2 -207 -2 -285 0 -79 1 -15 3 142 3
157 0 221 -2 143 -3z m445 0 c-27 -2 -69 -2 -95 0 -27 2 -5 3 47 3 52 0 74 -1
48 -3z m-1201 -38 c0 -8 -4 -15 -8 -15 -11 0 -20 16 -12 24 11 11 20 7 20 -9z
m36 -9 c3 -8 0 -17 -8 -20 -9 -3 -13 2 -12 15 2 22 13 25 20 5z m569 5 c-12
-7 -62 -4 -62 5 0 2 17 4 38 4 23 0 32 -3 24 -9z m643 -21 c-3 -5 -12 -10 -18
-10 -7 0 -6 4 3 10 19 12 23 12 15 0z m-1085 -182 c0 -45 -2 -79 -4 -77 -2 2
-22 39 -44 82 l-40 77 44 0 44 0 0 -82z m720 -23 l0 -105 -185 0 -185 0 0
-170 0 -170 -85 0 -85 0 0 275 0 275 270 0 270 0 0 -105z m350 75 c0 -17 6
-31 13 -32 6 0 19 -1 27 -2 13 -1 15 -27 18 -164 l2 -162 125 0 125 0 0 -80 0
-80 -240 0 -240 0 0 275 0 275 85 0 85 0 0 -30z m-1144 -91 c24 -50 42 -94 39
-99 -3 -6 -23 -13 -44 -16 -33 -5 -38 -9 -34 -28 2 -11 -9 10 -26 49 -17 38
-31 75 -31 82 0 7 -4 13 -10 13 -5 0 -7 7 -4 15 4 8 10 12 15 9 5 -3 5 6 -1
21 -9 23 -8 25 14 19 22 -5 24 -3 19 17 -12 46 18 6 63 -82z m884 -150 c0 -10
-4 -19 -10 -19 -5 0 -9 11 -8 24 3 28 18 24 18 -5z m400 -31 c0 -31 -4 -38
-20 -38 -16 0 -20 7 -20 35 0 19 5 35 10 35 6 0 10 8 10 18 0 14 2 15 10 2 5
-8 10 -32 10 -52z m-440 26 l0 -25 -180 2 c-176 1 -180 2 -174 21 4 14 2 18
-5 14 -6 -4 -11 -2 -11 3 0 7 61 11 185 11 l185 0 0 -26z m1150 17 c0 -41 2
-41 -316 -41 l-304 0 0 25 0 25 310 0 c182 0 310 -4 310 -9z m-1073 -17 c-3
-3 -12 -4 -19 -1 -8 3 -5 6 6 6 11 1 17 -2 13 -5z m481 -54 c21 -6 17 -8 -23
-7 -27 0 -42 2 -32 5 9 2 14 8 11 14 -5 7 -2 8 5 3 7 -4 25 -11 39 -15z m-598
-140 l0 -80 -105 0 -105 0 0 80 0 80 105 0 105 0 0 -80z m1060 0 l0 -80 -120
0 -120 0 0 80 0 80 120 0 120 0 0 -80z m-984 51 c-3 -5 1 -11 9 -15 17 -6 20
-26 4 -26 -5 0 -7 5 -4 10 3 6 -1 10 -9 10 -17 0 -21 12 -9 23 9 10 15 9 9 -2z
m34 -64 c0 -8 -6 -14 -14 -14 -8 0 -12 6 -9 14 3 7 9 13 14 13 5 0 9 -6 9 -13z
m18 -26 c-2 -26 -5 -28 -25 -20 -17 6 -21 5 -17 -5 5 -12 -24 -32 -32 -23 -9
9 30 48 43 43 9 -4 17 1 20 14 8 29 14 24 11 -9z m-508 -301 l0 -80 -30 0 -30
0 0 -104 0 -105 28 -3 c27 -3 27 -4 30 -85 l3 -83 -86 0 -85 0 0 270 0 270 85
0 85 0 0 -80z m378 -192 l-3 -273 -102 -3 -103 -3 0 91 c0 89 0 90 25 90 l25
0 0 105 0 105 -25 0 c-25 0 -25 1 -25 80 l0 80 105 0 105 0 -2 -272z m652 187
l0 -85 -125 0 -125 0 0 -155 0 -155 -25 0 c-21 0 -25 -5 -25 -29 l0 -30 -86
-3 c-47 -2 -88 -1 -90 1 -2 2 -4 125 -4 273 l0 268 240 0 240 0 0 -85z m410 0
l0 -85 -120 0 -120 0 0 85 0 85 120 0 120 0 0 -85z m-1790 -355 l0 -100 -55 0
c-55 0 -67 8 -42 28 7 6 30 47 52 91 21 45 40 81 42 81 2 0 3 -45 3 -100z m0
-370 l0 -90 -187 -2 -188 -3 -3 -177 -2 -178 -85 0 -85 0 0 133 0 133 88 71
c48 39 114 100 147 135 l60 66 128 1 127 1 0 -90z m350 0 l0 -90 -85 0 -85 0
0 90 0 90 85 0 85 0 0 -90z m380 -180 l0 -270 -275 0 -275 0 0 90 0 90 168 2
167 3 3 178 2 177 105 0 105 0 0 -270z m-730 -180 l0 -90 -100 0 -100 0 0 90
0 90 100 0 100 0 0 -90z m-730 -15 l0 -75 -110 0 -110 0 107 74 c60 41 109 75
111 75 1 1 2 -33 2 -74z m0 -330 l0 -85 -135 0 -135 0 0 -90 0 -90 135 0 135
0 0 -90 0 -90 -280 0 -280 0 0 235 0 235 47 30 47 30 233 0 233 0 0 -85z m350
0 l0 -85 -85 0 -85 0 0 85 0 85 85 0 85 0 0 -85z m380 -139 l0 -225 -47 -3
c-48 -3 -48 -3 -51 -40 l-3 -38 -225 0 -224 0 0 90 0 90 173 2 172 3 3 173 2
172 100 0 100 0 0 -224z m-1483 -303 c-2 -2 -113 -2 -247 -1 l-242 3 203 139
c112 77 222 152 244 168 l40 29 3 -167 c1 -92 1 -169 -1 -171z m20 255 c-3 -7
-5 -2 -5 12 0 14 2 19 5 13 2 -7 2 -19 0 -25z m0 -50 c-3 -7 -5 -2 -5 12 0 14
2 19 5 13 2 -7 2 -19 0 -25z m0 -175 c-2 -21 -4 -6 -4 32 0 39 2 55 4 38 2
-18 2 -50 0 -70z m1630 60 c-3 -10 -5 -4 -5 12 0 17 2 24 5 18 2 -7 2 -21 0
-30z m100 -290 c-1 -49 -3 -9 -3 87 0 96 2 136 3 88 2 -49 2 -127 0 -175z
m-2467 -73 l0 -110 -125 0 -125 0 0 -85 0 -85 125 0 125 0 0 -85 0 -85 -260 0
-260 0 0 110 0 110 258 170 c141 93 258 170 260 170 1 0 2 -49 2 -110z m740
-185 l0 -285 -282 2 -283 3 278 2 277 3 0 280 c0 154 2 280 5 280 3 0 5 -128
5 -285z m-20 5 l0 -270 -270 0 -270 0 0 270 0 270 270 0 270 0 0 -270z m750 0
l0 -270 -100 0 -99 0 -4 148 -3 147 -2 -152 -2 -152 108 -4 107 -3 -112 -2
-113 -2 0 160 0 161 -87 -3 -88 -3 -3 -147 -3 -148 -79 0 -80 0 0 270 0 270
280 0 280 0 0 -270z m167 7 c-1 -45 -3 -5 -3 88 0 94 2 130 3 82 2 -48 2 -125
0 -170z m-550 -154 c-2 -32 -3 -8 -3 52 0 61 1 87 3 58 2 -29 2 -78 0 -110z
m-1797 -78 l0 -45 -67 0 -68 0 65 44 c36 25 66 45 68 45 1 1 2 -19 2 -44z
m2347 3 c-3 -8 -6 -5 -6 6 -1 11 2 17 5 13 3 -3 4 -12 1 -19z m-647 -58 c84 0
89 1 93 23 4 19 4 18 6 -5 l1 -28 -100 0 -100 0 1 28 c2 23 2 24 6 5 4 -22 9
-23 93 -23z m-1732 -7 c-21 -2 -55 -2 -75 0 -21 2 -4 4 37 4 41 0 58 -2 38 -4z
m615 0 c-72 -2 -194 -2 -270 0 -76 1 -16 3 132 3 149 0 211 -2 138 -3z m864
-565 c-1 -79 -3 -17 -3 137 0 154 2 218 3 143 2 -75 2 -201 0 -280z m-737 307
l0 -95 -265 0 -265 0 0 95 0 95 265 0 265 0 0 -95z m720 -165 l0 -260 -110 0
-110 0 -2 163 -3 162 -157 3 -158 3 0 94 0 95 270 0 270 0 0 -260z m-832 -97
c-65 -2 -171 -2 -235 0 -65 1 -12 3 117 3 129 0 182 -2 118 -3z m400 0 c-21
-2 -57 -2 -80 0 -24 2 -7 4 37 4 44 0 63 -2 43 -4z m32 -88 l0 -75 -70 0 -70
0 0 75 0 75 70 0 70 0 0 -75z"/>
<path d="M11570 14537 l0 -294 313 1 312 1 0 245 0 245 -48 3 -48 3 3 42 3 42
-92 3 -93 3 0 -136 0 -135 -50 0 -50 0 0 135 0 135 -125 0 -125 0 0 -293z m47
277 c-3 -3 -12 -4 -19 -1 -8 3 -5 6 6 6 11 1 17 -2 13 -5z m176 -1 c-7 -2 -21
-2 -30 0 -10 3 -4 5 12 5 17 0 24 -2 18 -5z m292 -3 c3 -6 -1 -7 -9 -4 -18 7
-21 14 -7 14 6 0 13 -4 16 -10z m-359 -20 l54 0 0 -135 0 -135 90 0 90 0 0
135 0 135 55 0 55 0 0 -45 0 -45 45 0 45 0 0 -210 0 -210 -275 0 -275 0 0 261
0 262 31 -7 c17 -3 56 -6 85 -6z"/>
<path d="M10461 14122 c13 -10 82 -58 153 -107 l129 -88 -6 59 c-4 33 -6 80
-7 107 l0 47 -146 0 c-144 0 -146 0 -123 -18z m239 -73 l0 -50 -67 47 c-38 26
-70 49 -72 51 -2 2 28 3 67 3 l72 0 0 -51z m17 -26 c-3 -10 -5 -4 -5 12 0 17
2 24 5 18 2 -7 2 -21 0 -30z"/>
<path d="M10840 13998 l1 -143 52 -36 c29 -19 163 -113 299 -207 136 -95 255
-175 263 -178 13 -5 15 18 15 175 l0 181 -179 0 -178 0 -7 61 c-3 34 -6 113
-6 175 l0 114 -130 0 -130 0 0 -142z m230 -73 l0 -175 180 0 180 0 0 -126 c0
-79 -4 -124 -10 -122 -6 2 -129 86 -274 188 l-265 185 0 113 -1 112 95 0 95 0
0 -175z"/>
<path d="M11210 14015 l0 -126 128 3 127 3 3 123 3 122 -131 0 -130 0 0 -125z
m220 0 l0 -85 -90 0 -90 0 0 85 0 85 90 0 90 0 0 -85z"/>
<path d="M11570 13810 l0 -330 135 0 135 0 0 170 0 170 180 0 180 0 0 160 0
160 -315 0 -315 0 0 -330z m590 170 l0 -120 -175 0 -175 0 0 -170 0 -170 -100
0 -100 0 0 290 0 290 275 0 275 0 0 -120z"/>
<path d="M11940 13600 l0 -120 130 0 130 0 0 120 0 120 -130 0 -130 0 0 -120z
m218 -2 l3 -78 -91 0 -90 0 0 73 c0 41 3 77 7 81 4 4 43 5 88 4 l80 -3 3 -77z
m-45 -105 c-13 -2 -33 -2 -45 0 -13 2 -3 4 22 4 25 0 35 -2 23 -4z"/>
<path d="M11570 13361 c0 -11 70 -69 150 -126 30 -22 70 -50 88 -63 l32 -24 0
111 0 111 -135 0 c-74 0 -135 -4 -135 -9z m230 -82 c0 -37 -3 -48 -12 -43 -23
14 -118 86 -118 90 0 2 29 4 65 4 l65 0 0 -51z m27 -56 c-2 -16 -4 -5 -4 22 0
28 2 40 4 28 2 -13 2 -35 0 -50z"/>
<path d="M11940 13222 l0 -148 117 -85 c64 -46 122 -88 130 -92 11 -7 13 34
13 233 l0 240 -130 0 -130 0 0 -148z m217 132 c-3 -3 -12 -4 -19 -1 -8 3 -5 6
6 6 11 1 17 -2 13 -5z m3 -205 c0 -99 -4 -179 -8 -177 -4 2 -45 30 -90 62
l-82 60 0 118 0 118 90 0 90 0 0 -181z"/>
<path d="M12300 13091 l0 -280 56 -40 56 -40 264 -1 264 0 0 320 0 320 -130 0
-130 0 0 -135 0 -135 -50 0 -50 0 0 135 0 135 -140 0 -140 0 0 -279z m78 262
c-10 -2 -26 -2 -35 0 -10 3 -2 5 17 5 19 0 27 -2 18 -5z m164 -155 l3 -133 85
0 85 0 3 133 3 132 89 0 90 0 0 -280 0 -280 -236 0 -235 0 -45 30 -44 31 0
249 0 250 100 0 99 0 3 -132z m-35 -444 c-3 -3 -12 -4 -19 -1 -8 3 -5 6 6 6
11 1 17 -2 13 -5z m66 -1 c-7 -2 -21 -2 -30 0 -10 3 -4 5 12 5 17 0 24 -2 18
-5z m80 0 c-7 -2 -21 -2 -30 0 -10 3 -4 5 12 5 17 0 24 -2 18 -5z m215 0 c-26
-2 -71 -2 -100 0 -29 2 -8 3 47 3 55 0 79 -1 53 -3z"/>
<path d="M13420 12845 l0 -116 123 3 122 3 3 113 3 112 -126 0 -125 0 0 -115z
m200 0 l0 -75 -80 0 -80 0 0 75 0 75 80 0 80 0 0 -75z m-27 -92 c-29 -2 -77
-2 -105 0 -29 2 -6 3 52 3 58 0 81 -1 53 -3z"/>
<path d="M12594 12607 c16 -12 95 -71 175 -131 80 -60 152 -113 159 -119 9 -7
12 20 12 132 l0 141 -187 -1 -188 0 29 -22z m239 -4 c-13 -2 -33 -2 -45 0 -13
2 -3 4 22 4 25 0 35 -2 23 -4z m67 -93 l0 -81 -102 77 c-57 43 -105 79 -107
81 -2 1 44 3 102 3 l107 0 0 -80z"/>
<path d="M13420 12505 l0 -125 125 0 125 0 0 125 0 125 -125 0 -125 0 0 -125z
m178 98 c-26 -2 -71 -2 -100 0 -29 2 -8 3 47 3 55 0 79 -1 53 -3z m22 -98 l0
-85 -80 0 -80 0 0 85 0 85 80 0 80 0 0 -85z"/>
<path d="M14766 12009 c4 -7 27 -10 60 -7 l53 5 4 -61 3 -61 2 68 2 67 -66 0
c-45 0 -63 -3 -58 -11z"/>
<path d="M13545 11690 c3 -5 8 -10 11 -10 2 0 4 5 4 10 0 6 -5 10 -11 10 -5 0
-7 -4 -4 -10z"/>
<path d="M14851 6677 c-50 -16 -117 -84 -130 -132 -23 -85 -3 -180 48 -229 18
-17 27 -34 24 -46 -7 -25 24 -79 50 -90 18 -7 13 -9 -23 -9 -26 -1 -51 -6 -58
-13 -9 -9 -12 -158 -12 -610 l0 -599 30 -17 c16 -9 30 -24 30 -33 0 -8 14 -28
31 -45 26 -25 38 -29 88 -29 45 0 66 6 94 25 21 14 40 34 43 46 3 12 18 24 37
30 l32 9 3 604 c1 438 -1 608 -9 617 -6 8 -30 14 -55 14 l-43 0 30 32 c16 18
29 43 29 56 0 13 12 34 29 47 45 39 74 118 68 187 -7 80 -42 137 -105 171 -42
23 -61 27 -123 26 -41 -1 -89 -6 -108 -12z m214 -52 l30 -19 -40 -12 c-22 -7
-67 -13 -100 -14 l-60 -2 50 -9 c28 -5 78 -7 113 -5 74 4 82 -4 82 -86 0 -64
-25 -116 -67 -140 -44 -26 -208 -28 -245 -4 -45 29 -71 81 -71 140 0 79 13 96
76 97 l52 1 -43 10 c-38 8 -42 11 -30 25 25 31 71 43 148 41 55 -2 84 -8 105
-23z"/>
<path d="M14123 6592 c-12 -8 -22 -182 -23 -370 l0 -122 -23 15 c-87 57 -295
81 -437 51 -115 -24 -193 -68 -281 -155 -129 -129 -179 -257 -179 -462 0 -121
20 -232 59 -323 12 -27 22 -60 24 -74 1 -14 13 -37 27 -51 15 -14 43 -53 64
-85 21 -33 44 -66 52 -73 8 -8 14 -18 14 -23 0 -5 23 -21 50 -36 28 -15 50
-34 50 -42 0 -9 3 -13 6 -9 3 3 26 -6 52 -20 43 -24 53 -25 181 -24 146 1 168
4 200 20 34 19 133 23 201 10 76 -14 162 -18 171 -6 3 4 15 9 27 10 19 1 70
71 64 90 -1 4 7 7 19 7 11 0 29 5 40 10 19 10 19 30 19 830 0 644 -3 820 -12
827 -16 9 -351 14 -365 5z m292 -85 c0 -26 3 -47 8 -47 4 0 7 23 7 51 0 36 4
49 13 46 14 -4 18 -136 8 -247 l-6 -65 -8 43 c-7 40 -27 60 -27 27 0 -12 -4
-13 -18 -6 -24 13 -99 2 -106 -15 -3 -8 1 -14 9 -14 7 0 16 -4 19 -8 2 -4 -12
-7 -32 -5 -34 3 -32 -1 6 -13 19 -6 -10 -34 -35 -34 -15 0 -16 2 -3 10 11 7
12 10 2 10 -7 0 -20 -7 -29 -15 -8 -8 -19 -12 -25 -9 -6 4 -8 2 -4 -4 3 -6 2
-13 -4 -17 -5 -3 -10 0 -10 7 0 11 -2 10 -9 0 -16 -26 -21 17 -21 189 l0 170
133 -3 132 -3 0 -48z m-598 -373 c-3 -3 -12 -4 -19 -1 -8 3 -5 6 6 6 11 1 17
-2 13 -5z m181 -485 c16 -13 40 -40 53 -59 13 -19 30 -40 38 -46 20 -15 10
-101 -18 -155 -30 -58 -63 -91 -114 -117 -131 -65 -279 -17 -341 111 -28 57
-39 148 -19 154 7 3 17 21 24 41 20 62 65 90 160 100 103 10 181 0 217 -29z"/>
<path d="M14160 6241 c0 -5 5 -13 10 -16 6 -3 10 -2 10 4 0 5 -4 13 -10 16 -5
3 -10 2 -10 -4z"/>
<path d="M3789 6520 c-93 -11 -210 -45 -278 -80 -85 -43 -199 -131 -259 -203
-138 -161 -189 -328 -180 -583 6 -151 24 -226 80 -338 16 -32 31 -68 33 -78 3
-11 13 -34 24 -51 12 -18 35 -60 52 -95 32 -62 41 -74 109 -129 53 -44 91 -68
130 -82 19 -8 51 -20 70 -29 19 -9 42 -17 50 -18 8 -2 22 -11 30 -21 19 -24
139 -42 270 -42 97 0 250 25 250 41 0 5 5 6 10 3 6 -3 10 -2 10 3 0 10 66 40
139 62 24 8 65 33 91 57 26 24 51 43 56 43 20 0 76 78 90 126 8 30 31 72 50
95 19 22 34 46 34 51 0 6 15 49 34 97 47 117 66 219 66 350 0 324 -138 572
-403 725 -136 78 -376 119 -558 96z m344 -58 c131 -38 109 -42 -168 -37 -143
2 -276 8 -295 13 l-35 8 45 12 c131 36 334 38 453 4z m192 -79 c22 -12 49 -29
60 -37 19 -15 19 -16 -9 -6 -16 6 -35 9 -43 6 -7 -3 -13 2 -14 12 -1 16 -2 16
-6 0 -2 -10 -9 -18 -14 -18 -6 0 -7 -5 -4 -10 4 -6 11 -8 16 -5 5 4 9 1 9 -4
0 -15 -12 -14 -40 6 l-25 17 19 -23 c20 -22 20 -22 0 -15 -16 7 -17 5 -7 -7
10 -13 10 -16 -2 -16 -8 0 -15 6 -15 14 0 18 -31 16 -60 -4 -16 -12 -25 -13
-28 -5 -2 8 -11 7 -28 -4 -13 -9 -24 -13 -24 -9 0 4 -6 2 -13 -4 -21 -17 -97
-41 -97 -31 0 5 -7 7 -15 4 -8 -3 -17 0 -20 8 -7 16 -13 18 -105 21 -50 1 -65
5 -65 17 0 11 -12 15 -45 17 -55 2 -73 -3 -64 -18 5 -8 8 -8 14 0 5 9 11 7 20
-4 7 -9 9 -15 4 -14 -20 3 -68 -3 -56 -8 20 -8 14 -22 -8 -18 -22 4 -25 -2
-10 -25 8 -13 10 -12 10 3 0 10 5 15 10 12 6 -3 13 1 16 9 7 19 30 21 40 4 4
-6 3 -8 -4 -4 -6 3 -13 2 -17 -3 -6 -10 29 -34 37 -25 3 2 11 -4 19 -13 7 -10
10 -15 5 -11 -4 3 -37 -8 -72 -26 l-64 -33 -23 20 c-16 15 -17 19 -4 14 18 -7
24 8 7 18 -6 4 -8 11 -5 16 4 5 1 9 -4 9 -6 0 -11 -5 -11 -11 0 -5 -5 -7 -11
-3 -15 9 2 25 30 27 15 1 19 6 15 19 -3 10 -1 18 5 18 6 0 11 4 11 10 0 5 -7
7 -17 3 -13 -5 -15 -2 -11 14 4 16 1 21 -16 21 -22 0 -51 -43 -40 -59 8 -13
-10 -11 -24 3 -9 9 -12 9 -12 0 0 -7 -5 -12 -11 -12 -5 0 -7 5 -3 12 4 7 3 8
-5 4 -9 -6 -9 -11 0 -23 10 -12 10 -16 -2 -24 -8 -5 -20 -7 -26 -4 -7 2 -13 0
-13 -4 0 -5 6 -12 13 -14 9 -4 9 -6 0 -6 -6 -1 -14 3 -18 8 -3 6 -17 6 -35 1
-19 -5 -30 -5 -30 1 0 6 -4 7 -10 4 -5 -3 -10 -4 -10 0 0 3 10 10 23 15 22 9
22 9 -3 11 -14 1 -28 1 -32 0 -5 0 -8 4 -8 10 0 6 6 9 13 6 8 -3 12 6 11 29
-2 40 12 54 104 102 l70 37 368 0 c357 -1 370 -1 409 -22z m122 -85 c13 -12
23 -30 23 -40 0 -11 7 -18 18 -18 23 0 68 -45 53 -54 -5 -4 -12 -3 -14 2 -3 4
-21 7 -41 6 -19 -1 -35 1 -34 5 4 15 -14 51 -24 45 -5 -4 -3 5 6 19 16 24 16
26 -6 41 -12 9 -18 16 -13 16 5 0 19 -10 32 -22z m-846 -53 c5 4 9 1 9 -4 0
-6 -8 -11 -18 -11 -10 0 -23 -5 -30 -12 -9 -9 -15 -9 -23 -1 -8 8 -6 11 7 10
13 -2 20 6 22 23 3 21 5 22 14 7 5 -10 13 -15 19 -12z m373 -235 c56 -7 101
-18 121 -30 18 -11 40 -21 51 -23 32 -4 57 -29 117 -111 39 -55 58 -93 63
-122 14 -93 -36 -248 -105 -326 -102 -116 -287 -167 -439 -120 -144 45 -237
146 -277 299 -30 114 -20 159 60 263 23 30 45 65 49 76 11 34 75 71 151 88 87
18 99 18 209 6z"/>
<path d="M3525 6351 c-3 -5 -1 -13 5 -16 8 -5 7 -11 -1 -21 -10 -12 -9 -13 5
-8 18 7 21 20 6 29 -6 4 -8 11 -5 16 4 5 4 9 1 9 -3 0 -7 -4 -11 -9z"/>
<path d="M3657 6304 c-8 -8 1 -24 12 -24 4 0 8 7 8 15 0 16 -9 20 -20 9z"/>
<path d="M9948 6516 c-160 -29 -273 -83 -367 -177 -124 -124 -157 -357 -75
-521 13 -26 24 -58 24 -70 0 -33 71 -149 97 -159 12 -4 31 -17 43 -29 11 -11
41 -29 67 -41 27 -11 62 -27 78 -35 46 -21 114 -45 176 -59 48 -12 199 -79
267 -119 23 -13 23 -14 -25 -37 -37 -18 -69 -24 -144 -27 -130 -6 -228 19
-387 99 -67 33 -128 59 -135 56 -15 -6 -127 -250 -127 -277 0 -20 34 -52 103
-95 42 -27 44 -30 40 -67 -4 -24 -1 -44 8 -55 28 -33 116 -80 174 -92 33 -7
78 -17 100 -21 42 -9 222 -24 265 -23 81 3 151 17 181 36 19 11 41 22 49 23 8
2 43 17 78 35 107 53 202 164 202 235 0 6 13 35 30 65 45 83 63 169 57 264 -9
146 -69 248 -190 326 -80 52 -140 73 -365 129 -249 63 -275 78 -203 127 45 30
130 46 220 40 90 -6 114 -11 172 -36 24 -11 56 -22 71 -25 31 -5 108 30 108
49 0 8 9 29 19 47 11 18 40 91 66 163 l46 130 -23 19 c-38 32 -147 77 -248
103 -118 31 -333 40 -452 19z m362 -41 c41 -7 93 -20 115 -28 38 -13 34 -14
-118 -19 -107 -4 -162 -10 -170 -18 -10 -10 30 -11 193 -8 113 3 215 2 228 -3
19 -7 22 -15 22 -67 0 -75 -16 -124 -40 -120 -9 2 -25 -4 -35 -12 -17 -13 -18
-13 -10 0 8 13 7 13 -8 1 -9 -7 -26 -11 -37 -8 -11 3 -18 0 -17 -7 1 -6 -2
-11 -8 -11 -10 0 -147 45 -153 51 -2 1 1 12 8 23 7 14 7 21 0 21 -5 0 -10 8
-10 18 0 14 -2 15 -10 2 -5 -8 -10 -10 -10 -5 0 6 -24 11 -52 12 -29 1 -57 2
-63 3 -5 1 -31 2 -56 1 -42 -1 -48 -4 -55 -28 -4 -16 -8 -32 -8 -37 -1 -5 -17
-15 -37 -21 -20 -7 -51 -20 -69 -30 -18 -9 -29 -12 -26 -6 5 7 -5 11 -28 11
-25 0 -36 4 -36 15 0 8 -6 15 -12 16 -7 0 -20 2 -28 4 -8 2 -31 7 -50 11 -19
3 -43 13 -52 21 -9 8 -22 12 -27 8 -6 -3 -11 -1 -11 6 0 7 -10 9 -25 7 -20 -4
-23 -2 -15 11 12 23 70 76 107 98 28 17 48 19 167 16 102 -3 136 -1 136 8 0 7
-3 10 -6 7 -3 -3 -33 1 -67 9 -34 8 -77 12 -96 9 -19 -3 -30 -2 -25 3 9 8 116
37 164 45 62 9 262 4 330 -9z m310 -112 c0 -5 -5 -15 -10 -23 -8 -12 -10 -11
-10 8 0 12 5 22 10 22 6 0 10 -3 10 -7z"/>
<path d="M10040 6410 c0 -5 5 -10 11 -10 5 0 7 5 4 10 -3 6 -8 10 -11 10 -2 0
-4 -4 -4 -10z"/>
<path d="M10090 6410 c-13 -8 -12 -10 3 -10 9 0 17 5 17 10 0 12 -1 12 -20 0z"/>
<path d="M10937 6434 c-4 -4 -7 -69 -7 -145 l0 -138 -92 -3 -93 -3 -8 -145
c-8 -163 -3 -190 39 -190 20 0 25 -4 20 -16 -8 -22 8 -49 68 -111 60 -62 62
-71 65 -291 3 -160 16 -229 62 -309 16 -29 27 -53 25 -53 -5 0 18 -78 35 -112
6 -16 16 -28 21 -28 4 0 27 -13 49 -30 24 -17 60 -32 87 -36 26 -4 55 -11 65
-16 36 -18 200 -25 205 -8 2 6 10 10 18 10 25 0 75 63 70 88 -3 18 5 27 38 44
47 23 86 56 86 73 0 19 -91 239 -105 254 -12 12 -22 11 -70 -9 -70 -28 -126
-23 -164 14 -26 26 -26 29 -29 186 -4 182 -11 164 98 228 55 32 67 44 80 80
12 35 19 42 41 42 59 0 59 -1 59 164 0 105 -4 156 -12 164 -8 8 -54 12 -140
12 l-127 0 -3 143 -3 142 -186 3 c-102 1 -188 -1 -192 -4z m73 -75 c0 -23 -6
-55 -14 -72 -8 -18 -17 -39 -19 -47 -3 -8 -6 24 -6 73 -1 81 0 87 19 87 17 0
20 -7 20 -41z m270 12 c0 -16 -3 -42 -6 -59 -6 -30 -7 -30 -30 -15 -13 8 -31
13 -39 9 -8 -3 -15 0 -15 6 0 7 -6 3 -14 -8 -8 -10 -18 -16 -22 -12 -4 4 -14
2 -22 -5 -13 -9 -14 -9 -8 1 4 6 3 12 -2 12 -5 0 -12 -9 -15 -19 -2 -11 -15
-21 -28 -23 -13 -2 -23 -9 -22 -15 1 -6 -3 -13 -10 -16 -9 -3 -13 19 -15 84
l-4 89 126 0 126 0 0 -29z"/>
<path d="M5533 6169 c-69 -11 -151 -43 -194 -74 l-34 -26 -3 40 c-2 22 -9 44
-16 50 -9 8 -72 11 -187 9 l-174 -3 -5 -400 c-3 -220 -3 -497 0 -615 l5 -215
48 -9 c34 -6 47 -13 47 -25 0 -29 59 -74 99 -76 27 -2 46 5 74 27 20 16 37 37
37 47 0 12 13 20 43 27 l42 9 5 293 c4 249 7 295 20 305 9 7 26 29 38 49 13
20 32 40 42 43 11 4 20 10 20 13 0 4 11 9 26 10 14 1 33 6 42 11 9 5 41 12 71
15 69 7 107 -14 150 -85 l31 -49 0 -294 c0 -318 -2 -308 58 -321 17 -3 32 -12
32 -20 0 -20 78 -85 103 -85 12 0 33 7 45 16 12 8 22 12 22 8 0 -11 39 37 45
55 3 10 22 21 48 27 l42 9 3 400 c2 270 -1 419 -9 460 -36 192 -179 341 -359
375 -62 12 -183 11 -257 -1z"/>
<path d="M15824 6170 c-316 -57 -542 -349 -520 -669 8 -101 28 -183 66 -268
16 -35 26 -63 23 -63 -3 0 1 -8 9 -17 9 -10 23 -34 33 -53 9 -19 28 -47 42
-61 13 -14 43 -54 66 -89 41 -61 61 -78 122 -102 36 -13 52 -17 85 -20 14 -1
30 -5 35 -9 49 -33 200 -40 305 -14 36 9 89 23 118 30 29 7 64 21 77 29 13 9
31 16 39 16 25 0 75 50 95 96 11 24 24 44 29 44 18 0 72 61 72 81 0 12 22 67
49 123 63 129 76 185 76 321 -1 186 -58 328 -180 450 -75 74 -167 130 -265
160 -65 20 -298 29 -376 15z m119 -37 c-7 -2 -19 -2 -25 0 -7 3 -2 5 12 5 14
0 19 -2 13 -5z m130 0 c-13 -2 -33 -2 -45 0 -13 2 -3 4 22 4 25 0 35 -2 23 -4z
m57 -473 c41 -25 80 -63 80 -79 0 -9 7 -29 15 -45 21 -40 19 -83 -9 -141 -73
-159 -315 -202 -432 -78 -68 72 -95 198 -54 250 11 14 20 31 20 37 0 17 51 63
75 69 11 3 79 4 150 3 93 -1 137 -6 155 -16z"/>
<path d="M17135 6169 c-122 -20 -233 -76 -301 -151 -105 -117 -123 -314 -41
-448 12 -19 21 -37 19 -40 -4 -10 9 -40 18 -40 5 0 14 -17 20 -37 7 -21 30
-55 52 -75 36 -35 50 -42 71 -39 4 0 7 -3 7 -7 0 -15 48 -32 118 -43 154 -23
179 -28 212 -42 l35 -15 -49 -7 c-100 -15 -241 16 -386 84 -61 29 -66 30 -81
13 -9 -9 -41 -72 -70 -139 -61 -144 -63 -138 50 -193 63 -30 70 -36 65 -57 -4
-14 -2 -23 5 -23 6 0 11 -6 11 -13 0 -15 73 -57 100 -57 10 0 23 -7 30 -15 7
-9 15 -13 18 -10 3 2 10 -2 16 -10 8 -11 42 -17 131 -21 143 -8 210 4 311 51
40 19 83 37 96 40 43 11 76 49 88 100 6 26 24 65 41 86 56 71 83 146 87 239 5
116 -20 184 -97 261 -72 72 -168 111 -347 139 -110 18 -151 27 -133 31 42 8
75 8 157 -1 53 -7 112 -11 131 -10 42 1 91 26 91 45 0 9 10 15 24 15 21 0 30
15 80 141 43 107 54 144 46 154 -21 25 -156 74 -245 90 -94 16 -296 18 -380 4z
m203 -36 c-10 -2 -26 -2 -35 0 -10 3 -2 5 17 5 19 0 27 -2 18 -5z"/>
<path d="M6224 6156 c-3 -8 24 -92 61 -186 46 -116 66 -179 62 -197 -6 -33 7
-64 56 -130 42 -56 94 -181 128 -302 22 -82 41 -132 77 -199 12 -24 22 -50 22
-58 0 -7 5 -14 10 -14 6 0 10 -7 10 -15 0 -21 38 -95 49 -95 5 0 8 -14 7 -31
-2 -23 -14 -43 -44 -70 -37 -35 -47 -39 -93 -39 -38 0 -66 8 -109 31 -32 17
-66 29 -77 27 -20 -4 -53 -60 -110 -186 -43 -97 -42 -101 38 -150 48 -29 53
-36 51 -62 -5 -42 13 -67 55 -80 21 -7 58 -21 81 -32 35 -16 60 -18 127 -15
81 4 86 5 162 55 95 62 139 108 184 187 18 33 39 66 46 73 50 51 74 108 123
292 7 25 36 96 66 158 30 62 54 117 54 122 0 10 27 72 61 143 11 22 19 49 19
60 0 12 9 37 20 55 11 18 20 40 20 48 0 9 6 30 14 47 21 46 87 209 93 229 5
17 80 41 88 28 2 -4 15 -5 28 -3 34 7 114 -34 121 -61 3 -12 27 -49 54 -82 26
-33 56 -78 66 -100 11 -21 30 -52 43 -67 13 -16 20 -34 16 -40 -21 -38 -82
-122 -200 -280 -182 -243 -189 -253 -173 -272 8 -10 30 -15 64 -15 66 0 127
-10 121 -20 -10 -16 17 -69 38 -77 12 -4 25 -6 30 -5 4 1 7 -2 7 -7 0 -8 21
-7 75 3 20 4 60 29 85 53 14 13 41 37 61 53 19 16 48 49 64 74 26 41 55 61 80
56 5 -1 19 -2 30 -4 36 -3 81 -34 107 -74 34 -50 137 -123 209 -147 54 -17 59
-18 93 -1 38 18 55 41 51 68 -3 14 10 17 84 23 117 8 115 8 119 27 2 10 -55
97 -134 205 -76 104 -165 227 -197 275 l-60 86 35 44 c19 24 54 83 77 132 25
52 50 90 61 93 25 7 43 49 30 72 -9 18 21 69 139 233 55 77 52 78 -173 78
-152 0 -198 -3 -208 -14 -8 -7 -63 -79 -123 -159 l-108 -145 -107 156 -106
157 -374 0 -375 0 -48 -120 c-26 -66 -91 -230 -143 -365 -53 -135 -99 -249
-103 -253 -4 -4 -65 135 -135 310 -70 175 -139 343 -154 373 l-27 55 -193 3
c-162 2 -193 0 -198 -12z m1427 -174 c17 -29 29 -55 26 -58 -6 -7 -44 -13
-110 -18 -33 -2 -47 0 -44 8 2 6 17 46 32 89 l28 79 18 -23 c10 -13 32 -47 50
-77z"/>
<path d="M11801 6161 c-11 -7 -13 -85 -14 -432 0 -406 1 -427 21 -489 12 -36
37 -91 57 -124 19 -32 35 -61 35 -65 1 -63 69 -148 145 -181 22 -9 46 -25 54
-34 7 -9 20 -16 27 -16 8 0 14 -7 14 -15 0 -11 12 -15 43 -16 23 0 51 -2 62
-4 54 -10 157 -6 220 9 99 24 118 29 135 33 22 6 71 6 105 0 102 -18 123 -18
167 6 24 13 50 38 58 54 9 18 27 34 45 39 l30 9 3 592 c1 370 -2 601 -8 617
l-10 26 -177 0 c-98 0 -184 -4 -192 -9 -11 -7 -15 -75 -18 -357 -3 -192 -9
-366 -14 -387 -22 -86 -114 -151 -216 -150 -96 1 -157 48 -183 142 -6 21 -10
183 -10 387 0 259 -3 353 -12 362 -14 14 -345 17 -367 3z"/>
</g>
</svg>
