<?xml version="1.0" encoding="UTF-8"?>
<!-- Onyx Studios - Mono #6e6e73 -->
<svg xmlns="http://www.w3.org/2000/svg" viewBox="0 0 1200 1200" width="1200" height="1200">
  <g transform="translate(50.0 50.0) scale(0.537109375)">
    <g transform="translate(0.000000,2048.000000) scale(0.100000,-0.100000)" fill="#6e6e73" stroke="none">
<path d="M7068 15200 c-261 -28 -551 -123 -768 -253 -366 -219 -654 -575 -843
-1042 -170 -423 -267 -1009 -307 -1855 -36 -774 23 -1656 144 -2160 152 -634
371 -1049 747 -1416 132 -128 193 -179 304 -256 370 -255 808 -418 1230 -459
239 -23 519 -9 742 37 94 19 333 92 440 135 134 52 353 162 549 274 311 178
554 334 1439 920 264 175 566 374 670 443 1117 737 1556 1035 1635 1108 192
181 273 377 249 600 -11 102 -22 141 -70 240 -73 149 -178 253 -453 448 -297
211 -808 572 -1061 749 -148 104 -353 249 -455 322 -224 159 -670 476 -844
600 -70 50 -196 139 -279 198 -132 94 -275 194 -462 326 -308 216 -839 543
-1055 651 -422 210 -765 330 -1070 374 -135 20 -370 27 -482 16z m713 -465
c55 -8 144 -25 197 -36 122 -26 447 -133 572 -189 102 -45 348 -166 365 -180
5 -4 53 -30 105 -58 123 -64 418 -246 624 -384 6 -4 8 -10 4 -13 -3 -4 -82 16
-174 44 -345 103 -599 156 -867 181 -164 16 -498 8 -627 -15 -225 -40 -466
-130 -636 -237 -105 -65 -253 -194 -335 -291 -90 -106 -206 -286 -274 -425
-33 -67 -66 -122 -73 -122 -9 0 -11 -7 -7 -20 4 -12 -14 -82 -43 -172 -28 -84
-60 -189 -72 -233 -12 -44 -25 -82 -29 -85 -4 -3 -7 -16 -7 -30 0 -14 -12 -95
-27 -180 -101 -602 -82 -1241 53 -1775 195 -770 605 -1322 1195 -1610 313
-153 606 -216 1005 -216 333 0 560 32 944 135 154 42 145 26 -64 -104 -206
-128 -519 -293 -690 -364 -187 -78 -421 -148 -599 -178 -166 -29 -485 -31
-631 -4 -358 66 -688 206 -963 409 -161 119 -363 335 -488 522 -82 121 -244
455 -313 643 -56 152 -102 322 -136 502 -10 52 -27 140 -39 195 -120 596 -127
1576 -15 2255 64 385 148 696 256 951 44 106 149 309 158 309 6 0 10 8 10 19
0 10 10 29 23 42 12 14 27 36 34 49 21 46 140 185 240 281 203 194 422 311
691 369 195 42 419 47 633 15z m298 -1065 c135 -22 405 -133 551 -225 25 -16
70 -42 99 -58 65 -35 217 -128 356 -219 55 -36 188 -121 295 -190 558 -357
830 -534 840 -548 3 -4 12 -9 21 -12 9 -4 173 -109 365 -234 192 -125 448
-291 569 -369 422 -271 515 -335 559 -380 117 -120 116 -262 -2 -366 -69 -61
-228 -155 -1212 -722 -260 -149 -572 -331 -1150 -668 -425 -249 -693 -396
-798 -439 -158 -64 -324 -90 -465 -71 -272 36 -488 151 -717 380 -151 152
-247 290 -349 501 -137 287 -224 594 -266 935 -74 607 -9 1310 165 1785 64
175 136 321 160 327 15 4 19 11 14 25 -8 26 82 162 167 252 213 228 518 341
798 296z"/>
<path d="M8199 13377 c-9 -7 -21 -22 -27 -34 -9 -16 -12 -510 -12 -1978 l0
-1956 26 -26 c42 -42 81 -30 329 99 431 225 580 309 613 343 l32 35 0 1457 c0
993 -3 1470 -11 1496 -5 21 -22 51 -37 67 -15 16 -155 102 -312 191 -157 88
-346 196 -421 240 -75 43 -142 79 -150 79 -8 0 -21 -6 -30 -13z"/>
<path d="M12066 15054 c-3 -9 -6 -31 -6 -50 l0 -35 -197 1 c-109 1 -251 1
-315 1 l-118 -1 0 -302 c0 -167 -3 -320 -6 -340 l-7 -38 -83 0 -83 0 -3 113
-3 112 -90 0 -90 0 -3 -112 -3 -113 -89 0 -90 0 0 119 0 120 38 3 37 3 3 159
c2 121 -1 161 -10 168 -7 4 -79 8 -160 8 -135 0 -148 -2 -158 -19 -11 -21 -14
-278 -4 -305 4 -10 18 -16 35 -16 33 0 31 8 33 -132 l1 -108 -350 -2 c-321 -3
-350 -4 -350 -20 0 -11 104 -90 290 -219 610 -426 2155 -1524 2582 -1836 343
-250 476 -390 574 -598 59 -125 81 -235 81 -387 -1 -166 -24 -263 -102 -424
-96 -199 -209 -330 -414 -483 -105 -78 -457 -319 -1051 -720 -236 -160 -686
-464 -1000 -676 -313 -213 -657 -444 -762 -513 -106 -70 -191 -131 -190 -137
2 -6 134 -11 360 -13 l357 -2 0 -130 0 -130 -39 0 c-21 0 -44 -6 -50 -14 -8
-9 -11 -63 -9 -167 l3 -154 178 -3 177 -2 0 115 0 115 225 0 225 0 2 -162 3
-163 444 -3 c349 -2 446 0 453 10 4 7 8 165 8 351 l0 337 364 0 c313 0 365 2
376 15 10 12 12 91 7 360 l-5 345 223 0 224 0 3 -57 3 -58 185 0 185 0 3 188
2 187 -50 0 -50 0 0 220 0 220 363 2 362 3 3 358 2 357 80 0 80 0 0 -28 c0
-48 13 -52 160 -52 92 0 140 4 148 12 8 8 12 57 12 153 0 153 -4 165 -52 165
-28 0 -28 1 -28 60 l0 60 328 2 327 3 0 435 0 435 -327 3 -328 2 0 65 0 64 38
3 37 3 3 157 c3 187 21 170 -178 166 l-135 -3 -3 -37 -3 -38 -80 0 -79 0 0
240 0 240 45 0 45 0 0 180 0 180 -182 -2 -183 -3 -3 -42 -3 -43 -226 0 -226 0
7 274 c5 197 4 281 -4 296 -10 19 -18 21 -98 18 l-87 -3 -3 -132 -3 -132 -167
2 -167 2 -3 -162 -2 -163 -95 0 -95 0 0 275 0 275 59 0 c58 0 60 -1 63 -27 l3
-28 139 -8 c99 -5 142 -4 152 4 11 9 14 43 14 139 0 71 -3 135 -6 144 -4 10
-18 16 -35 16 -24 0 -29 4 -29 24 0 21 5 25 38 28 l37 3 0 160 0 160 -162 3
c-106 2 -163 -1 -164 -8 0 -5 0 -44 0 -85 0 -41 0 -111 0 -155 l1 -80 30 0
c25 0 30 -4 30 -24 0 -18 -6 -25 -22 -28 -15 -2 -24 -11 -26 -25 -3 -21 -9
-23 -63 -23 l-59 0 0 49 c0 44 3 50 23 53 22 3 22 5 22 148 l0 145 -145 0
-145 0 -3 -147 -3 -148 26 0 c23 0 25 -3 25 -50 l0 -50 -85 0 -85 0 0 130 0
130 -90 0 -90 0 0 -130 0 -130 -100 0 -100 0 0 584 0 585 38 3 37 3 3 188 2
187 -174 0 c-149 0 -175 -2 -180 -16z m-294 -401 l3 -138 83 -3 c53 -2 89 1
98 9 11 9 14 42 14 140 l0 129 45 0 c45 0 45 0 45 -34 0 -56 8 -66 51 -66 l39
0 0 -200 0 -200 -270 0 -270 0 0 250 0 250 80 0 79 0 3 -137z m-1075 -593 c0
-22 -4 -40 -9 -40 -14 0 -98 62 -98 72 0 4 24 8 54 8 l53 0 0 -40z m363 -120
c0 -139 -2 -160 -16 -160 -8 0 -49 23 -90 52 l-74 52 0 108 0 108 90 0 90 0 0
-160z m360 136 c0 -12 3 -51 6 -85 l7 -61 -92 0 -91 0 0 85 0 85 85 0 c83 0
85 -1 85 -24z m730 -97 l0 -122 -142 3 c-79 2 -158 3 -175 2 l-33 -2 0 -170 0
-170 -95 0 -95 0 0 290 0 290 270 0 270 0 0 -121z m-720 -349 c0 -121 -5 -129
-58 -92 -142 97 -262 186 -262 193 0 5 72 9 160 9 l160 0 0 -110z m720 -35 l0
-75 -80 0 -80 0 0 75 0 75 80 0 80 0 0 -75z m-350 -310 c0 -25 -3 -45 -8 -45
-15 0 -82 62 -82 76 0 10 13 14 45 14 l45 0 0 -45z m350 -126 c0 -196 8 -187
-96 -113 l-64 46 0 119 0 119 80 0 80 0 0 -171z m392 34 l3 -138 65 -3 c116
-5 110 -13 110 143 l0 135 84 0 84 0 6 -31 c3 -17 6 -141 6 -275 l0 -244 -238
0 c-235 0 -238 0 -273 24 -24 17 -38 35 -43 57 -3 17 -6 130 -6 250 l0 219
100 0 99 0 3 -137z m1078 -349 c0 -65 -2 -75 -16 -70 -9 3 -42 6 -75 6 l-59 0
0 70 0 70 75 0 75 0 0 -76z m-784 -264 l64 0 0 -70 c0 -38 -3 -70 -6 -70 -3 0
-29 19 -58 43 -28 23 -69 53 -89 67 -45 31 -47 45 -6 36 17 -3 60 -6 95 -6z
m444 -165 l0 -175 170 0 170 0 0 -106 0 -107 -109 5 -110 4 -90 87 c-50 47
-120 107 -156 132 l-65 47 0 137 c0 76 2 140 5 143 3 3 46 6 95 7 l90 1 0
-175z m340 90 l0 -85 -75 0 -75 0 0 85 0 85 75 0 75 0 0 -85z m644 69 c3 -9 6
-27 6 -40 0 -21 4 -24 40 -24 l40 0 0 -240 0 -240 -264 0 -263 0 -7 77 c-3 42
-6 89 -6 104 l0 28 143 3 142 3 3 88 3 87 -146 0 -145 0 0 85 0 85 224 0 c195
0 225 -2 230 -16z m-644 -779 c0 -30 -3 -55 -7 -55 -7 0 -63 94 -63 105 0 3
16 5 35 5 l35 0 0 -55z m730 -50 l0 -105 -187 -2 -188 -3 -3 -167 -2 -168 -80
0 -80 0 0 275 0 275 270 0 270 0 0 -105z m350 70 c0 -31 3 -35 25 -35 l25 0 0
-160 0 -160 131 0 c131 0 131 0 125 -22 -3 -13 -6 -49 -6 -80 l0 -58 -230 0
-230 0 0 275 0 275 80 0 80 0 0 -35z m-350 -435 l0 -80 -100 0 -100 0 0 80 0
80 100 0 100 0 0 -80z m1060 0 l0 -80 -110 0 -110 0 0 80 0 80 110 0 110 0 0
-80z m-1440 -340 c0 -78 -1 -80 -24 -80 -31 0 -36 -15 -36 -110 0 -95 5 -110
36 -110 23 0 24 -2 24 -80 l0 -80 -80 0 -80 0 0 270 0 270 80 0 80 0 0 -80z
m380 -190 l0 -270 -100 0 -100 0 0 79 c0 79 0 80 28 83 l27 3 3 104 c3 109 -3
127 -40 115 -16 -5 -18 3 -18 75 l0 81 100 0 100 0 0 -270z m650 190 l0 -79
-122 -3 -123 -3 -3 -152 c-2 -148 -3 -152 -25 -155 -17 -2 -23 -11 -25 -35
l-3 -33 -80 0 -79 0 0 270 0 270 230 0 230 0 0 -80z m414 64 c3 -9 6 -45 6
-80 l0 -64 -115 0 -115 0 0 80 0 80 109 0 c90 0 110 -3 115 -16z m-1794 -449
l0 -75 -46 0 c-25 0 -44 4 -42 8 15 37 75 142 81 142 4 0 7 -34 7 -75z m0
-345 l0 -90 -185 0 -185 0 0 -180 0 -180 -85 0 -85 0 0 98 c0 158 3 165 79
224 36 28 102 88 146 134 l80 83 118 0 117 1 0 -90z m350 0 l0 -90 -80 0 -80
0 0 90 0 90 80 0 80 0 0 -90z m380 -180 l0 -270 -270 0 -270 0 0 90 0 90 170
0 170 0 0 180 0 180 100 0 100 0 0 -270z m-730 -180 l0 -90 -95 0 -95 0 0 90
0 90 95 0 95 0 0 -90z m-720 -20 l0 -70 -95 0 c-52 0 -95 3 -95 8 1 7 170 130
183 131 4 1 7 -30 7 -69z m0 -325 l0 -75 -135 0 c-156 0 -148 6 -143 -115 l3
-70 138 -3 137 -3 0 -88 0 -89 -280 1 -280 2 0 230 0 230 43 27 42 28 238 0
237 0 0 -75z m350 0 l0 -75 -85 0 -85 0 0 75 0 75 85 0 85 0 0 -75z m370 -145
l0 -220 -45 0 -45 0 0 -37 0 -38 -225 0 -225 0 0 82 0 83 173 2 172 3 3 173 2
172 95 0 95 0 0 -220z m-1470 -136 l0 -166 -222 7 c-123 4 -225 9 -228 12 -3
3 8 14 24 26 73 54 412 286 419 286 4 1 7 -74 7 -165z m-720 -439 l0 -105
-130 0 -131 0 3 -87 3 -88 128 -3 127 -3 0 -73 c0 -68 -2 -74 -22 -80 -13 -3
-130 -6 -260 -6 l-238 0 0 108 1 107 252 167 c139 92 255 167 260 167 4 1 7
-46 7 -104z m720 -175 l0 -270 -264 0 -263 0 -7 31 c-3 17 -6 139 -6 270 l0
239 270 0 270 0 0 -270z m743 8 c-3 -145 -8 -265 -10 -268 -2 -2 -43 -5 -91
-5 l-87 0 -3 148 -3 147 -99 0 -100 0 0 -150 0 -150 -80 0 -80 0 0 270 0 270
279 0 279 0 -5 -262z m-2175 -241 c2 -17 -1 -27 -10 -27 -7 0 -30 -3 -50 -6
-23 -4 -38 -3 -38 3 0 13 72 63 85 59 6 -1 11 -15 13 -29z m712 -310 l0 -93
-265 -1 -265 0 0 93 0 94 265 0 265 0 0 -93z m720 -167 l0 -260 -110 0 -110 0
0 165 0 165 -160 0 -160 0 0 95 0 95 270 0 270 0 0 -260z m-400 -185 l0 -75
-70 0 -70 0 0 75 0 75 70 0 70 0 0 -75z"/>
<path d="M14858 6686 c-71 -25 -125 -77 -143 -136 -4 -14 -22 -37 -39 -53 -28
-25 -36 -27 -79 -22 -56 7 -87 33 -87 73 0 52 -1 53 -211 50 l-194 -3 -3 -39
c-3 -38 -41 -85 -69 -86 -18 0 -41 -76 -57 -189 -9 -57 -17 -105 -18 -106 -2
-1 -39 2 -83 8 -96 12 -232 -1 -316 -31 -110 -38 -241 -149 -303 -254 -29 -50
-44 -56 -90 -38 -16 6 -26 17 -26 30 0 11 -6 20 -12 20 -12 1 -48 52 -78 113
-7 15 -19 27 -26 27 -9 0 -14 19 -16 58 l-3 57 -189 3 c-197 3 -216 -1 -216
-40 0 -14 -5 -18 -18 -14 -22 7 -31 -10 -61 -116 -22 -77 -24 -98 -21 -229 2
-44 -3 -86 -10 -99 -16 -30 -32 -144 -34 -250 -3 -105 -11 -136 -39 -144 -38
-10 -65 -7 -71 9 -3 8 -12 15 -21 15 -8 0 -15 6 -15 14 0 8 -6 16 -12 19 -10
3 -13 64 -11 268 2 243 0 271 -19 337 -18 60 -26 74 -50 84 -25 12 -28 17 -28
64 0 86 3 85 -215 82 l-190 -3 -3 -34 c-2 -18 -12 -43 -22 -54 -11 -11 -24
-35 -31 -54 -11 -35 -40 -44 -62 -20 -32 34 -57 79 -57 101 0 38 -25 56 -80
56 -27 0 -60 5 -73 11 -30 14 -57 59 -57 97 0 32 -29 72 -52 72 -11 0 -17 14
-21 46 -2 26 -11 50 -18 55 -22 14 -363 11 -377 -3 -7 -7 -12 -31 -12 -55 0
-31 -4 -43 -15 -43 -20 0 -65 -81 -65 -118 0 -22 -5 -32 -15 -32 -19 0 -65 47
-65 66 0 8 -7 14 -15 14 -7 0 -18 6 -22 14 -4 7 -18 18 -30 25 -15 8 -23 22
-25 49 -3 36 -6 38 -88 80 -47 23 -130 54 -185 68 -86 23 -121 26 -255 27
-163 1 -261 -14 -363 -54 -106 -42 -229 -143 -269 -223 -11 -22 -27 -45 -34
-49 -8 -4 -14 -13 -14 -19 0 -6 -17 -27 -38 -47 -57 -53 -72 -119 -72 -312 0
-152 13 -260 34 -287 6 -7 20 -21 30 -30 10 -9 44 -41 74 -70 l55 -54 -40 -91
c-30 -72 -43 -93 -61 -95 -12 -2 -22 -7 -22 -12 0 -5 -8 -11 -19 -15 -14 -4
-22 -25 -35 -88 -9 -45 -16 -104 -16 -130 0 -63 30 -177 47 -177 7 0 13 -7 13
-15 0 -8 7 -15 16 -15 8 0 30 -11 48 -25 18 -14 38 -25 44 -25 7 0 17 -9 24
-20 7 -11 18 -20 25 -20 7 0 13 -4 13 -10 0 -5 9 -10 19 -10 11 0 21 -5 23
-11 4 -11 186 -59 224 -59 11 0 24 -3 28 -7 23 -23 443 -3 458 23 5 6 30 17
58 24 27 7 50 16 50 21 0 5 6 9 14 9 7 0 19 6 26 14 6 8 43 27 82 42 52 19 75
34 87 55 9 16 19 29 24 29 4 0 7 7 7 15 0 8 9 15 20 15 11 0 20 7 20 15 0 8 7
15 15 15 8 0 15 6 15 14 0 15 21 26 49 26 19 0 91 -64 91 -80 0 -6 4 -10 9
-10 5 0 24 -20 42 -45 19 -24 42 -45 51 -45 9 0 23 -7 32 -15 8 -8 19 -15 25
-15 6 0 11 -4 11 -10 0 -5 9 -10 20 -10 11 0 20 -7 20 -15 0 -8 7 -15 15 -15
8 0 15 -4 15 -10 0 -5 6 -10 13 -10 8 0 28 -7 45 -16 21 -10 74 -17 156 -21
104 -5 130 -3 159 11 19 9 45 16 57 16 28 0 52 13 88 50 17 16 40 30 51 30 12
0 21 5 21 10 0 6 7 10 15 10 8 0 19 9 25 20 6 11 19 20 28 20 10 0 23 5 29 11
16 16 86 -19 140 -70 42 -39 95 -71 119 -71 7 0 14 -4 16 -9 4 -11 215 -31
273 -26 22 2 62 8 90 14 28 6 131 10 240 10 214 -2 263 8 321 65 18 17 48 45
68 63 20 18 36 38 36 45 0 7 11 22 25 32 14 10 25 25 25 32 0 33 73 2 120 -51
71 -80 145 -135 182 -135 7 0 19 -9 25 -19 8 -13 29 -21 65 -26 29 -4 63 -11
74 -16 35 -12 252 -13 335 0 42 6 101 9 130 7 167 -16 229 -18 229 -9 0 6 28
13 62 16 40 3 66 11 74 21 6 9 14 16 18 16 4 0 24 13 44 29 44 34 100 55 116
42 6 -4 23 -11 37 -14 14 -4 43 -22 65 -42 21 -19 45 -35 54 -35 9 0 21 -5 28
-12 8 -8 52 -12 131 -13 l119 0 50 48 c28 26 56 47 62 47 5 0 10 5 10 10 0 11
11 27 41 58 9 9 20 33 24 52 8 38 52 83 73 75 8 -3 18 -5 23 -5 6 0 21 -24 34
-54 24 -54 99 -126 131 -126 26 0 94 -35 94 -48 0 -8 9 -16 20 -19 11 -3 20
-10 20 -15 0 -6 7 -8 15 -5 8 4 40 -3 72 -14 31 -10 65 -17 75 -13 10 3 20 0
23 -8 15 -38 369 11 425 59 16 13 34 23 42 23 15 0 270 128 278 139 8 12 63 7
68 -6 2 -7 8 -13 13 -13 5 0 26 -18 46 -40 21 -22 43 -40 50 -40 17 0 93 -33
93 -41 0 -11 37 -49 49 -49 6 0 11 -4 11 -8 0 -5 30 -9 66 -10 37 -1 94 -6
128 -11 95 -15 214 -16 301 -1 44 7 85 16 90 20 6 4 25 11 44 15 19 4 46 18
60 31 14 13 31 24 38 24 7 0 16 6 20 13 8 11 31 24 116 60 25 11 37 23 37 36
0 11 9 26 19 33 11 8 22 30 26 50 4 21 17 44 31 55 13 10 24 28 24 40 0 13 4
23 8 23 14 0 30 112 21 145 -5 16 -9 44 -9 61 0 21 -9 40 -27 58 -27 27 -55
125 -69 244 -4 28 -10 52 -13 52 -10 0 -5 94 6 115 14 26 30 124 32 194 2 84
-46 191 -85 191 -7 0 -14 12 -16 27 -2 22 -14 33 -59 55 -110 55 -196 71 -384
71 -196 1 -267 -12 -377 -70 -67 -35 -149 -112 -171 -160 -6 -13 -16 -23 -23
-23 -7 0 -29 -15 -48 -34 -42 -39 -88 -52 -106 -31 -7 8 -18 15 -26 15 -7 0
-16 10 -20 22 -10 32 -142 158 -206 196 -126 75 -286 104 -464 84 -180 -20
-303 -79 -415 -199 -35 -37 -94 -116 -104 -140 -1 -1 -17 2 -36 7 -38 11 -53
32 -64 94 -4 20 -11 36 -16 36 -13 0 -11 39 5 85 30 86 38 153 34 276 -3 78
-9 133 -18 149 -15 29 -74 90 -86 90 -5 0 -19 15 -31 34 -33 51 -112 86 -192
86 -37 -1 -83 -7 -103 -14z m-3245 -1200 c19 -15 23 -46 19 -150 l-2 -59 -36
6 c-23 4 -47 1 -65 -9 -21 -11 -34 -12 -48 -4 -27 14 -32 36 -29 123 3 69 5
77 27 87 18 8 26 8 32 -2 6 -10 15 -9 41 4 41 20 39 20 61 4z m4395 -5 c40
-12 57 -28 67 -66 10 -41 8 -110 -5 -134 -22 -41 -176 -40 -203 2 -22 34 -29
74 -14 80 7 3 24 27 37 53 38 74 54 83 118 65z m-2148 -20 c0 -5 9 -13 20 -16
11 -3 20 -13 20 -21 0 -8 6 -14 14 -14 38 0 60 -86 32 -123 -26 -34 -116 -48
-142 -22 -9 8 -25 15 -36 15 -57 0 -79 79 -32 115 14 11 35 29 47 41 32 30 77
45 77 25z"/>
<path d="M3711 6515 c-138 -30 -222 -68 -330 -148 -60 -44 -139 -124 -174
-174 -12 -18 -25 -33 -29 -33 -23 0 -78 -85 -78 -119 0 -26 -38 -71 -60 -71
-42 0 -76 -132 -85 -335 -3 -71 -8 -163 -10 -204 -5 -82 17 -234 40 -278 8
-16 15 -34 15 -41 0 -8 15 -28 33 -45 34 -34 77 -107 77 -132 0 -8 4 -15 8
-15 4 0 13 -15 20 -34 9 -24 23 -38 55 -52 40 -18 55 -30 104 -87 13 -15 37
-28 62 -32 23 -4 41 -11 41 -15 0 -5 14 -11 31 -15 16 -4 46 -22 64 -41 59
-59 123 -75 295 -77 83 -1 150 -6 150 -10 0 -5 12 -6 28 -3 15 3 52 8 83 11
31 2 67 8 80 13 13 5 49 13 79 17 33 4 62 15 73 26 10 11 29 19 42 19 15 0 25
6 25 14 0 7 8 16 18 20 9 3 24 9 32 14 45 27 80 42 97 42 11 0 37 20 58 45 21
26 51 53 67 61 27 14 61 40 94 72 27 26 54 8 54 -36 0 -28 32 -102 44 -102 7
0 17 -15 24 -33 7 -18 20 -42 30 -53 10 -10 21 -27 25 -36 3 -10 16 -18 27
-18 11 0 20 -4 20 -8 0 -13 82 -32 164 -38 69 -5 85 -2 127 18 27 12 49 26 49
31 0 5 9 5 20 2 11 -3 20 -2 20 4 0 5 18 27 40 49 21 22 42 51 45 64 3 13 16
28 27 33 32 15 39 55 37 210 -5 351 -3 364 56 404 30 20 39 22 60 13 14 -7 29
-22 34 -34 12 -33 32 -318 34 -483 2 -160 20 -221 67 -232 14 -3 36 -16 50
-29 47 -43 96 -57 180 -49 41 4 83 11 93 17 12 6 23 6 31 -1 6 -6 22 -8 33 -5
40 11 60 -69 41 -163 -9 -47 13 -131 38 -146 8 -4 14 -15 14 -22 0 -8 9 -15
20 -15 11 0 20 -4 20 -9 0 -5 17 -15 37 -22 41 -13 63 -31 63 -49 0 -7 6 -10
14 -7 8 3 48 -5 90 -19 90 -28 214 -33 259 -9 15 8 43 17 62 21 19 3 35 10 35
14 0 5 14 11 30 15 17 4 30 10 30 15 0 4 17 15 38 23 20 9 72 50 115 91 43 42
83 76 88 76 5 0 9 8 9 19 0 10 6 24 14 30 8 7 22 34 32 62 10 27 24 49 31 49
7 0 13 7 13 15 0 8 8 23 18 33 23 23 52 99 52 137 0 43 31 147 52 174 10 13
18 32 18 42 0 9 10 26 23 36 28 22 80 130 98 203 7 30 27 80 43 110 31 56 52
104 64 150 4 14 14 35 22 47 14 19 21 20 60 12 25 -4 48 -8 51 -9 4 0 19 -34
34 -75 18 -51 25 -84 20 -102 -6 -27 -57 -83 -74 -83 -5 0 -15 -14 -23 -30 -7
-17 -20 -32 -29 -35 -8 -3 -23 -29 -33 -58 -10 -28 -31 -70 -47 -93 -15 -23
-35 -61 -43 -85 -8 -24 -20 -45 -26 -47 -5 -2 -10 -19 -10 -37 0 -19 -4 -45
-9 -58 -13 -33 35 -137 62 -137 10 0 28 -11 41 -25 13 -14 30 -25 37 -25 8 0
28 -7 44 -16 24 -12 51 -14 130 -10 55 3 112 5 128 6 15 0 35 9 44 20 10 11
26 20 36 20 9 0 20 7 23 15 4 8 15 15 25 15 10 0 19 7 19 15 0 8 6 15 13 15 8
0 19 11 25 24 15 33 69 44 109 23 15 -9 56 -30 91 -47 34 -17 62 -36 62 -41 0
-5 6 -9 13 -9 8 0 19 -10 24 -23 9 -19 24 -25 89 -36 106 -17 285 0 317 29 11
11 24 20 29 20 10 0 48 37 48 47 0 3 8 15 17 26 14 14 18 36 17 95 0 101 -10
145 -37 173 -63 67 -217 282 -236 329 -26 68 -25 92 9 127 16 18 30 34 30 38
0 3 14 24 30 47 17 22 30 47 30 55 0 7 4 13 8 13 4 0 16 14 25 30 10 17 23 30
29 30 6 0 27 19 48 41 32 36 39 52 50 118 7 42 12 99 12 127 0 59 -19 134 -32
134 -6 0 -10 6 -10 14 0 8 -7 17 -16 20 -11 4 -14 14 -9 35 5 23 2 32 -12 39
-10 5 -106 7 -214 4 l-197 -4 -68 -93 c-66 -88 -88 -107 -144 -118 -14 -3 -34
-8 -46 -12 -17 -5 -31 11 -97 109 l-77 116 -248 1 c-136 1 -299 2 -362 3 -63
1 -124 -1 -136 -5 -14 -5 -29 -28 -44 -69 -13 -34 -35 -74 -50 -88 -15 -15
-33 -46 -40 -69 -7 -24 -17 -43 -22 -43 -5 0 -14 -11 -20 -25 -6 -14 -17 -25
-25 -25 -7 0 -13 -6 -13 -14 0 -8 -3 -16 -7 -18 -5 -1 -21 -29 -38 -61 -33
-67 -38 -71 -65 -62 -36 12 -114 141 -125 206 -8 52 -25 109 -39 127 -5 8 -19
11 -35 7 -24 -5 -28 -1 -50 55 -13 33 -30 65 -36 70 -8 7 -87 9 -211 8 -223
-3 -205 5 -189 -80 7 -34 6 -38 -14 -38 -11 0 -30 -8 -41 -17 -10 -10 -31 -28
-45 -41 l-25 -23 -66 71 c-45 47 -86 80 -128 100 -141 69 -379 61 -529 -17
-28 -15 -55 -29 -58 -31 -4 -1 -9 15 -13 36 -7 50 -17 52 -217 52 -136 0 -151
-2 -169 -20 -11 -11 -24 -20 -28 -20 -5 0 -18 -23 -31 -51 -40 -93 -58 -98
-123 -35 -25 24 -49 45 -55 47 -5 2 -28 31 -51 65 -124 185 -295 301 -503 344
-113 24 -321 26 -418 5z m265 -716 c25 -7 48 -18 51 -25 3 -8 12 -14 20 -14
19 0 63 -41 63 -58 0 -7 6 -20 13 -27 35 -40 43 -52 54 -85 7 -19 18 -61 23
-94 10 -50 9 -60 -6 -77 -9 -10 -27 -19 -40 -19 -14 0 -25 -8 -29 -20 -11 -36
-72 -88 -117 -100 -24 -7 -80 -10 -128 -8 -104 5 -193 40 -212 85 -7 15 -15
30 -18 33 -16 14 -33 102 -31 159 3 71 14 111 33 111 12 0 88 78 88 91 0 3 9
18 21 33 19 24 26 26 95 26 41 0 96 -5 120 -11z m2377 -602 c24 -25 37 -57 31
-72 -5 -11 0 -18 14 -22 24 -6 36 -36 62 -143 9 -41 21 -83 25 -92 10 -24 -13
-23 -45 2 -39 30 -67 25 -91 -15 -21 -35 -42 -44 -54 -25 -5 9 8 222 21 338 5
43 16 52 37 29z"/>
    </g>
  </g>
</svg>
