<?xml version="1.0" encoding="UTF-8" standalone="no"?>
<svg
   viewBox="0 0 1200 300"
   width="1200"
   height="300"
   version="1.1"
   id="svg1"
   xmlns="http://www.w3.org/2000/svg"
   xmlns:svg="http://www.w3.org/2000/svg">
  <defs
     id="defs1" />
  <path
     d="m 237.81592,196.26953 q -11.99707,0 -21.26465,-5.9668 -9.26758,-5.96679 -14.53613,-16.82128 -5.26856,-10.91797 -5.26856,-25.70801 0,-14.85352 5.26856,-25.77149 5.26855,-10.91797 14.53613,-16.88476 9.26758,-5.966799 21.26465,-5.966799 11.93359,0 21.20117,5.966799 9.26758,5.96679 14.47266,16.88476 5.26855,10.91797 5.26855,25.77149 0,14.79004 -5.26855,25.70801 -5.20508,10.85449 -14.47266,16.82128 -9.26758,5.9668 -21.20117,5.9668 z m 0,-8.44238 q 9.2041,0 16.44043,-4.76074 7.2998,-4.76075 11.48926,-13.71094 4.25293,-9.01367 4.25293,-21.58203 0,-12.63184 -4.25293,-21.64551 -4.18946,-9.01367 -11.48926,-13.77441 -7.23633,-4.76075 -16.44043,-4.76075 -9.26758,0 -16.56738,4.76075 -7.29981,4.76074 -11.55274,13.77441 -4.18945,9.01367 -4.18945,21.64551 0,12.50488 4.18945,21.51855 4.25293,8.9502 11.55274,13.77442 7.2998,4.76074 16.56738,4.76074 z m 70.74512,-37.07031 V 195 h -8.63282 v -70.9668 h 8.31543 l 0.0635,13.07617 q 3.2373,-7.36328 9.07715,-10.66406 5.83984,-3.36426 13.07617,-3.36426 10.79101,0 17.51953,6.72852 6.72852,6.66504 6.72852,19.29688 V 195 h -8.56934 v -45.25879 q 0,-8.69629 -4.8877,-13.71094 -4.88769,-5.07812 -13.07617,-5.07812 -8.3789,0 -14.02832,5.33203 -5.58593,5.33203 -5.58593,14.47266 z m 65.66699,69.82421 2.34863,-7.49023 1.01563,0.31738 q 5.64941,1.77735 9.77539,-0.38086 4.18945,-2.09472 6.91894,-9.71191 l 2.79297,-7.74414 -27.23145,-71.53809 h 9.39454 l 16.37695,44.62403 q 1.77734,4.76074 3.17383,9.52148 1.39648,4.69727 2.72949,9.33106 1.39648,-4.63379 2.79297,-9.33106 1.45996,-4.76074 3.2373,-9.52148 l 16.44043,-44.62403 h 9.33106 l -31.48438,82.51953 q -5.96679,15.48829 -19.42383,15.48829 -2.60254,0 -4.76074,-0.44434 -2.1582,-0.44434 -3.42773,-1.01563 z M 443.76709,195 469.34814,158.62793 445.16357,124.0332 h 10.09278 l 10.85449,15.93262 q 2.41211,3.61816 4.37988,6.98242 2.03125,3.36426 3.99903,6.47461 1.90429,-3.11035 3.80859,-6.47461 1.9043,-3.36426 4.37988,-6.98242 l 10.98145,-15.93262 h 9.90234 L 479.25049,159.00879 504.70459,195 h -10.0293 l -12.69531,-18.4082 q -2.28516,-3.42774 -4.18945,-6.47461 -1.84082,-3.11035 -3.61817,-6.09375 -1.77734,2.9834 -3.55468,6.09375 -1.77735,3.04687 -4.0625,6.47461 L 453.79639,195 Z m 146.50488,1.58691 q -14.53613,0 -23.23242,-7.04589 -8.69629,-7.0459 -9.45801,-18.47168 h 9.2041 q 0.69825,8.44238 7.36329,12.88574 6.72851,4.44336 16.12304,4.44336 7.0459,0 12.44141,-2.34864 5.45898,-2.34863 8.56933,-6.53808 3.11036,-4.18945 3.11036,-9.83887 0,-7.10937 -5.39551,-10.85449 -5.39551,-3.74512 -14.28223,-6.41113 l -11.17187,-3.23731 q -11.29883,-3.30078 -17.39258,-9.2041 -6.09375,-5.9668 -6.09375,-14.98047 0,-7.68066 4.0625,-13.52051 4.12598,-5.83984 11.17187,-9.07714 7.0459,-3.300786 15.80567,-3.300786 8.95019,0 15.74219,3.300786 6.85546,3.30078 10.79101,8.95019 3.99902,5.64941 4.31641,12.88574 h -8.82324 q -0.8252,-7.87109 -6.91895,-12.4414 -6.09375,-4.57032 -15.36133,-4.57032 -9.71191,0 -15.86914,4.95118 -6.09375,4.88769 -6.09375,12.4414 0,4.8877 2.72949,8.18848 2.79297,3.2373 7.0459,5.33203 4.31641,2.09473 8.88672,3.42773 l 9.90234,2.85645 q 6.09375,1.71387 11.99707,4.69727 5.9668,2.98339 9.83887,7.93457 3.93555,4.95117 3.93555,12.75878 0,7.68067 -3.93555,13.71094 -3.93555,6.03028 -11.3623,9.58496 -7.36328,3.49121 -17.64649,3.49121 z m 78.04492,-72.55371 v 7.49024 h -14.5996 v 46.71875 q 0,10.66406 9.52148,9.71191 0.88867,0 2.1582,-0.19043 1.33301,-0.2539 2.47559,-0.50781 l 1.77734,7.42676 q -2.72949,0.88867 -6.47461,1.01562 -8.44238,0.57129 -13.2666,-3.99902 -4.82422,-4.63379 -4.82422,-12.88574 v -47.29004 h -10.53711 v -7.49024 h 10.53711 v -16.88476 h 8.63282 v 16.88476 z m 41.10157,71.91895 q -10.79102,0 -17.58301,-6.66504 -6.72852,-6.72852 -6.72852,-19.36035 V 124.0332 h 8.63282 v 45.25879 q 0,8.69629 4.88769,13.77442 4.8877,5.01464 13.07617,5.01464 8.37891,0 13.96485,-5.33203 5.64941,-5.33203 5.64941,-14.47265 V 124.0332 h 8.63281 V 195 h -8.3789 v -13.13965 q -3.30078,7.49024 -9.14063,10.79102 -5.83984,3.30078 -13.01269,3.30078 z m 79.63183,0.57129 q -8.69629,0 -15.23437,-4.57032 -6.53809,-4.63378 -10.21973,-12.88574 -3.61816,-8.31543 -3.61816,-19.36035 0,-10.98144 3.68164,-19.16992 3.68164,-8.25195 10.21972,-12.82227 6.60157,-4.63379 15.23438,-4.63379 6.47461,0 10.79102,2.34864 4.3164,2.28515 6.91894,5.64941 2.66602,3.36426 4.0625,6.60156 h 0.69824 v -37.26074 h 8.56934 V 195 h -8.31543 v -13.2666 h -0.95215 q -1.39648,3.30078 -4.0625,6.72851 -2.66602,3.42774 -7.0459,5.77637 -4.3164,2.28516 -10.72754,2.28516 z m 1.14258,-7.80762 q 6.85547,0 11.61621,-3.74512 4.82422,-3.74511 7.29981,-10.2832 2.53906,-6.60156 2.53906,-15.04395 0,-8.44238 -2.53906,-14.91699 -2.47559,-6.47461 -7.29981,-10.15625 -4.76074,-3.68164 -11.61621,-3.68164 -6.98242,0 -11.80664,3.8086 -4.76074,3.80859 -7.23633,10.34668 -2.47558,6.4746 -2.47558,14.5996 0,8.18848 2.47558,14.79004 2.53906,6.53809 7.29981,10.41016 4.82422,3.87207 11.74316,3.87207 z M 843.92627,195 v -70.9668 h 8.63281 V 195 Z m 4.37988,-84.10645 q -2.60254,0 -4.44336,-1.77734 -1.84082,-1.77734 -1.84082,-4.25293 0,-2.47558 1.84082,-4.25293 1.84082,-1.777342 4.44336,-1.777342 2.60254,0 4.44336,1.777342 1.84082,1.77735 1.84082,4.25293 0,2.47559 -1.84082,4.25293 -1.84082,1.77734 -4.44336,1.77734 z m 55.6377,85.62989 q -9.26758,0 -16.31348,-4.63379 -7.0459,-4.69727 -11.04492,-12.94922 -3.99902,-8.25195 -3.99902,-19.04297 0,-10.91797 3.99902,-19.16992 3.99902,-8.31543 11.04492,-12.94922 7.0459,-4.69727 16.31348,-4.69727 9.2041,0 16.25,4.69727 7.10937,4.63379 11.1084,12.94922 3.99902,8.25195 3.99902,19.16992 0,10.79102 -3.99902,19.04297 -3.99903,8.25195 -11.1084,12.94922 -7.0459,4.63379 -16.25,4.63379 z m 0,-7.80762 q 7.2998,0 12.31445,-3.93555 5.07813,-3.93554 7.74414,-10.47363 2.66602,-6.53809 2.66602,-14.40918 0,-7.93457 -2.66602,-14.47266 -2.66601,-6.60156 -7.74414,-10.5371 -5.07812,-3.99903 -12.31445,-3.99903 -7.23633,0 -12.31446,3.99903 -5.01464,3.93554 -7.68066,10.5371 -2.66602,6.53809 -2.66602,14.47266 0,7.87109 2.60254,14.40918 2.66602,6.53809 7.74414,10.47363 5.07813,3.93555 12.31446,3.93555 z m 73.98242,7.80762 q -10.47363,0 -17.3291,-4.69727 -6.79199,-4.76074 -8.69629,-13.71094 l 8.25195,-1.96777 q 1.52344,6.41113 6.03028,9.58496 4.57031,3.11035 11.61621,3.11035 8.06152,0 12.88574,-3.61816 4.88769,-3.61816 4.88769,-9.01367 0,-8.63282 -11.55273,-11.42578 l -11.55273,-2.79297 q -18.21778,-4.37989 -18.21778,-18.85254 0,-5.9668 3.17383,-10.47363 3.2373,-4.50684 8.82324,-7.0459 5.64942,-2.53907 12.82227,-2.53907 10.02929,0 15.86914,4.57032 5.90331,4.50683 8.37891,12.1875 l -7.8711,2.03125 q -1.65039,-4.8877 -5.52246,-8.06153 -3.80859,-3.2373 -10.79102,-3.2373 -7.04589,0 -11.61621,3.42773 -4.57031,3.36426 -4.57031,8.63282 0,8.75976 12.69531,11.80664 l 10.8545,2.60254 q 17.96389,4.3164 17.96389,18.6621 0,6.09375 -3.3643,10.79102 -3.36424,4.69727 -9.39452,7.36328 -5.96679,2.66602 -13.77441,2.66602 z"
     id="text1"
     style="font-size:130px;font-family:'Inter Light';letter-spacing:2;text-anchor:middle;fill:#1d1d1f"
     aria-label="Onyx Studios" />
</svg>
