<?xml version="1.0" encoding="UTF-8"?>
<!-- Onyx Studios Icon - Mono #6e6e73 -->
<svg xmlns="http://www.w3.org/2000/svg" viewBox="0 0 1200 800" width="1200" height="800">
  <g transform="translate(50.0 171.728515625) scale(0.537109375)">
    <g transform="translate(0.000000,850.000000) scale(0.100000,-0.100000)" fill="#6e6e73" stroke="none">
<path d="M7068 8020 c-261 -28 -551 -123 -768 -253 -366 -219 -654 -575 -843
-1042 -170 -423 -267 -1009 -307 -1855 -36 -774 23 -1656 144 -2160 152 -634
371 -1049 747 -1416 132 -128 193 -179 304 -256 370 -255 808 -418 1230 -459
239 -23 519 -9 742 37 94 19 333 92 440 135 134 52 353 162 549 274 311 178
554 334 1439 920 264 175 566 374 670 443 1117 737 1556 1035 1635 1108 192
181 273 377 249 600 -11 102 -22 141 -70 240 -73 149 -178 253 -453 448 -297
211 -808 572 -1061 749 -148 104 -353 249 -455 322 -224 159 -670 476 -844
600 -70 50 -196 139 -279 198 -132 94 -275 194 -462 326 -308 216 -839 543
-1055 651 -422 210 -765 330 -1070 374 -135 20 -370 27 -482 16z m713 -465
c55 -8 144 -25 197 -36 122 -26 447 -133 572 -189 102 -45 348 -166 365 -180
5 -4 53 -30 105 -58 123 -64 418 -246 624 -384 6 -4 8 -10 4 -13 -3 -4 -82 16
-174 44 -345 103 -599 156 -867 181 -164 16 -498 8 -627 -15 -225 -40 -466
-130 -636 -237 -105 -65 -253 -194 -335 -291 -90 -106 -206 -286 -274 -425
-33 -67 -66 -122 -73 -122 -9 0 -11 -7 -7 -20 4 -12 -14 -82 -43 -172 -28 -84
-60 -189 -72 -233 -12 -44 -25 -82 -29 -85 -4 -3 -7 -16 -7 -30 0 -14 -12 -95
-27 -180 -101 -602 -82 -1241 53 -1775 195 -770 605 -1322 1195 -1610 313
-153 606 -216 1005 -216 333 0 560 32 944 135 154 42 145 26 -64 -104 -206
-128 -519 -293 -690 -364 -187 -78 -421 -148 -599 -178 -166 -29 -485 -31
-631 -4 -358 66 -688 206 -963 409 -161 119 -363 335 -488 522 -82 121 -244
455 -313 643 -56 152 -102 322 -136 502 -10 52 -27 140 -39 195 -120 596 -127
1576 -15 2255 64 385 148 696 256 951 44 106 149 309 158 309 6 0 10 8 10 19
0 10 10 29 23 42 12 14 27 36 34 49 21 46 140 185 240 281 203 194 422 311
691 369 195 42 419 47 633 15z m298 -1065 c135 -22 405 -133 551 -225 25 -16
70 -42 99 -58 65 -35 217 -128 356 -219 55 -36 188 -121 295 -190 558 -357
830 -534 840 -548 3 -4 12 -9 21 -12 9 -4 173 -109 365 -234 192 -125 448
-291 569 -369 422 -271 515 -335 559 -380 117 -120 116 -262 -2 -366 -69 -61
-228 -155 -1212 -722 -260 -149 -572 -331 -1150 -668 -425 -249 -693 -396
-798 -439 -158 -64 -324 -90 -465 -71 -272 36 -488 151 -717 380 -151 152
-247 290 -349 501 -137 287 -224 594 -266 935 -74 607 -9 1310 165 1785 64
175 136 321 160 327 15 4 19 11 14 25 -8 26 82 162 167 252 213 228 518 341
798 296z"/>
<path d="M8199 6197 c-9 -7 -21 -22 -27 -34 -9 -16 -12 -510 -12 -1978 l0
-1956 26 -26 c42 -42 81 -30 329 99 431 225 580 309 613 343 l32 35 0 1457 c0
993 -3 1470 -11 1496 -5 21 -22 51 -37 67 -15 16 -155 102 -312 191 -157 88
-346 196 -421 240 -75 43 -142 79 -150 79 -8 0 -21 -6 -30 -13z"/>
<path d="M12066 7874 c-3 -9 -6 -31 -6 -50 l0 -35 -197 1 c-109 1 -251 1 -315
1 l-118 -1 0 -302 c0 -167 -3 -320 -6 -340 l-7 -38 -83 0 -83 0 -3 113 -3 112
-90 0 -90 0 -3 -112 -3 -113 -89 0 -90 0 0 119 0 120 38 3 37 3 3 159 c2 121
-1 161 -10 168 -7 4 -79 8 -160 8 -135 0 -148 -2 -158 -19 -11 -21 -14 -278
-4 -305 4 -10 18 -16 35 -16 33 0 31 8 33 -132 l1 -108 -350 -2 c-321 -3 -350
-4 -350 -20 0 -11 104 -90 290 -219 610 -426 2155 -1524 2582 -1836 343 -250
476 -390 574 -598 59 -125 81 -235 81 -387 -1 -166 -24 -263 -102 -424 -96
-199 -209 -330 -414 -483 -105 -78 -457 -319 -1051 -720 -236 -160 -686 -464
-1000 -676 -313 -213 -657 -444 -762 -513 -106 -70 -191 -131 -190 -137 2 -6
134 -11 360 -13 l357 -2 0 -130 0 -130 -39 0 c-21 0 -44 -6 -50 -14 -8 -9 -11
-63 -9 -167 l3 -154 178 -3 177 -2 0 115 0 115 225 0 225 0 2 -163 3 -162 444
-3 c349 -2 446 0 453 10 4 7 8 165 8 351 l0 337 364 0 c313 0 365 2 376 15 10
12 12 91 7 360 l-5 345 223 0 224 0 3 -57 3 -58 185 0 185 0 3 188 2 187 -50
0 -50 0 0 220 0 220 363 2 362 3 3 358 2 357 80 0 80 0 0 -28 c0 -15 5 -33 12
-40 17 -17 279 -17 296 0 8 8 12 57 12 153 0 153 -4 165 -52 165 -28 0 -28 1
-28 60 l0 60 328 2 327 3 0 435 0 435 -327 3 -328 2 0 65 0 64 38 3 37 3 3
157 c3 187 21 170 -178 166 l-135 -3 -3 -37 -3 -38 -80 0 -79 0 0 240 0 240
45 0 45 0 0 180 0 180 -182 -2 -183 -3 -3 -42 -3 -43 -226 0 -226 0 7 274 c5
197 4 281 -4 296 -10 19 -18 21 -98 18 l-87 -3 -3 -132 -3 -132 -167 2 -167 2
-3 -162 -2 -163 -95 0 -95 0 0 275 0 275 59 0 c58 0 60 -1 63 -27 l3 -28 139
-8 c99 -5 142 -4 152 4 11 9 14 43 14 139 0 71 -3 135 -6 144 -4 10 -18 16
-35 16 -24 0 -29 4 -29 24 0 21 5 25 38 28 l37 3 0 160 0 160 -162 3 c-106 2
-163 -1 -164 -8 0 -5 0 -44 0 -85 0 -41 0 -111 0 -155 l1 -80 30 0 c25 0 30
-4 30 -24 0 -18 -6 -25 -22 -28 -15 -2 -24 -11 -26 -25 -3 -21 -9 -23 -63 -23
l-59 0 0 49 c0 44 3 50 23 53 22 3 22 5 22 148 l0 145 -145 0 -145 0 -3 -147
-3 -148 26 0 c23 0 25 -3 25 -50 l0 -50 -85 0 -85 0 0 130 0 130 -90 0 -90 0
0 -130 0 -130 -100 0 -100 0 0 584 0 585 38 3 37 3 3 188 2 187 -174 0 c-149
0 -175 -2 -180 -16z m-294 -401 l3 -138 83 -3 c53 -2 89 1 98 9 11 9 14 42 14
140 l0 129 45 0 c45 0 45 0 45 -34 0 -56 8 -66 51 -66 l39 0 0 -200 0 -200
-270 0 -270 0 0 250 0 250 80 0 79 0 3 -137z m-1075 -593 c0 -22 -4 -40 -9
-40 -14 0 -98 62 -98 72 0 4 24 8 54 8 l53 0 0 -40z m363 -120 c0 -139 -2
-160 -16 -160 -8 0 -49 23 -90 52 l-74 52 0 108 0 108 90 0 90 0 0 -160z m360
136 c0 -12 3 -51 6 -85 l7 -61 -92 0 -91 0 0 85 0 85 85 0 c83 0 85 -1 85 -24z
m730 -97 l0 -122 -142 3 c-79 2 -158 3 -175 2 l-33 -2 0 -170 0 -170 -95 0
-95 0 0 290 0 290 270 0 270 0 0 -121z m-720 -349 c0 -121 -5 -129 -58 -92
-142 97 -262 186 -262 193 0 5 72 9 160 9 l160 0 0 -110z m720 -35 l0 -75 -80
0 -80 0 0 75 0 75 80 0 80 0 0 -75z m-350 -310 c0 -25 -3 -45 -8 -45 -15 0
-82 62 -82 76 0 10 13 14 45 14 l45 0 0 -45z m350 -126 c0 -196 8 -187 -96
-113 l-64 46 0 119 0 119 80 0 80 0 0 -171z m392 34 l3 -138 65 -3 c116 -5
110 -13 110 143 l0 135 84 0 84 0 6 -31 c3 -17 6 -141 6 -275 l0 -244 -238 0
c-235 0 -238 0 -273 24 -24 17 -38 35 -43 57 -3 17 -6 130 -6 250 l0 219 100
0 99 0 3 -137z m1078 -349 c0 -65 -2 -75 -16 -70 -9 3 -42 6 -75 6 l-59 0 0
70 0 70 75 0 75 0 0 -76z m-784 -264 l64 0 0 -70 c0 -38 -3 -70 -6 -70 -3 0
-29 19 -58 43 -28 23 -69 53 -89 67 -45 31 -47 45 -6 36 17 -3 60 -6 95 -6z
m444 -165 l0 -175 170 0 170 0 0 -106 0 -107 -109 5 -110 4 -90 87 c-50 47
-120 107 -156 132 l-65 47 0 137 c0 76 2 140 5 143 3 3 46 6 95 7 l90 1 0
-175z m340 90 l0 -85 -75 0 -75 0 0 85 0 85 75 0 75 0 0 -85z m644 69 c3 -9 6
-27 6 -40 0 -21 4 -24 40 -24 l40 0 0 -240 0 -240 -264 0 -263 0 -7 77 c-3 42
-6 89 -6 104 l0 28 143 3 142 3 3 88 3 87 -146 0 -145 0 0 85 0 85 224 0 c195
0 225 -2 230 -16z m-644 -779 c0 -30 -3 -55 -7 -55 -7 0 -63 94 -63 105 0 3
16 5 35 5 l35 0 0 -55z m730 -50 l0 -105 -187 -2 -188 -3 -3 -167 -2 -168 -80
0 -80 0 0 275 0 275 270 0 270 0 0 -105z m350 70 c0 -31 3 -35 25 -35 l25 0 0
-160 0 -160 131 0 c131 0 131 0 125 -22 -3 -13 -6 -49 -6 -80 l0 -58 -230 0
-230 0 0 275 0 275 80 0 80 0 0 -35z m-350 -435 l0 -80 -100 0 -100 0 0 80 0
80 100 0 100 0 0 -80z m1060 0 l0 -80 -110 0 -110 0 0 80 0 80 110 0 110 0 0
-80z m-1440 -340 c0 -78 -1 -80 -24 -80 -31 0 -36 -15 -36 -110 0 -95 5 -110
36 -110 23 0 24 -2 24 -80 l0 -80 -80 0 -80 0 0 270 0 270 80 0 80 0 0 -80z
m380 -190 l0 -270 -100 0 -100 0 0 79 c0 79 0 80 28 83 l27 3 3 104 c3 109 -3
127 -40 115 -16 -5 -18 3 -18 75 l0 81 100 0 100 0 0 -270z m650 190 l0 -79
-122 -3 -123 -3 -3 -152 c-2 -148 -3 -152 -25 -155 -17 -2 -23 -11 -25 -35
l-3 -33 -80 0 -79 0 0 270 0 270 230 0 230 0 0 -80z m414 64 c3 -9 6 -45 6
-80 l0 -64 -115 0 -115 0 0 80 0 80 109 0 c90 0 110 -3 115 -16z m-1794 -449
l0 -75 -46 0 c-25 0 -44 4 -42 8 15 37 75 142 81 142 4 0 7 -34 7 -75z m0
-345 l0 -90 -185 0 -185 0 0 -180 0 -180 -85 0 -85 0 0 98 c0 158 3 165 79
224 36 28 102 88 146 134 l80 83 118 0 117 1 0 -90z m350 0 l0 -90 -80 0 -80
0 0 90 0 90 80 0 80 0 0 -90z m380 -180 l0 -270 -270 0 -270 0 0 90 0 90 170
0 170 0 0 180 0 180 100 0 100 0 0 -270z m-730 -180 l0 -90 -95 0 -95 0 0 90
0 90 95 0 95 0 0 -90z m-720 -20 l0 -70 -95 0 c-52 0 -95 3 -95 8 1 7 170 130
183 131 4 1 7 -30 7 -69z m0 -325 l0 -75 -135 0 c-156 0 -148 6 -143 -115 l3
-70 138 -3 137 -3 0 -88 0 -89 -280 1 -280 2 0 230 0 230 43 27 42 28 238 0
237 0 0 -75z m350 0 l0 -75 -85 0 -85 0 0 75 0 75 85 0 85 0 0 -75z m370 -145
l0 -220 -45 0 -45 0 0 -37 0 -38 -225 0 -225 0 0 82 0 83 173 2 172 3 3 173 2
172 95 0 95 0 0 -220z m-1470 -136 l0 -166 -222 7 c-123 4 -225 9 -228 12 -3
3 8 14 24 26 73 54 412 286 419 286 4 1 7 -74 7 -165z m-720 -439 l0 -105
-130 0 -131 0 3 -87 3 -88 128 -3 127 -3 0 -73 c0 -68 -2 -74 -22 -80 -13 -3
-130 -6 -260 -6 l-238 0 0 108 1 107 252 167 c139 92 255 167 260 167 4 1 7
-46 7 -104z m720 -175 l0 -270 -264 0 -263 0 -7 31 c-3 17 -6 139 -6 270 l0
239 270 0 270 0 0 -270z m743 8 c-3 -145 -8 -265 -10 -268 -2 -2 -43 -5 -91
-5 l-87 0 -3 148 -3 147 -99 0 -100 0 0 -150 0 -150 -80 0 -80 0 0 270 0 270
279 0 279 0 -5 -262z m-2175 -241 c2 -17 -1 -27 -10 -27 -7 0 -30 -3 -50 -6
-23 -4 -38 -3 -38 3 0 13 72 63 85 59 6 -1 11 -15 13 -29z m712 -310 l0 -93
-265 -1 -265 0 0 93 0 94 265 0 265 0 0 -93z m720 -167 l0 -260 -110 0 -110 0
0 165 0 165 -160 0 -160 0 0 95 0 95 270 0 270 0 0 -260z m-400 -185 l0 -75
-70 0 -70 0 0 75 0 75 70 0 70 0 0 -75z"/>
    </g>
  </g>
</svg>
