<?xml version="1.0" standalone="no"?>
<!DOCTYPE svg PUBLIC "-//W3C//DTD SVG 20010904//EN"
 "http://www.w3.org/TR/2001/REC-SVG-20010904/DTD/svg10.dtd">
<svg version="1.0" xmlns="http://www.w3.org/2000/svg"
 width="2048.000000pt" height="850.000000pt" viewBox="0 0 2048.000000 850.000000"
 preserveAspectRatio="xMidYMid meet">
<metadata>
Created by potrace 1.16, written by Peter Selinger 2001-2019
</metadata>
<g transform="translate(0.000000,850.000000) scale(0.100000,-0.100000)"
fill="#000000" stroke="none">
<path d="M7068 8020 c-261 -28 -551 -123 -768 -253 -360 -215 -647 -566 -833
-1019 -35 -83 -48 -106 -72 -118 -17 -8 -32 -16 -34 -17 -2 -1 2 -22 8 -45 11
-40 9 -58 -32 -223 -73 -295 -123 -604 -147 -905 -7 -80 -17 -161 -24 -181 -7
-19 -10 -44 -6 -55 4 -10 4 -73 -1 -139 -17 -233 -22 -920 -10 -1165 24 -470
78 -913 145 -1190 152 -634 371 -1049 747 -1416 132 -128 193 -179 304 -256
370 -255 808 -418 1230 -459 239 -23 519 -9 742 37 94 19 333 92 440 135 134
52 353 162 549 274 311 178 554 334 1439 920 264 175 564 374 668 442 l187
124 0 640 c0 351 -2 639 -4 639 -2 0 -19 -6 -37 -14 -19 -7 -43 -10 -54 -6
-16 6 -23 0 -36 -29 -18 -39 49 2 -894 -542 -331 -191 -664 -384 -1180 -686
-583 -341 -757 -434 -907 -482 -138 -44 -253 -57 -371 -43 -276 34 -495 149
-727 381 -151 152 -247 290 -349 501 -137 287 -224 594 -266 935 -74 607 -9
1310 165 1785 62 169 134 317 158 324 12 4 20 15 20 31 0 49 105 198 207 293
108 102 210 164 340 209 270 93 471 67 814 -103 84 -41 164 -86 177 -99 13
-13 38 -28 57 -34 35 -12 201 -111 372 -223 55 -36 188 -121 295 -190 261
-167 691 -445 763 -493 33 -22 60 -48 63 -61 3 -12 11 -21 18 -18 24 9 68 -17
414 -242 191 -125 382 -249 424 -277 56 -36 81 -58 89 -81 10 -28 16 -31 48
-31 39 0 54 -8 284 -158 l117 -77 0 628 -1 627 -212 150 c-116 83 -354 251
-528 375 -174 124 -373 266 -443 315 -70 50 -196 139 -279 198 -132 94 -275
194 -462 326 -308 216 -839 543 -1055 651 -422 210 -765 330 -1070 374 -135
20 -370 27 -482 16z m713 -465 c55 -8 144 -25 197 -36 122 -26 447 -133 572
-189 102 -45 348 -166 365 -180 5 -4 51 -29 100 -55 245 -128 288 -166 260
-232 -21 -48 -54 -54 -164 -26 -124 32 -345 68 -504 83 -164 16 -498 8 -627
-15 -225 -40 -466 -130 -636 -237 -105 -65 -253 -194 -335 -291 -81 -95 -196
-270 -255 -385 -30 -60 -56 -98 -71 -105 -22 -10 -29 -32 -25 -80 2 -18 -86
-306 -130 -427 -10 -30 -21 -71 -23 -90 -2 -19 -13 -88 -24 -154 -105 -596
-87 -1263 49 -1801 195 -770 605 -1322 1195 -1610 237 -116 446 -174 730 -205
129 -14 418 -14 565 0 122 11 320 39 331 46 18 11 72 -21 84 -49 26 -62 10
-77 -178 -179 -317 -171 -643 -290 -936 -340 -166 -29 -485 -31 -631 -4 -491
90 -911 313 -1229 652 -168 180 -261 319 -392 589 -141 291 -223 535 -279 835
-10 52 -27 140 -39 195 -28 140 -58 357 -70 510 -15 184 -32 621 -27 680 3 28
6 120 7 205 6 470 81 1006 200 1438 62 224 233 629 283 671 9 8 16 20 16 28 0
8 13 27 28 43 16 16 35 43 42 61 38 92 270 327 421 428 163 110 306 170 497
211 195 42 419 47 633 15z"/>
<path d="M11430 7495 c0 -330 -4 -354 -59 -373 -39 -14 -86 1 -103 32 -7 11
-15 57 -18 101 l-5 80 -106 1 -106 0 13 -33 c18 -42 18 -95 0 -137 -17 -42
-61 -60 -107 -44 -79 28 -79 199 1 227 18 6 36 8 41 6 4 -3 2 10 -6 29 -11 25
-15 74 -15 165 0 108 -3 130 -16 135 -9 3 -80 6 -159 6 -132 0 -145 -2 -155
-19 -5 -11 -10 -82 -10 -160 0 -114 3 -142 16 -155 8 -9 20 -16 25 -16 6 0 17
-16 25 -35 24 -58 0 -160 -43 -181 -10 -5 -160 -11 -333 -14 -287 -5 -315 -6
-315 -22 0 -11 104 -90 290 -219 409 -285 1190 -838 1283 -907 l32 -24 0 926
0 926 -85 0 -85 0 0 -295z"/>
<path d="M8199 6197 c-9 -7 -21 -22 -27 -34 -9 -16 -12 -510 -12 -1978 l0
-1956 26 -26 c42 -42 81 -30 329 99 431 225 580 309 613 343 l32 35 0 1457 c0
993 -3 1470 -11 1496 -5 21 -22 51 -37 67 -15 16 -155 102 -312 191 -157 88
-346 196 -421 240 -75 43 -142 79 -150 79 -8 0 -21 -6 -30 -13z"/>
<path d="M11549 2148 c-68 -50 -1130 -767 -1351 -913 -109 -71 -196 -134 -195
-140 2 -6 125 -12 328 -15 230 -4 330 -9 345 -17 27 -15 44 -62 44 -118 0 -67
-18 -104 -59 -123 l-36 -17 0 -160 0 -160 178 -3 177 -2 0 70 c0 91 18 134 60
149 42 14 287 14 329 0 17 -6 37 -21 44 -33 7 -12 14 -76 17 -151 l5 -130 83
-3 82 -3 0 901 c0 495 -2 900 -3 900 -2 0 -24 -14 -48 -32z"/>
</g>
</svg>
