<?xml version="1.0" standalone="no"?>
<!DOCTYPE svg PUBLIC "-//W3C//DTD SVG 20010904//EN"
 "http://www.w3.org/TR/2001/REC-SVG-20010904/DTD/svg10.dtd">
<svg version="1.0" xmlns="http://www.w3.org/2000/svg"
 width="2048.000000pt" height="260.000000pt" viewBox="0 0 2048.000000 260.000000"
 preserveAspectRatio="xMidYMid meet">
<metadata>
Created by potrace 1.16, written by Peter Selinger 2001-2019
</metadata>
<g transform="translate(0.000000,260.000000) scale(0.100000,-0.100000)"
fill="#000000" stroke="none">
<path d="M14804 2581 c-36 -22 -78 -74 -89 -111 -4 -14 -22 -37 -39 -53 -28
-25 -36 -27 -79 -22 -56 7 -87 33 -87 73 0 52 -1 53 -211 50 l-194 -3 -3 -39
c-3 -38 -41 -85 -69 -86 -18 0 -41 -76 -57 -189 -9 -57 -17 -105 -18 -106 -2
-1 -39 2 -83 8 -96 12 -232 -1 -316 -31 -110 -38 -241 -149 -303 -254 -29 -50
-44 -56 -90 -38 -16 6 -26 17 -26 30 0 11 -6 20 -12 20 -12 1 -48 52 -78 113
-7 15 -19 27 -26 27 -9 0 -14 19 -16 58 l-3 57 -189 3 c-197 3 -216 -1 -216
-40 0 -14 -5 -18 -18 -14 -22 7 -31 -10 -61 -116 -22 -77 -24 -98 -21 -229 2
-44 -3 -86 -10 -99 -16 -30 -32 -144 -34 -250 -3 -105 -11 -136 -39 -144 -38
-10 -65 -7 -71 9 -3 8 -12 15 -21 15 -8 0 -15 6 -15 14 0 8 -6 16 -12 19 -10
3 -13 64 -11 268 2 243 0 271 -19 337 -18 60 -26 74 -50 84 -25 12 -28 17 -28
64 0 86 3 85 -215 82 l-190 -3 -3 -34 c-2 -18 -12 -43 -22 -54 -11 -11 -24
-35 -31 -54 -11 -35 -40 -44 -62 -20 -32 34 -57 79 -57 101 0 38 -25 56 -80
56 -27 0 -60 5 -73 11 -30 14 -57 59 -57 97 0 32 -29 72 -52 72 -11 0 -17 14
-21 46 -2 26 -11 50 -18 55 -22 14 -363 11 -377 -3 -7 -7 -12 -31 -12 -55 0
-31 -4 -43 -15 -43 -20 0 -65 -81 -65 -118 0 -22 -5 -32 -15 -32 -19 0 -65 47
-65 66 0 8 -7 14 -15 14 -7 0 -18 6 -22 14 -4 7 -18 18 -30 25 -15 8 -23 22
-25 49 -3 36 -6 38 -88 80 -47 23 -130 54 -185 68 -86 23 -121 26 -255 27
-163 1 -261 -14 -363 -54 -106 -42 -229 -143 -269 -223 -11 -22 -27 -45 -34
-49 -8 -4 -14 -13 -14 -19 0 -6 -17 -27 -38 -47 -57 -53 -72 -119 -72 -312 0
-152 13 -260 34 -287 6 -7 20 -21 30 -30 10 -9 44 -41 74 -70 l55 -54 -40 -91
c-30 -72 -43 -93 -61 -95 -12 -2 -22 -7 -22 -12 0 -5 -8 -11 -19 -15 -14 -4
-22 -25 -35 -88 -9 -45 -16 -104 -16 -130 0 -63 30 -177 47 -177 7 0 13 -7 13
-15 0 -8 7 -15 16 -15 8 0 30 -11 48 -25 18 -14 38 -25 44 -25 7 0 17 -9 24
-20 7 -11 18 -20 25 -20 7 0 13 -4 13 -10 0 -5 9 -10 19 -10 11 0 21 -5 23
-11 4 -11 186 -59 224 -59 11 0 24 -3 28 -7 23 -23 443 -3 458 23 5 6 30 17
58 24 27 7 50 16 50 21 0 5 6 9 14 9 7 0 19 6 26 14 6 8 43 27 82 42 52 19 75
34 87 55 9 16 19 29 24 29 4 0 7 7 7 15 0 8 9 15 20 15 11 0 20 7 20 15 0 8 7
15 15 15 8 0 15 6 15 14 0 15 21 26 49 26 19 0 91 -64 91 -80 0 -6 4 -10 9
-10 5 0 24 -20 42 -45 19 -24 42 -45 51 -45 9 0 23 -7 32 -15 8 -8 19 -15 25
-15 6 0 11 -4 11 -10 0 -5 9 -10 20 -10 11 0 20 -7 20 -15 0 -8 7 -15 15 -15
8 0 15 -4 15 -10 0 -5 6 -10 13 -10 8 0 28 -7 45 -16 21 -10 74 -17 156 -21
104 -5 130 -3 159 11 19 9 45 16 57 16 28 0 52 13 88 50 17 16 40 30 51 30 12
0 21 5 21 10 0 6 7 10 15 10 8 0 19 9 25 20 6 11 19 20 28 20 10 0 23 5 29 11
16 16 86 -19 140 -70 42 -39 95 -71 119 -71 7 0 14 -4 16 -9 4 -11 215 -31
273 -26 22 2 62 8 90 14 28 6 131 10 240 10 214 -2 263 8 321 65 18 17 48 45
68 63 20 18 36 38 36 45 0 7 11 22 25 32 14 10 25 25 25 32 0 33 73 2 120 -51
71 -80 145 -135 182 -135 7 0 19 -9 25 -19 8 -13 29 -21 65 -26 29 -4 63 -11
74 -16 35 -12 252 -13 335 0 42 6 101 9 130 7 167 -16 229 -18 229 -9 0 6 28
13 62 16 40 3 66 11 74 21 6 9 14 16 18 16 4 0 24 13 44 29 44 34 100 55 116
42 6 -4 23 -11 37 -14 14 -4 43 -22 65 -42 21 -19 45 -35 54 -35 9 0 21 -5 28
-12 8 -8 52 -12 131 -13 l119 0 50 48 c28 26 56 47 62 47 5 0 10 5 10 10 0 11
11 27 41 58 9 9 20 33 24 52 8 38 52 83 73 75 8 -3 18 -5 23 -5 6 0 21 -24 34
-54 24 -54 99 -126 131 -126 26 0 94 -35 94 -48 0 -8 9 -16 20 -19 11 -3 20
-10 20 -15 0 -6 7 -8 15 -5 8 4 40 -3 72 -14 31 -10 65 -17 75 -13 10 3 20 0
23 -8 15 -38 369 11 425 59 16 13 34 23 42 23 15 0 270 128 278 139 8 12 63 7
68 -6 2 -7 8 -13 13 -13 5 0 26 -18 46 -40 21 -22 43 -40 50 -40 17 0 93 -33
93 -41 0 -11 37 -49 49 -49 6 0 11 -4 11 -8 0 -5 30 -9 66 -10 37 -1 94 -6
128 -11 95 -15 214 -16 301 -1 44 7 85 16 90 20 6 4 25 11 44 15 19 4 46 18
60 31 14 13 31 24 38 24 7 0 16 6 20 13 8 11 31 24 116 60 25 11 37 23 37 36
0 11 9 26 19 33 11 8 22 30 26 50 4 21 17 44 31 55 13 10 24 28 24 40 0 13 4
23 8 23 14 0 30 112 21 145 -5 16 -9 44 -9 61 0 21 -9 40 -27 58 -27 27 -55
125 -69 244 -4 28 -10 52 -13 52 -10 0 -5 94 6 115 14 26 30 124 32 194 2 84
-46 191 -85 191 -7 0 -14 12 -16 27 -2 22 -14 33 -59 55 -110 55 -196 71 -384
71 -196 1 -267 -12 -377 -70 -67 -35 -149 -112 -171 -160 -6 -13 -16 -23 -23
-23 -7 0 -29 -15 -48 -34 -42 -39 -88 -52 -106 -31 -7 8 -18 15 -26 15 -7 0
-16 10 -20 22 -10 32 -142 158 -206 196 -126 75 -286 104 -464 84 -180 -20
-303 -79 -415 -199 -35 -37 -94 -116 -104 -140 -1 -1 -17 2 -36 7 -38 11 -53
32 -64 94 -4 20 -11 36 -16 36 -13 0 -11 39 5 85 30 86 38 153 34 276 -3 78
-9 133 -18 149 -16 30 -74 90 -87 90 -5 0 -16 13 -26 29 -34 58 -71 71 -203
71 -100 0 -124 -3 -150 -19z m-3191 -1175 c19 -15 23 -46 19 -150 l-2 -59 -36
6 c-23 4 -47 1 -65 -9 -21 -11 -34 -12 -48 -4 -27 14 -32 36 -29 123 3 69 5
77 27 87 18 8 26 8 32 -2 6 -10 15 -9 41 4 41 20 39 20 61 4z m4395 -5 c40
-12 57 -28 67 -66 10 -41 8 -110 -5 -134 -22 -41 -176 -40 -203 2 -22 34 -29
74 -14 80 7 3 24 27 37 53 38 74 54 83 118 65z m-2148 -20 c0 -5 9 -13 20 -16
11 -3 20 -13 20 -21 0 -8 6 -14 14 -14 38 0 60 -86 32 -123 -26 -34 -116 -48
-142 -22 -9 8 -25 15 -36 15 -57 0 -79 79 -32 115 14 11 35 29 47 41 32 30 77
45 77 25z"/>
<path d="M3711 2435 c-138 -30 -222 -68 -330 -148 -60 -44 -139 -124 -174
-174 -12 -18 -25 -33 -29 -33 -23 0 -78 -85 -78 -119 0 -26 -38 -71 -60 -71
-42 0 -76 -132 -85 -335 -3 -71 -8 -163 -10 -204 -5 -82 17 -234 40 -278 8
-16 15 -34 15 -41 0 -8 15 -28 33 -45 34 -34 77 -107 77 -132 0 -8 4 -15 8
-15 4 0 13 -15 20 -34 9 -24 23 -38 55 -52 40 -18 55 -30 104 -87 13 -15 37
-28 62 -32 23 -4 41 -11 41 -15 0 -5 14 -11 31 -15 16 -4 46 -22 64 -41 59
-59 123 -75 295 -77 83 -1 150 -6 150 -10 0 -5 12 -6 28 -3 15 3 52 8 83 11
31 2 67 8 80 13 13 5 49 13 79 17 33 4 62 15 73 26 10 11 29 19 42 19 15 0 25
6 25 14 0 7 8 16 18 20 9 3 24 9 32 14 45 27 80 42 97 42 11 0 37 20 58 45 21
26 51 53 67 61 27 14 61 40 94 72 27 26 54 8 54 -36 0 -28 32 -102 44 -102 7
0 17 -15 24 -33 7 -18 20 -42 30 -53 10 -10 21 -27 25 -36 3 -10 16 -18 27
-18 11 0 20 -4 20 -8 0 -13 82 -32 164 -38 69 -5 85 -2 127 18 27 12 49 26 49
31 0 5 9 5 20 2 11 -3 20 -2 20 4 0 5 18 27 40 49 21 22 42 51 45 64 3 13 16
28 27 33 32 15 39 55 37 210 -5 351 -3 364 56 404 30 20 39 22 60 13 14 -7 29
-22 34 -34 12 -33 32 -318 34 -483 2 -160 20 -221 67 -232 14 -3 36 -16 50
-29 47 -43 96 -57 180 -49 41 4 83 11 93 17 12 6 23 6 31 -1 6 -6 22 -8 33 -5
40 11 60 -69 41 -163 -9 -47 13 -131 38 -146 8 -4 14 -15 14 -22 0 -8 9 -15
20 -15 11 0 20 -4 20 -9 0 -5 17 -15 37 -22 41 -13 63 -31 63 -49 0 -7 6 -10
14 -7 8 3 48 -5 90 -19 90 -28 214 -33 259 -9 15 8 43 17 62 21 19 3 35 10 35
14 0 5 14 11 30 15 17 4 30 10 30 15 0 4 17 15 38 23 20 9 72 50 115 91 43 42
83 76 88 76 5 0 9 8 9 19 0 10 6 24 14 30 8 7 22 34 32 62 10 27 24 49 31 49
7 0 13 7 13 15 0 8 8 23 18 33 23 23 52 99 52 137 0 43 31 147 52 174 10 13
18 32 18 42 0 9 10 26 23 36 28 22 80 130 98 203 7 30 27 80 43 110 31 56 52
104 64 150 4 14 14 35 22 47 14 19 21 20 60 12 25 -4 48 -8 51 -9 4 0 19 -34
34 -75 18 -51 25 -84 20 -102 -6 -27 -57 -83 -74 -83 -5 0 -15 -14 -23 -30 -7
-17 -20 -32 -29 -35 -8 -3 -23 -29 -33 -58 -10 -28 -31 -70 -47 -93 -15 -23
-35 -61 -43 -85 -8 -24 -20 -45 -26 -47 -5 -2 -10 -19 -10 -37 0 -19 -4 -45
-9 -58 -13 -33 35 -137 62 -137 10 0 28 -11 41 -25 13 -14 30 -25 37 -25 8 0
28 -7 44 -16 24 -12 51 -14 130 -10 55 3 112 5 128 6 15 0 35 9 44 20 10 11
26 20 36 20 9 0 20 7 23 15 4 8 15 15 25 15 10 0 19 7 19 15 0 8 6 15 13 15 8
0 19 11 25 24 15 33 69 44 109 23 15 -9 56 -30 91 -47 34 -17 62 -36 62 -41 0
-5 6 -9 13 -9 8 0 19 -10 24 -23 9 -19 24 -25 89 -36 106 -17 285 0 317 29 11
11 24 20 29 20 10 0 48 37 48 47 0 3 8 15 17 26 14 14 18 36 17 95 0 101 -10
145 -37 173 -63 67 -217 282 -236 329 -26 68 -25 92 9 127 16 18 30 34 30 38
0 3 14 24 30 47 17 22 30 47 30 55 0 7 4 13 8 13 4 0 16 14 25 30 10 17 23 30
29 30 6 0 27 19 48 41 32 36 39 52 50 118 7 42 12 99 12 127 0 59 -19 134 -32
134 -6 0 -10 6 -10 14 0 8 -7 17 -16 20 -11 4 -14 14 -9 35 5 23 2 32 -12 39
-10 5 -106 7 -214 4 l-197 -4 -68 -93 c-66 -88 -88 -107 -144 -118 -14 -3 -34
-8 -46 -12 -17 -5 -31 11 -97 109 l-77 116 -248 1 c-136 1 -299 2 -362 3 -63
1 -124 -1 -136 -5 -14 -5 -29 -28 -44 -69 -13 -34 -35 -74 -50 -88 -15 -15
-33 -46 -40 -69 -7 -24 -17 -43 -22 -43 -5 0 -14 -11 -20 -25 -6 -14 -17 -25
-25 -25 -7 0 -13 -6 -13 -14 0 -8 -3 -16 -7 -18 -5 -1 -21 -29 -38 -61 -33
-67 -38 -71 -65 -62 -36 12 -114 141 -125 206 -8 52 -25 109 -39 127 -5 8 -19
11 -35 7 -24 -5 -28 -1 -50 55 -13 33 -30 65 -36 70 -8 7 -87 9 -211 8 -223
-3 -205 5 -189 -80 7 -34 6 -38 -14 -38 -11 0 -30 -8 -41 -17 -10 -10 -31 -28
-45 -41 l-25 -23 -66 71 c-45 47 -86 80 -128 100 -141 69 -379 61 -529 -17
-28 -15 -55 -29 -58 -31 -4 -1 -9 15 -13 36 -7 50 -17 52 -217 52 -136 0 -151
-2 -169 -20 -11 -11 -24 -20 -28 -20 -5 0 -18 -23 -31 -51 -40 -93 -58 -98
-123 -35 -25 24 -49 45 -55 47 -5 2 -28 31 -51 65 -124 185 -295 301 -503 344
-113 24 -321 26 -418 5z m265 -716 c25 -7 48 -18 51 -25 3 -8 12 -14 20 -14
19 0 63 -41 63 -58 0 -7 6 -20 13 -27 35 -40 43 -52 54 -85 7 -19 18 -61 23
-94 10 -50 9 -60 -6 -77 -9 -10 -27 -19 -40 -19 -14 0 -25 -8 -29 -20 -11 -36
-72 -88 -117 -100 -24 -7 -80 -10 -128 -8 -104 5 -193 40 -212 85 -7 15 -15
30 -18 33 -16 14 -33 102 -31 159 3 71 14 111 33 111 12 0 88 78 88 91 0 3 9
18 21 33 19 24 26 26 95 26 41 0 96 -5 120 -11z m2377 -602 c24 -25 37 -57 31
-72 -5 -11 0 -18 14 -22 24 -6 36 -36 62 -143 9 -41 21 -83 25 -92 10 -24 -13
-23 -45 2 -39 30 -67 25 -91 -15 -21 -35 -42 -44 -54 -25 -5 9 8 222 21 338 5
43 16 52 37 29z"/>
</g>
</svg>
