<?xml version="1.0" standalone="no"?>
<!DOCTYPE svg PUBLIC "-//W3C//DTD SVG 20010904//EN"
 "http://www.w3.org/TR/2001/REC-SVG-20010904/DTD/svg10.dtd">
<svg version="1.0" xmlns="http://www.w3.org/2000/svg"
 width="2048.000000pt" height="369.000000pt" viewBox="0 0 2048.000000 369.000000"
 preserveAspectRatio="xMidYMid meet">
<metadata>
Created by potrace 1.16, written by Peter Selinger 2001-2019
</metadata>
<g transform="translate(0.000000,369.000000) scale(0.100000,-0.100000)"
fill="#000000" stroke="none">
<path d="M14100 3580 c0 -60 -4 -110 -9 -110 -16 0 -41 -83 -44 -143 -2 -46
-5 -56 -17 -51 -110 42 -356 45 -465 5 -192 -69 -340 -247 -381 -456 -9 -44
-24 -99 -35 -122 -10 -24 -19 -60 -19 -82 0 -26 -5 -41 -16 -45 -23 -9 -27 -8
-21 8 4 10 1 13 -7 10 -9 -3 -13 4 -12 23 2 55 -15 289 -25 353 -6 36 -17 75
-24 87 -10 14 -15 58 -17 130 l-3 108 -189 3 c-130 2 -193 -1 -202 -9 -11 -9
-14 -45 -14 -151 0 -79 -4 -137 -9 -134 -5 3 -12 -1 -15 -10 -4 -10 -2 -13 6
-8 7 5 8 3 2 -7 -14 -23 -19 -76 -29 -334 -4 -88 -11 -168 -17 -178 -15 -29
-106 -67 -161 -67 -87 0 -143 39 -172 119 -17 49 -20 73 -5 51 9 -13 10 -13
11 0 6 100 9 135 18 189 6 35 9 67 6 71 -2 3 -5 34 -6 68 -1 34 -7 62 -12 62
-6 0 -7 3 -4 7 4 3 0 11 -9 17 -12 9 -17 43 -22 161 l-7 150 -189 3 c-145 2
-191 -1 -198 -10 -4 -7 -8 -59 -8 -114 0 -80 -3 -103 -14 -107 -29 -11 -39
-85 -31 -227 4 -74 7 -139 7 -145 0 -5 -1 -77 -2 -160 -1 -86 5 -201 14 -269
9 -65 13 -123 10 -127 -3 -5 0 -18 6 -29 7 -13 7 -20 0 -20 -11 0 11 -24 55
-58 17 -13 65 -56 107 -95 138 -126 270 -156 528 -118 108 16 212 19 285 9 69
-10 202 20 248 55 40 31 50 64 68 227 11 108 39 227 46 200 3 -8 7 -22 9 -30
3 -8 5 -17 6 -20 0 -6 39 -63 48 -70 3 -3 28 -34 55 -70 27 -36 72 -88 100
-115 27 -28 58 -63 68 -78 10 -15 39 -38 65 -50 26 -12 49 -25 52 -28 27 -32
292 -42 500 -19 61 7 112 8 142 2 42 -8 213 -9 262 -2 11 2 36 20 57 41 31 31
40 50 53 111 19 83 18 70 17 398 0 329 -2 439 -7 610 -4 100 -1 167 8 216 8
40 11 82 7 98 -5 16 -11 56 -14 90 -8 79 -9 80 -18 87 -5 3 -11 52 -14 108
l-6 101 -198 0 -199 0 0 -110z m-174 -905 c42 -17 77 -67 100 -139 l18 -59
-41 -37 c-99 -87 -258 -80 -343 16 l-30 35 19 37 c10 20 24 54 30 74 16 48 52
73 121 86 57 10 74 8 126 -13z m-806 -124 c0 -6 -4 -12 -8 -15 -5 -3 -9 1 -9
9 0 8 4 15 9 15 4 0 8 -4 8 -9z"/>
<path d="M14716 3674 c-3 -9 -6 -42 -6 -74 0 -52 -20 -113 -42 -130 -10 -8
-13 -102 -4 -128 9 -28 66 -115 78 -120 4 -2 8 -28 8 -58 0 -31 -4 -53 -9 -50
-19 12 -34 -57 -43 -194 -5 -80 -7 -167 -6 -195 4 -68 1 -288 -6 -410 -11
-212 -10 -236 19 -321 22 -65 67 -118 123 -145 38 -19 63 -23 132 -23 76 1 90
4 127 28 26 17 47 41 56 64 19 49 41 168 34 186 -3 8 -3 17 1 20 3 4 7 26 8
51 1 24 8 53 14 64 6 12 7 21 3 21 -4 0 -1 5 7 10 11 7 11 10 2 10 -7 0 -10 5
-7 10 4 6 45 -30 93 -79 107 -110 105 -108 133 -162 59 -117 138 -172 304
-212 118 -28 282 -45 312 -32 10 5 20 9 23 9 3 1 34 8 70 15 36 7 85 19 110
26 25 8 64 19 87 25 32 8 50 21 74 55 17 24 47 51 65 60 19 9 42 28 51 43 10
15 20 29 24 32 15 12 56 89 69 128 7 23 17 42 22 42 4 0 8 7 8 16 0 26 52 114
67 114 8 0 12 4 9 8 -7 12 10 35 28 38 8 1 14 -3 13 -9 -1 -7 3 -11 10 -10 7
2 -3 -32 -24 -80 -42 -97 -50 -132 -33 -152 9 -10 9 -15 1 -15 -7 0 -11 -21
-11 -56 0 -62 26 -120 70 -161 35 -33 177 -101 225 -108 22 -4 60 -10 85 -14
52 -8 223 -6 325 4 107 10 209 55 280 122 33 30 74 68 90 83 29 27 56 94 61
150 4 45 -9 151 -20 163 -6 7 -11 52 -11 107 -1 76 -5 105 -23 144 -30 66 -65
111 -115 147 -22 16 -34 29 -27 29 17 0 70 50 70 66 0 6 9 23 21 38 15 19 22
45 25 91 3 58 2 65 -20 83 l-24 18 25 64 c31 76 27 85 -48 122 -200 101 -586
97 -766 -8 -104 -60 -175 -167 -195 -290 -6 -38 -17 -78 -24 -89 -8 -11 -14
-27 -14 -37 0 -10 -9 -27 -20 -38 -11 -11 -20 -26 -20 -32 -1 -7 -12 29 -25
79 -31 122 -75 202 -157 288 -110 116 -233 176 -400 195 -114 13 -265 -1 -362
-35 -190 -66 -344 -237 -401 -448 -10 -37 -20 -65 -23 -63 -2 3 -17 -1 -32 -9
-15 -8 -30 -11 -34 -8 -3 4 -6 -1 -6 -11 0 -17 -1 -17 -17 0 -15 14 -18 39
-20 140 -1 80 -8 144 -19 181 -9 31 -17 91 -17 133 0 63 4 83 27 126 28 54 40
131 24 152 -6 6 -7 12 -3 12 4 0 2 7 -5 15 -6 8 -9 19 -5 24 8 14 8 125 0 151
-6 19 -14 20 -235 20 -199 0 -229 -2 -234 -16z m1339 -996 c30 -16 86 -76 118
-126 30 -48 28 -59 -20 -104 -100 -95 -296 -89 -375 12 -28 35 -28 36 8 135
11 32 25 46 72 72 52 30 63 32 117 27 32 -3 68 -10 80 -16z"/>
<path d="M10035 3658 c-185 -13 -324 -65 -431 -161 -99 -90 -141 -188 -145
-337 -1 -49 -7 -78 -15 -85 -10 -7 -14 -36 -15 -90 -3 -199 46 -305 185 -400
20 -14 52 -36 71 -49 19 -13 56 -27 82 -31 26 -4 64 -14 83 -22 19 -8 49 -17
65 -20 17 -3 46 -12 65 -21 19 -8 37 -16 40 -17 3 0 23 -10 45 -22 55 -29 29
-38 -74 -24 -106 14 -185 41 -308 106 -57 30 -109 52 -117 49 -8 -3 -42 -68
-76 -145 l-63 -140 21 -29 c19 -25 21 -35 12 -79 -12 -66 -4 -105 34 -161 17
-25 36 -54 42 -65 6 -11 15 -19 20 -18 5 1 16 -4 24 -11 30 -25 148 -53 360
-86 30 -5 96 -7 145 -4 50 3 99 5 110 5 44 -2 248 53 278 75 18 13 46 33 62
44 96 63 132 96 140 127 3 16 17 45 31 65 13 21 24 42 24 48 0 5 4 10 8 10 5
0 18 19 28 42 19 43 21 47 23 72 0 8 10 18 21 21 11 4 18 11 15 16 -4 5 -1 9
4 9 6 0 11 -5 11 -11 0 -5 4 -8 9 -5 7 5 16 -14 26 -54 0 -3 6 -15 13 -27 7
-12 23 -68 37 -124 13 -56 31 -111 39 -123 22 -33 85 -96 96 -96 5 0 38 -13
72 -28 74 -34 117 -44 240 -56 30 -2 148 14 193 27 24 7 75 38 75 46 0 5 11
19 23 32 25 26 74 126 71 147 -1 6 -2 16 -3 21 -1 9 -39 24 -54 22 -4 -1 -1 9
8 22 14 22 12 31 -35 148 -28 68 -58 129 -66 136 -12 9 -25 7 -57 -8 -23 -10
-62 -19 -87 -19 -46 0 -80 13 -67 26 4 4 2 12 -3 19 -13 16 -15 60 -6 129 8
51 15 65 55 106 31 32 60 52 88 59 30 8 52 24 81 59 69 82 76 117 46 208 -9
27 -22 103 -28 169 l-11 120 -132 3 -133 3 -1 27 c-1 15 -4 79 -8 142 l-6 115
-191 3 -192 2 -6 -22 c-3 -13 -6 -78 -6 -145 l0 -122 -92 -3 -93 -3 -6 -90
c-3 -49 -6 -79 -8 -65 -3 24 -3 24 -12 -5 -6 -16 -11 -37 -13 -45 -2 -8 -13
-16 -25 -16 -17 -1 -20 3 -16 15 32 77 31 205 -2 270 l-22 43 20 50 c28 71 25
82 -26 113 -148 86 -371 129 -590 113z m233 -602 c17 -9 32 -14 32 -11 0 3 23
-7 50 -21 55 -28 128 -34 165 -13 13 8 102 5 111 -4 13 -13 24 -7 24 12 0 11
6 18 15 17 19 -3 32 -16 16 -16 -7 0 -10 -4 -6 -9 3 -5 7 -31 10 -58 13 -128
14 -131 83 -220 46 -61 66 -97 67 -118 1 -17 4 -36 7 -41 3 -5 1 -23 -3 -40
-7 -25 -14 -31 -34 -31 -13 0 -22 3 -19 8 3 5 -2 9 -10 9 -9 0 -16 5 -16 11 0
5 -4 8 -9 5 -9 -6 -13 6 -26 89 -12 70 -61 160 -117 210 -80 71 -191 119 -395
170 -98 25 -180 45 -183 46 -3 0 9 7 25 14 41 19 170 13 213 -9z m559 -572
c-3 -3 -12 -4 -19 -1 -8 3 -5 6 6 6 11 1 17 -2 13 -5z"/>
<path d="M3733 3645 c-346 -63 -599 -313 -658 -650 -8 -48 -15 -105 -15 -127
0 -22 -4 -37 -9 -34 -16 11 -32 -90 -34 -215 -2 -118 -1 -127 26 -176 15 -29
27 -60 27 -70 0 -10 11 -36 25 -58 13 -22 25 -45 25 -52 1 -38 47 -130 84
-167 22 -23 52 -57 66 -74 15 -20 48 -42 85 -56 33 -14 64 -31 70 -39 28 -37
144 -91 246 -113 50 -11 114 -13 260 -9 231 5 269 10 317 37 20 11 45 22 56
24 12 2 22 8 24 14 2 5 9 10 16 10 7 0 23 12 37 26 25 27 73 56 99 60 36 7 64
33 91 86 16 32 40 65 54 74 24 16 75 93 75 113 0 13 51 94 63 99 4 2 7 9 7 16
0 7 9 21 20 31 11 10 20 26 20 37 0 10 5 18 11 18 5 0 9 -8 7 -17 -1 -10 2
-25 7 -33 11 -17 28 -107 39 -210 8 -70 20 -222 19 -247 -1 -13 3 -23 8 -23 5
0 9 -6 9 -12 0 -15 92 -66 130 -74 57 -10 128 -5 180 15 52 20 131 74 128 89
-1 4 4 19 10 34 7 18 11 106 10 255 -2 299 11 345 118 414 47 31 103 41 144
26 47 -18 59 -62 64 -232 3 -82 9 -170 15 -195 6 -25 10 -97 9 -160 0 -63 1
-122 3 -130 8 -27 33 -54 78 -85 43 -29 48 -30 147 -28 91 1 110 5 160 30 45
22 59 35 66 58 8 32 14 150 24 548 5 187 10 251 20 261 7 8 12 15 11 18 -1 2
8 -7 20 -21 12 -14 20 -28 17 -33 -3 -4 2 -8 10 -8 9 0 16 -7 16 -15 0 -8 5
-15 10 -15 6 0 24 -21 40 -47 35 -56 60 -91 77 -109 12 -12 73 -215 73 -245 0
-19 50 -122 64 -131 6 -4 7 -8 2 -8 -5 0 -2 -8 6 -17 20 -24 58 -105 58 -125
0 -16 -28 -28 -66 -28 -12 0 -54 16 -92 36 -39 20 -77 34 -85 31 -8 -3 -45
-67 -82 -141 -65 -132 -67 -137 -51 -161 9 -14 20 -25 25 -25 5 0 -1 -30 -14
-66 l-23 -66 41 -60 c23 -33 52 -67 65 -76 35 -23 208 -61 278 -62 54 0 91 7
144 28 8 3 17 6 20 7 54 14 324 275 336 325 0 3 3 12 6 20 14 40 48 156 48
164 0 6 11 21 24 35 16 17 41 78 72 171 53 165 74 210 107 237 24 18 59 116
92 252 8 34 23 75 33 90 10 14 24 39 32 54 25 51 72 64 151 43 25 -7 59 -59
59 -90 0 -7 22 -45 50 -85 l50 -72 -157 -212 c-170 -229 -182 -254 -126 -272
28 -9 30 -12 18 -28 -17 -23 -12 -94 8 -134 25 -47 111 -74 225 -69 60 2 86
10 151 41 55 27 84 48 97 69 22 39 31 48 70 70 49 29 96 15 156 -45 28 -28 52
-48 55 -45 3 3 20 -10 38 -28 48 -49 112 -67 227 -63 80 3 100 7 129 27 38 26
73 60 63 60 -3 0 -2 6 3 13 14 17 8 108 -8 118 -8 5 -1 9 21 11 53 5 60 29 23
80 -18 24 -95 130 -173 237 l-140 193 26 31 c14 16 36 51 49 77 14 27 53 78
89 114 53 55 68 78 87 134 12 37 25 71 29 75 4 5 2 21 -6 35 -8 15 -14 32 -14
38 0 6 -9 23 -21 38 l-20 26 52 74 c28 41 48 79 45 85 -5 7 -74 11 -211 11
l-204 0 -112 -147 c-61 -82 -114 -151 -118 -155 -4 -4 -54 62 -111 147 l-105
155 -376 0 -377 0 -134 -337 c-111 -277 -138 -337 -153 -335 -10 2 -14 -1 -10
-7 3 -7 0 -8 -9 -5 -8 3 -17 11 -19 17 -103 255 -204 502 -234 572 l-39 90
-202 3 c-234 3 -221 11 -177 -110 18 -50 22 -74 15 -87 -14 -27 -31 -110 -32
-154 0 -23 -6 -41 -14 -44 -8 -3 -11 -10 -7 -16 4 -6 1 -7 -6 -3 -7 5 -10 14
-7 22 3 8 0 11 -10 7 -7 -3 -14 -10 -15 -17 0 -6 -7 14 -15 44 -36 138 -126
262 -231 317 -85 45 -150 56 -294 51 -133 -6 -209 -25 -281 -73 -21 -14 -40
-25 -42 -25 -3 0 -6 19 -8 43 l-3 42 -180 3 c-160 2 -181 1 -192 -15 -8 -11
-13 -52 -13 -115 0 -54 -4 -98 -8 -98 -13 0 -32 -47 -32 -77 0 -31 -40 -153
-50 -153 -4 0 -15 17 -26 38 -10 20 -24 44 -30 52 -6 8 -16 46 -23 85 -36 202
-166 398 -340 510 -95 61 -166 89 -289 115 -115 23 -267 25 -379 5z m252 -626
c4 -5 13 -9 22 -9 9 0 53 -18 99 -40 58 -28 88 -48 97 -67 16 -30 55 -216 59
-273 5 -96 -154 -215 -313 -235 -113 -14 -249 34 -332 117 -56 56 -90 123 -76
149 5 10 9 31 9 48 0 33 19 81 32 81 4 0 7 3 6 8 -1 4 3 18 9 32 6 14 18 43
27 65 13 30 30 48 68 70 28 17 62 37 75 45 29 17 209 25 218 9z"/>
<path d="M16749 2392 c11 -8 11 -10 0 -15 -10 -4 -8 -6 4 -6 21 -1 18 21 -4
27 -12 3 -12 2 0 -6z"/>
</g>
</svg>
